<?xml version="1.0" encoding="utf-8" standalone="no"?>
<!DOCTYPE svg PUBLIC "-//W3C//DTD SVG 1.1//EN"
  "http://www.w3.org/Graphics/SVG/1.1/DTD/svg11.dtd">
<svg xmlns:xlink="http://www.w3.org/1999/xlink" width="568.8pt" height="279.873415pt" viewBox="0 0 568.8 279.873415" xmlns="http://www.w3.org/2000/svg" version="1.1">
 <metadata>
  <rdf:RDF xmlns:dc="http://purl.org/dc/elements/1.1/" xmlns:cc="http://creativecommons.org/ns#" xmlns:rdf="http://www.w3.org/1999/02/22-rdf-syntax-ns#">
   <cc:Work>
    <dc:type rdf:resource="http://purl.org/dc/dcmitype/StillImage"/>
    <dc:date>2023-02-01T15:36:20.612559</dc:date>
    <dc:format>image/svg+xml</dc:format>
    <dc:creator>
     <cc:Agent>
      <dc:title>Matplotlib v3.5.2, https://matplotlib.org/</dc:title>
     </cc:Agent>
    </dc:creator>
   </cc:Work>
  </rdf:RDF>
 </metadata>
 <defs>
  <style type="text/css">*{stroke-linejoin: round; stroke-linecap: butt}</style>
 </defs>
 <g id="figure_1">
  <g id="patch_1">
   <path d="M 0 279.873415 
L 568.8 279.873415 
L 568.8 0 
L 0 0 
z
" style="fill: #ffffff"/>
  </g>
  <g id="axes_1">
   <g id="patch_2">
    <path d="M 7.2 272.673415 
L 561.6 272.673415 
L 561.6 7.2 
L 7.2 7.2 
z
" style="fill: #ffffff"/>
   </g>
   <g id="patch_3">
    <path d="M 150.772558 204.027429 
Q 193.87178 214.967306 216.826932 179.521193 
" clip-path="url(#pd2a329e38f)" style="fill: none; stroke: #000000; stroke-width: 2; stroke-linecap: round"/>
    <path d="M 207.194375 185.196917 
L 216.826932 179.521193 
L 215.587977 190.632673 
L 207.194375 185.196917 
z
" clip-path="url(#pd2a329e38f)" style="stroke: #000000; stroke-width: 2; stroke-linecap: round"/>
   </g>
   <g id="patch_4">
    <path d="M 142.131155 177.01817 
Q 165.086306 141.572057 208.185528 152.511933 
" clip-path="url(#pd2a329e38f)" style="fill: none; stroke: #000000; stroke-width: 2; stroke-linecap: round"/>
    <path d="M 151.763712 171.342445 
L 142.131155 177.01817 
L 143.370109 165.90669 
L 151.763712 171.342445 
z
" clip-path="url(#pd2a329e38f)" style="stroke: #000000; stroke-width: 2; stroke-linecap: round"/>
   </g>
   <g id="patch_5">
    <path d="M 253.250003 163.153907 
Q 299.095636 173.176157 324.009124 136.072036 
" clip-path="url(#pd2a329e38f)" style="fill: none; stroke: #000000; stroke-width: 2; stroke-linecap: round"/>
    <path d="M 314.283603 141.586946 
L 324.009124 136.072036 
L 322.585739 147.161399 
L 314.283603 141.586946 
z
" clip-path="url(#pd2a329e38f)" style="stroke: #000000; stroke-width: 2; stroke-linecap: round"/>
   </g>
   <g id="patch_6">
    <path d="M 244.783259 137.128577 
Q 269.696747 100.024456 315.54238 110.046706 
" clip-path="url(#pd2a329e38f)" style="fill: none; stroke: #000000; stroke-width: 2; stroke-linecap: round"/>
    <path d="M 254.508781 131.613667 
L 244.783259 137.128577 
L 246.206644 126.039214 
L 254.508781 131.613667 
z
" clip-path="url(#pd2a329e38f)" style="stroke: #000000; stroke-width: 2; stroke-linecap: round"/>
   </g>
   <g id="patch_7">
    <path d="M 428.37937 92.638831 
Q 404.373748 130.527605 362.883267 120.792183 
" clip-path="url(#pd2a329e38f)" style="fill: none; stroke: #000000; stroke-width: 2; stroke-linecap: round"/>
    <path d="M 371.476661 127.944355 
L 362.883267 120.792183 
L 373.761041 118.20877 
L 371.476661 127.944355 
z
" clip-path="url(#pd2a329e38f)" style="stroke: #000000; stroke-width: 2; stroke-linecap: round"/>
   </g>
   <g id="patch_8">
    <path d="M 416.052183 67.278728 
Q 374.561701 57.543305 350.556079 95.43208 
" clip-path="url(#pd2a329e38f)" style="fill: none; stroke: #000000; stroke-width: 2; stroke-linecap: round"/>
    <path d="M 407.458788 60.126555 
L 416.052183 67.278728 
L 405.174408 69.86214 
L 407.458788 60.126555 
z
" clip-path="url(#pd2a329e38f)" style="stroke: #000000; stroke-width: 2; stroke-linecap: round"/>
   </g>
   <g id="matplotlib.axis_1"/>
   <g id="matplotlib.axis_2"/>
   <g id="patch_9">
    <path d="M 106.41649 205.81407 
Q 84.672912 213.239821 65.045405 219.942904 
" clip-path="url(#pd2a329e38f)" style="fill: none; stroke: #000000; stroke-width: 2; stroke-linecap: round"/>
    <path d="M 76.124691 221.442706 
L 65.045405 219.942904 
L 72.892818 211.979355 
L 76.124691 221.442706 
z
" clip-path="url(#pd2a329e38f)" style="stroke: #000000; stroke-width: 2; stroke-linecap: round"/>
   </g>
   <g id="patch_10">
    <path d="M 504.476921 45.536776 
Q 484.277664 54.269764 462.025949 63.890117 
" clip-path="url(#pd2a329e38f)" style="fill: none; stroke: #000000; stroke-width: 2; stroke-linecap: round"/>
    <path d="M 493.313842 44.915752 
L 504.476921 45.536776 
L 497.282254 54.094625 
L 493.313842 44.915752 
z
" clip-path="url(#pd2a329e38f)" style="stroke: #000000; stroke-width: 2; stroke-linecap: round"/>
   </g>
   <g id="text_1">
    <g id="patch_11">
     <path d="M 179.501193 205.457556 
L 193.84963 205.457556 
L 193.84963 187.779431 
L 179.501193 187.779431 
z
" style="fill: #ffffff; stroke: #ffffff; stroke-linejoin: miter"/>
    </g>
    <!-- p -->
    <g style="fill: #0000ff" transform="translate(183.501193 199.377868)scale(0.1 -0.1)">
     <defs>
      <path id="DejaVuSans-70" d="M 1159 525 
L 1159 -1331 
L 581 -1331 
L 581 3500 
L 1159 3500 
L 1159 2969 
Q 1341 3281 1617 3432 
Q 1894 3584 2278 3584 
Q 2916 3584 3314 3078 
Q 3713 2572 3713 1747 
Q 3713 922 3314 415 
Q 2916 -91 2278 -91 
Q 1894 -91 1617 61 
Q 1341 213 1159 525 
z
M 3116 1747 
Q 3116 2381 2855 2742 
Q 2594 3103 2138 3103 
Q 1681 3103 1420 2742 
Q 1159 2381 1159 1747 
Q 1159 1113 1420 752 
Q 1681 391 2138 391 
Q 2594 391 2855 752 
Q 3116 1113 3116 1747 
z
" transform="scale(0.015625)"/>
     </defs>
     <use xlink:href="#DejaVuSans-70"/>
    </g>
   </g>
   <g id="text_2">
    <g id="patch_12">
     <path d="M 160.1233 168.759931 
L 184.44205 168.759931 
L 184.44205 151.081806 
L 160.1233 151.081806 
z
" style="fill: #ffffff; stroke: #ffffff; stroke-linejoin: miter"/>
    </g>
    <!-- 1-p -->
    <g style="fill: #0000ff" transform="translate(164.1233 162.680244)scale(0.1 -0.1)">
     <defs>
      <path id="DejaVuSans-31" d="M 794 531 
L 1825 531 
L 1825 4091 
L 703 3866 
L 703 4441 
L 1819 4666 
L 2450 4666 
L 2450 531 
L 3481 531 
L 3481 0 
L 794 0 
L 794 531 
z
" transform="scale(0.015625)"/>
      <path id="DejaVuSans-2d" d="M 313 2009 
L 1997 2009 
L 1997 1497 
L 313 1497 
L 313 2009 
z
" transform="scale(0.015625)"/>
     </defs>
     <use xlink:href="#DejaVuSans-31"/>
     <use xlink:href="#DejaVuSans-2d" x="63.623047"/>
     <use xlink:href="#DejaVuSans-70" x="99.707031"/>
    </g>
   </g>
   <g id="text_3">
    <g id="patch_13">
     <path d="M 520.602001 83.718645 
L 534.964501 83.718645 
L 534.964501 66.04052 
L 520.602001 66.04052 
z
" style="fill: #ffffff; stroke: #ffffff; stroke-linejoin: miter"/>
    </g>
    <!-- 1 -->
    <g style="fill: #0000ff" transform="translate(524.602001 77.638957)scale(0.1 -0.1)">
     <use xlink:href="#DejaVuSans-31"/>
    </g>
   </g>
   <g id="text_4">
    <g id="patch_14">
     <path d="M 33.835499 276.407219 
L 48.197999 276.407219 
L 48.197999 258.729094 
L 33.835499 258.729094 
z
" style="fill: #ffffff; stroke: #ffffff; stroke-linejoin: miter"/>
    </g>
    <!-- 1 -->
    <g style="fill: #0000ff" transform="translate(37.835499 270.327532)scale(0.1 -0.1)">
     <use xlink:href="#DejaVuSans-31"/>
    </g>
   </g>
   <g id="text_5">
    <g id="patch_15">
     <path d="M 284.571695 163.727294 
L 298.920133 163.727294 
L 298.920133 146.049169 
L 284.571695 146.049169 
z
" style="fill: #ffffff; stroke: #ffffff; stroke-linejoin: miter"/>
    </g>
    <!-- p -->
    <g style="fill: #0000ff" transform="translate(288.571695 157.647607)scale(0.1 -0.1)">
     <use xlink:href="#DejaVuSans-70"/>
    </g>
   </g>
   <g id="text_6">
    <g id="patch_16">
     <path d="M 264.887094 127.151444 
L 289.205844 127.151444 
L 289.205844 109.473319 
L 264.887094 109.473319 
z
" style="fill: #ffffff; stroke: #ffffff; stroke-linejoin: miter"/>
    </g>
    <!-- 1-p -->
    <g style="fill: #0000ff" transform="translate(268.887094 121.071756)scale(0.1 -0.1)">
     <use xlink:href="#DejaVuSans-31"/>
     <use xlink:href="#DejaVuSans-2d" x="63.623047"/>
     <use xlink:href="#DejaVuSans-70" x="99.707031"/>
    </g>
   </g>
   <g id="text_7">
    <g id="patch_17">
     <path d="M 384.761362 121.120592 
L 409.080112 121.120592 
L 409.080112 103.442467 
L 384.761362 103.442467 
z
" style="fill: #ffffff; stroke: #ffffff; stroke-linejoin: miter"/>
    </g>
    <!-- 1-p -->
    <g style="fill: #0000ff" transform="translate(388.761362 115.040905)scale(0.1 -0.1)">
     <use xlink:href="#DejaVuSans-31"/>
     <use xlink:href="#DejaVuSans-2d" x="63.623047"/>
     <use xlink:href="#DejaVuSans-70" x="99.707031"/>
    </g>
   </g>
   <g id="text_8">
    <g id="patch_18">
     <path d="M 374.840494 84.628443 
L 389.188932 84.628443 
L 389.188932 66.950318 
L 374.840494 66.950318 
z
" style="fill: #ffffff; stroke: #ffffff; stroke-linejoin: miter"/>
    </g>
    <!-- p -->
    <g style="fill: #0000ff" transform="translate(378.840494 78.548755)scale(0.1 -0.1)">
     <use xlink:href="#DejaVuSans-70"/>
    </g>
   </g>
   <g id="text_9">
    <g id="patch_19">
     <path d="M 72.513537 222.078884 
L 96.832287 222.078884 
L 96.832287 204.400759 
L 72.513537 204.400759 
z
" style="fill: #ffffff; stroke: #ffffff; stroke-linejoin: miter"/>
    </g>
    <!-- 1-p -->
    <g style="fill: #0000ff" transform="translate(76.513537 215.999196)scale(0.1 -0.1)">
     <use xlink:href="#DejaVuSans-31"/>
     <use xlink:href="#DejaVuSans-2d" x="63.623047"/>
     <use xlink:href="#DejaVuSans-70" x="99.707031"/>
    </g>
   </g>
   <g id="text_10">
    <g id="patch_20">
     <path d="M 477.103445 63.108827 
L 491.451883 63.108827 
L 491.451883 45.430702 
L 477.103445 45.430702 
z
" style="fill: #ffffff; stroke: #ffffff; stroke-linejoin: miter"/>
    </g>
    <!-- p -->
    <g style="fill: #0000ff" transform="translate(481.103445 57.029139)scale(0.1 -0.1)">
     <use xlink:href="#DejaVuSans-70"/>
    </g>
   </g>
   <g id="patch_21">
    <path d="M 128.329076 221.48581 
C 134.46991 221.48581 140.360057 219.04603 144.702282 214.703805 
C 149.044507 210.36158 151.484286 204.471433 151.484286 198.330599 
C 151.484286 192.189766 149.044507 186.299618 144.702282 181.957393 
C 140.360057 177.615168 134.46991 175.175389 128.329076 175.175389 
C 122.188242 175.175389 116.298095 177.615168 111.95587 181.957393 
C 107.613645 186.299618 105.173866 192.189766 105.173866 198.330599 
C 105.173866 204.471433 107.613645 210.36158 111.95587 214.703805 
C 116.298095 219.04603 122.188242 221.48581 128.329076 221.48581 
z
" style="fill: #fec7b8; stroke: #000000; stroke-linejoin: miter"/>
   </g>
   <g id="patch_22">
    <path d="M 230.62901 181.363974 
C 236.769844 181.363974 242.659992 178.924195 247.002217 174.58197 
C 251.344442 170.239745 253.784221 164.349597 253.784221 158.208763 
C 253.784221 152.06793 251.344442 146.177782 247.002217 141.835557 
C 242.659992 137.493332 236.769844 135.053553 230.62901 135.053553 
C 224.488177 135.053553 218.598029 137.493332 214.255804 141.835557 
C 209.913579 146.177782 207.4738 152.06793 207.4738 158.208763 
C 207.4738 164.349597 209.913579 170.239745 214.255804 174.58197 
C 218.598029 178.924195 224.488177 181.363974 230.62901 181.363974 
z
" style="fill: #fec7b8; stroke: #000000; stroke-linejoin: miter"/>
   </g>
   <g id="patch_23">
    <path d="M 338.163373 138.14706 
C 344.304206 138.14706 350.194354 135.707281 354.536579 131.365056 
C 358.878804 127.022831 361.318583 121.132683 361.318583 114.99185 
C 361.318583 108.851016 358.878804 102.960868 354.536579 98.618643 
C 350.194354 94.276418 344.304206 91.836639 338.163373 91.836639 
C 332.022539 91.836639 326.132392 94.276418 321.790167 98.618643 
C 317.447942 102.960868 315.008162 108.851016 315.008162 114.99185 
C 315.008162 121.132683 317.447942 127.022831 321.790167 131.365056 
C 326.132392 135.707281 332.022539 138.14706 338.163373 138.14706 
z
" style="fill: #fec7b8; stroke: #000000; stroke-linejoin: miter"/>
   </g>
   <g id="patch_24">
    <path d="M 440.772077 96.234271 
C 446.91291 96.234271 452.803058 93.794492 457.145283 89.452267 
C 461.487508 85.110042 463.927287 79.219894 463.927287 73.079061 
C 463.927287 66.938227 461.487508 61.048079 457.145283 56.705854 
C 452.803058 52.363629 446.91291 49.92385 440.772077 49.92385 
C 434.631243 49.92385 428.741095 52.363629 424.39887 56.705854 
C 420.056645 61.048079 417.616866 66.938227 417.616866 73.079061 
C 417.616866 79.219894 420.056645 85.110042 424.39887 89.452267 
C 428.741095 93.794492 434.631243 96.234271 440.772077 96.234271 
z
" style="fill: #fec7b8; stroke: #000000; stroke-linejoin: miter"/>
   </g>
   <g id="patch_25">
    <path d="M 527.783251 58.615679 
C 533.924085 58.615679 539.814232 56.1759 544.156457 51.833675 
C 548.498682 47.49145 550.938462 41.601302 550.938462 35.460468 
C 550.938462 29.319635 548.498682 23.429487 544.156457 19.087262 
C 539.814232 14.745037 533.924085 12.305258 527.783251 12.305258 
C 521.642418 12.305258 515.75227 14.745037 511.410045 19.087262 
C 507.06782 23.429487 504.628041 29.319635 504.628041 35.460468 
C 504.628041 41.601302 507.06782 47.49145 511.410045 51.833675 
C 515.75227 56.1759 521.642418 58.615679 527.783251 58.615679 
z
" style="fill: #fec7b8; stroke: #000000; stroke-linejoin: miter"/>
   </g>
   <g id="patch_26">
    <path d="M 41.016749 251.304254 
C 47.157582 251.304254 53.04773 248.864474 57.389955 244.522249 
C 61.73218 240.180024 64.171959 234.289877 64.171959 228.149043 
C 64.171959 222.00821 61.73218 216.118062 57.389955 211.775837 
C 53.04773 207.433612 47.157582 204.993833 41.016749 204.993833 
C 34.875915 204.993833 28.985768 207.433612 24.643543 211.775837 
C 20.301318 216.118062 17.861538 222.00821 17.861538 228.149043 
C 17.861538 234.289877 20.301318 240.180024 24.643543 244.522249 
C 28.985768 248.864474 34.875915 251.304254 41.016749 251.304254 
z
" style="fill: #fec7b8; stroke: #000000; stroke-linejoin: miter"/>
   </g>
   <g id="patch_27">
    <path d="M 527.783251 74.879582 
C 533.010287 74.879582 538.02394 72.802859 541.720012 69.106787 
C 545.416085 65.410714 547.492808 60.397061 547.492808 55.170025 
C 547.492808 49.94299 545.416085 44.929336 541.720012 41.233264 
C 538.02394 37.537192 533.010287 35.460468 527.783251 35.460468 
C 522.556216 35.460468 517.542562 37.537192 513.84649 41.233264 
C 510.150418 44.929336 508.073694 49.94299 508.073694 55.170025 
C 508.073694 60.397061 510.150418 65.410714 513.84649 69.106787 
C 517.542562 72.802859 522.556216 74.879582 527.783251 74.879582 
L 527.783251 74.879582 
z
" clip-path="url(#pd2a329e38f)" style="fill: none; stroke: #000000; stroke-linejoin: miter"/>
   </g>
   <g id="patch_28">
    <path d="M 41.016749 267.568157 
C 46.243784 267.568157 51.257438 265.491434 54.95351 261.795361 
C 58.649582 258.099289 60.726306 253.085636 60.726306 247.8586 
C 60.726306 242.631564 58.649582 237.617911 54.95351 233.921839 
C 51.257438 230.225766 46.243784 228.149043 41.016749 228.149043 
C 35.789713 228.149043 30.77606 230.225766 27.079988 233.921839 
C 23.383915 237.617911 21.307192 242.631564 21.307192 247.8586 
C 21.307192 253.085636 23.383915 258.099289 27.079988 261.795361 
C 30.77606 265.491434 35.789713 267.568157 41.016749 267.568157 
L 41.016749 267.568157 
z
" clip-path="url(#pd2a329e38f)" style="fill: none; stroke: #000000; stroke-linejoin: miter"/>
   </g>
   <g id="text_11">
    <!-- a+1 -->
    <g transform="translate(117.89392 201.089974)scale(0.1 -0.1)">
     <defs>
      <path id="DejaVuSans-61" d="M 2194 1759 
Q 1497 1759 1228 1600 
Q 959 1441 959 1056 
Q 959 750 1161 570 
Q 1363 391 1709 391 
Q 2188 391 2477 730 
Q 2766 1069 2766 1631 
L 2766 1759 
L 2194 1759 
z
M 3341 1997 
L 3341 0 
L 2766 0 
L 2766 531 
Q 2569 213 2275 61 
Q 1981 -91 1556 -91 
Q 1019 -91 701 211 
Q 384 513 384 1019 
Q 384 1609 779 1909 
Q 1175 2209 1959 2209 
L 2766 2209 
L 2766 2266 
Q 2766 2663 2505 2880 
Q 2244 3097 1772 3097 
Q 1472 3097 1187 3025 
Q 903 2953 641 2809 
L 641 3341 
Q 956 3463 1253 3523 
Q 1550 3584 1831 3584 
Q 2591 3584 2966 3190 
Q 3341 2797 3341 1997 
z
" transform="scale(0.015625)"/>
      <path id="DejaVuSans-2b" d="M 2944 4013 
L 2944 2272 
L 4684 2272 
L 4684 1741 
L 2944 1741 
L 2944 0 
L 2419 0 
L 2419 1741 
L 678 1741 
L 678 2272 
L 2419 2272 
L 2419 4013 
L 2944 4013 
z
" transform="scale(0.015625)"/>
     </defs>
     <use xlink:href="#DejaVuSans-61"/>
     <use xlink:href="#DejaVuSans-2b" x="61.279297"/>
     <use xlink:href="#DejaVuSans-31" x="145.068359"/>
    </g>
   </g>
   <g id="text_12">
    <!-- b -->
    <g transform="translate(524.609032 38.219843)scale(0.1 -0.1)">
     <defs>
      <path id="DejaVuSans-62" d="M 3116 1747 
Q 3116 2381 2855 2742 
Q 2594 3103 2138 3103 
Q 1681 3103 1420 2742 
Q 1159 2381 1159 1747 
Q 1159 1113 1420 752 
Q 1681 391 2138 391 
Q 2594 391 2855 752 
Q 3116 1113 3116 1747 
z
M 1159 2969 
Q 1341 3281 1617 3432 
Q 1894 3584 2278 3584 
Q 2916 3584 3314 3078 
Q 3713 2572 3713 1747 
Q 3713 922 3314 415 
Q 2916 -91 2278 -91 
Q 1894 -91 1617 61 
Q 1341 213 1159 525 
L 1159 0 
L 581 0 
L 581 4863 
L 1159 4863 
L 1159 2969 
z
" transform="scale(0.015625)"/>
     </defs>
     <use xlink:href="#DejaVuSans-62"/>
    </g>
   </g>
   <g id="text_13">
    <!-- a -->
    <g transform="translate(37.952686 230.908418)scale(0.1 -0.1)">
     <use xlink:href="#DejaVuSans-61"/>
    </g>
   </g>
   <g id="text_14">
    <!-- a+2 -->
    <g transform="translate(220.193854 160.968138)scale(0.1 -0.1)">
     <defs>
      <path id="DejaVuSans-32" d="M 1228 531 
L 3431 531 
L 3431 0 
L 469 0 
L 469 531 
Q 828 903 1448 1529 
Q 2069 2156 2228 2338 
Q 2531 2678 2651 2914 
Q 2772 3150 2772 3378 
Q 2772 3750 2511 3984 
Q 2250 4219 1831 4219 
Q 1534 4219 1204 4116 
Q 875 4013 500 3803 
L 500 4441 
Q 881 4594 1212 4672 
Q 1544 4750 1819 4750 
Q 2544 4750 2975 4387 
Q 3406 4025 3406 3419 
Q 3406 3131 3298 2873 
Q 3191 2616 2906 2266 
Q 2828 2175 2409 1742 
Q 1991 1309 1228 531 
z
" transform="scale(0.015625)"/>
     </defs>
     <use xlink:href="#DejaVuSans-61"/>
     <use xlink:href="#DejaVuSans-2b" x="61.279297"/>
     <use xlink:href="#DejaVuSans-32" x="145.068359"/>
    </g>
   </g>
   <g id="text_15">
    <!-- b-1 -->
    <g transform="translate(432.612702 75.838436)scale(0.1 -0.1)">
     <use xlink:href="#DejaVuSans-62"/>
     <use xlink:href="#DejaVuSans-2d" x="63.476562"/>
     <use xlink:href="#DejaVuSans-31" x="99.560547"/>
    </g>
   </g>
   <g id="text_16">
    <!-- ... -->
    <g transform="translate(333.396185 117.751225)scale(0.1 -0.1)">
     <defs>
      <path id="DejaVuSans-2e" d="M 684 794 
L 1344 794 
L 1344 0 
L 684 0 
L 684 794 
z
" transform="scale(0.015625)"/>
     </defs>
     <use xlink:href="#DejaVuSans-2e"/>
     <use xlink:href="#DejaVuSans-2e" x="31.787109"/>
     <use xlink:href="#DejaVuSans-2e" x="63.574219"/>
    </g>
   </g>
  </g>
 </g>
 <defs>
  <clipPath id="pd2a329e38f">
   <rect x="7.2" y="7.2" width="554.4" height="265.473415"/>
  </clipPath>
 </defs>
</svg>
