<?xml version="1.0" encoding="utf-8" standalone="no"?>
<!DOCTYPE svg PUBLIC "-//W3C//DTD SVG 1.1//EN"
  "http://www.w3.org/Graphics/SVG/1.1/DTD/svg11.dtd">
<!-- Created with matplotlib (http://matplotlib.org/) -->
<svg height="338.978125pt" version="1.1" viewBox="0 0 455.56 338.978125" width="455.56pt" xmlns="http://www.w3.org/2000/svg" xmlns:xlink="http://www.w3.org/1999/xlink">
 <defs>
  <style type="text/css">
*{stroke-linecap:butt;stroke-linejoin:round;}
  </style>
 </defs>
 <g id="figure_1">
  <g id="patch_1">
   <path d="M 0 338.978125 
L 455.56 338.978125 
L 455.56 0 
L 0 0 
z
" style="fill:#ffffff;"/>
  </g>
  <g id="axes_1">
   <g id="patch_2">
    <path d="M 10.7 305.1 
L 444.86 305.1 
L 444.86 10.7 
L 10.7 10.7 
z
" style="fill:#ffffff;"/>
   </g>
   <g id="matplotlib.axis_1">
    <g id="xtick_1">
     <g id="line2d_1">
      <defs>
       <path d="M 0 0 
L 0 3.5 
" id="m7303ee38bf" style="stroke:#000000;stroke-width:0.8;"/>
      </defs>
      <g>
       <use style="stroke:#000000;stroke-width:0.8;" x="19.049231" xlink:href="#m7303ee38bf" y="315.1"/>
      </g>
     </g>
     <g id="text_1">
      <!-- -3 -->
      <defs>
       <path d="M 4.890625 31.390625 
L 31.203125 31.390625 
L 31.203125 23.390625 
L 4.890625 23.390625 
z
" id="DejaVuSans-2d"/>
       <path d="M 40.578125 39.3125 
Q 47.65625 37.796875 51.625 33 
Q 55.609375 28.21875 55.609375 21.1875 
Q 55.609375 10.40625 48.1875 4.484375 
Q 40.765625 -1.421875 27.09375 -1.421875 
Q 22.515625 -1.421875 17.65625 -0.515625 
Q 12.796875 0.390625 7.625 2.203125 
L 7.625 11.71875 
Q 11.71875 9.328125 16.59375 8.109375 
Q 21.484375 6.890625 26.8125 6.890625 
Q 36.078125 6.890625 40.9375 10.546875 
Q 45.796875 14.203125 45.796875 21.1875 
Q 45.796875 27.640625 41.28125 31.265625 
Q 36.765625 34.90625 28.71875 34.90625 
L 20.21875 34.90625 
L 20.21875 43.015625 
L 29.109375 43.015625 
Q 36.375 43.015625 40.234375 45.921875 
Q 44.09375 48.828125 44.09375 54.296875 
Q 44.09375 59.90625 40.109375 62.90625 
Q 36.140625 65.921875 28.71875 65.921875 
Q 24.65625 65.921875 20.015625 65.03125 
Q 15.375 64.15625 9.8125 62.3125 
L 9.8125 71.09375 
Q 15.4375 72.65625 20.34375 73.4375 
Q 25.25 74.21875 29.59375 74.21875 
Q 40.828125 74.21875 47.359375 69.109375 
Q 53.90625 64.015625 53.90625 55.328125 
Q 53.90625 49.265625 50.4375 45.09375 
Q 46.96875 40.921875 40.578125 39.3125 
z
" id="DejaVuSans-33"/>
      </defs>
      <g transform="translate(14.064075 329.698437)scale(0.1 -0.1)">
       <use xlink:href="#DejaVuSans-2d"/>
       <use x="36.083984" xlink:href="#DejaVuSans-33"/>
      </g>
     </g>
    </g>
    <g id="xtick_2">
     <g id="line2d_2">
      <g>
       <use style="stroke:#000000;stroke-width:0.8;" x="88.626154" xlink:href="#m7303ee38bf" y="315.1"/>
      </g>
     </g>
     <g id="text_2">
      <!-- -2 -->
      <defs>
       <path d="M 19.1875 8.296875 
L 53.609375 8.296875 
L 53.609375 0 
L 7.328125 0 
L 7.328125 8.296875 
Q 12.9375 14.109375 22.625 23.890625 
Q 32.328125 33.6875 34.8125 36.53125 
Q 39.546875 41.84375 41.421875 45.53125 
Q 43.3125 49.21875 43.3125 52.78125 
Q 43.3125 58.59375 39.234375 62.25 
Q 35.15625 65.921875 28.609375 65.921875 
Q 23.96875 65.921875 18.8125 64.3125 
Q 13.671875 62.703125 7.8125 59.421875 
L 7.8125 69.390625 
Q 13.765625 71.78125 18.9375 73 
Q 24.125 74.21875 28.421875 74.21875 
Q 39.75 74.21875 46.484375 68.546875 
Q 53.21875 62.890625 53.21875 53.421875 
Q 53.21875 48.921875 51.53125 44.890625 
Q 49.859375 40.875 45.40625 35.40625 
Q 44.1875 33.984375 37.640625 27.21875 
Q 31.109375 20.453125 19.1875 8.296875 
z
" id="DejaVuSans-32"/>
      </defs>
      <g transform="translate(83.640998 329.698437)scale(0.1 -0.1)">
       <use xlink:href="#DejaVuSans-2d"/>
       <use x="36.083984" xlink:href="#DejaVuSans-32"/>
      </g>
     </g>
    </g>
    <g id="xtick_3">
     <g id="line2d_3">
      <g>
       <use style="stroke:#000000;stroke-width:0.8;" x="158.203077" xlink:href="#m7303ee38bf" y="315.1"/>
      </g>
     </g>
     <g id="text_3">
      <!-- -1 -->
      <defs>
       <path d="M 12.40625 8.296875 
L 28.515625 8.296875 
L 28.515625 63.921875 
L 10.984375 60.40625 
L 10.984375 69.390625 
L 28.421875 72.90625 
L 38.28125 72.90625 
L 38.28125 8.296875 
L 54.390625 8.296875 
L 54.390625 0 
L 12.40625 0 
z
" id="DejaVuSans-31"/>
      </defs>
      <g transform="translate(153.217921 329.698437)scale(0.1 -0.1)">
       <use xlink:href="#DejaVuSans-2d"/>
       <use x="36.083984" xlink:href="#DejaVuSans-31"/>
      </g>
     </g>
    </g>
    <g id="xtick_4">
     <g id="line2d_4">
      <g>
       <use style="stroke:#000000;stroke-width:0.8;" x="227.78" xlink:href="#m7303ee38bf" y="315.1"/>
      </g>
     </g>
     <g id="text_4">
      <!-- 0 -->
      <defs>
       <path d="M 31.78125 66.40625 
Q 24.171875 66.40625 20.328125 58.90625 
Q 16.5 51.421875 16.5 36.375 
Q 16.5 21.390625 20.328125 13.890625 
Q 24.171875 6.390625 31.78125 6.390625 
Q 39.453125 6.390625 43.28125 13.890625 
Q 47.125 21.390625 47.125 36.375 
Q 47.125 51.421875 43.28125 58.90625 
Q 39.453125 66.40625 31.78125 66.40625 
z
M 31.78125 74.21875 
Q 44.046875 74.21875 50.515625 64.515625 
Q 56.984375 54.828125 56.984375 36.375 
Q 56.984375 17.96875 50.515625 8.265625 
Q 44.046875 -1.421875 31.78125 -1.421875 
Q 19.53125 -1.421875 13.0625 8.265625 
Q 6.59375 17.96875 6.59375 36.375 
Q 6.59375 54.828125 13.0625 64.515625 
Q 19.53125 74.21875 31.78125 74.21875 
z
" id="DejaVuSans-30"/>
      </defs>
      <g transform="translate(224.59875 329.698437)scale(0.1 -0.1)">
       <use xlink:href="#DejaVuSans-30"/>
      </g>
     </g>
    </g>
    <g id="xtick_5">
     <g id="line2d_5">
      <g>
       <use style="stroke:#000000;stroke-width:0.8;" x="297.356923" xlink:href="#m7303ee38bf" y="315.1"/>
      </g>
     </g>
     <g id="text_5">
      <!-- 1 -->
      <g transform="translate(294.175673 329.698437)scale(0.1 -0.1)">
       <use xlink:href="#DejaVuSans-31"/>
      </g>
     </g>
    </g>
    <g id="xtick_6">
     <g id="line2d_6">
      <g>
       <use style="stroke:#000000;stroke-width:0.8;" x="366.933846" xlink:href="#m7303ee38bf" y="315.1"/>
      </g>
     </g>
     <g id="text_6">
      <!-- 2 -->
      <g transform="translate(363.752596 329.698437)scale(0.1 -0.1)">
       <use xlink:href="#DejaVuSans-32"/>
      </g>
     </g>
    </g>
    <g id="xtick_7">
     <g id="line2d_7">
      <g>
       <use style="stroke:#000000;stroke-width:0.8;" x="436.510769" xlink:href="#m7303ee38bf" y="315.1"/>
      </g>
     </g>
     <g id="text_7">
      <!-- 3 -->
      <g transform="translate(433.329519 329.698437)scale(0.1 -0.1)">
       <use xlink:href="#DejaVuSans-33"/>
      </g>
     </g>
    </g>
    <g id="xtick_8">
     <g id="line2d_8">
      <defs>
       <path d="M 0 0 
L 0 2 
" id="m85f96e43a1" style="stroke:#000000;stroke-width:0.6;"/>
      </defs>
      <g>
       <use style="stroke:#000000;stroke-width:0.6;" x="32.964615" xlink:href="#m85f96e43a1" y="315.1"/>
      </g>
     </g>
    </g>
    <g id="xtick_9">
     <g id="line2d_9">
      <g>
       <use style="stroke:#000000;stroke-width:0.6;" x="46.88" xlink:href="#m85f96e43a1" y="315.1"/>
      </g>
     </g>
    </g>
    <g id="xtick_10">
     <g id="line2d_10">
      <g>
       <use style="stroke:#000000;stroke-width:0.6;" x="60.795385" xlink:href="#m85f96e43a1" y="315.1"/>
      </g>
     </g>
    </g>
    <g id="xtick_11">
     <g id="line2d_11">
      <g>
       <use style="stroke:#000000;stroke-width:0.6;" x="74.710769" xlink:href="#m85f96e43a1" y="315.1"/>
      </g>
     </g>
    </g>
    <g id="xtick_12">
     <g id="line2d_12">
      <g>
       <use style="stroke:#000000;stroke-width:0.6;" x="102.541538" xlink:href="#m85f96e43a1" y="315.1"/>
      </g>
     </g>
    </g>
    <g id="xtick_13">
     <g id="line2d_13">
      <g>
       <use style="stroke:#000000;stroke-width:0.6;" x="116.456923" xlink:href="#m85f96e43a1" y="315.1"/>
      </g>
     </g>
    </g>
    <g id="xtick_14">
     <g id="line2d_14">
      <g>
       <use style="stroke:#000000;stroke-width:0.6;" x="130.372308" xlink:href="#m85f96e43a1" y="315.1"/>
      </g>
     </g>
    </g>
    <g id="xtick_15">
     <g id="line2d_15">
      <g>
       <use style="stroke:#000000;stroke-width:0.6;" x="144.287692" xlink:href="#m85f96e43a1" y="315.1"/>
      </g>
     </g>
    </g>
    <g id="xtick_16">
     <g id="line2d_16">
      <g>
       <use style="stroke:#000000;stroke-width:0.6;" x="172.118462" xlink:href="#m85f96e43a1" y="315.1"/>
      </g>
     </g>
    </g>
    <g id="xtick_17">
     <g id="line2d_17">
      <g>
       <use style="stroke:#000000;stroke-width:0.6;" x="186.033846" xlink:href="#m85f96e43a1" y="315.1"/>
      </g>
     </g>
    </g>
    <g id="xtick_18">
     <g id="line2d_18">
      <g>
       <use style="stroke:#000000;stroke-width:0.6;" x="199.949231" xlink:href="#m85f96e43a1" y="315.1"/>
      </g>
     </g>
    </g>
    <g id="xtick_19">
     <g id="line2d_19">
      <g>
       <use style="stroke:#000000;stroke-width:0.6;" x="213.864615" xlink:href="#m85f96e43a1" y="315.1"/>
      </g>
     </g>
    </g>
    <g id="xtick_20">
     <g id="line2d_20">
      <g>
       <use style="stroke:#000000;stroke-width:0.6;" x="241.695385" xlink:href="#m85f96e43a1" y="315.1"/>
      </g>
     </g>
    </g>
    <g id="xtick_21">
     <g id="line2d_21">
      <g>
       <use style="stroke:#000000;stroke-width:0.6;" x="255.610769" xlink:href="#m85f96e43a1" y="315.1"/>
      </g>
     </g>
    </g>
    <g id="xtick_22">
     <g id="line2d_22">
      <g>
       <use style="stroke:#000000;stroke-width:0.6;" x="269.526154" xlink:href="#m85f96e43a1" y="315.1"/>
      </g>
     </g>
    </g>
    <g id="xtick_23">
     <g id="line2d_23">
      <g>
       <use style="stroke:#000000;stroke-width:0.6;" x="283.441538" xlink:href="#m85f96e43a1" y="315.1"/>
      </g>
     </g>
    </g>
    <g id="xtick_24">
     <g id="line2d_24">
      <g>
       <use style="stroke:#000000;stroke-width:0.6;" x="311.272308" xlink:href="#m85f96e43a1" y="315.1"/>
      </g>
     </g>
    </g>
    <g id="xtick_25">
     <g id="line2d_25">
      <g>
       <use style="stroke:#000000;stroke-width:0.6;" x="325.187692" xlink:href="#m85f96e43a1" y="315.1"/>
      </g>
     </g>
    </g>
    <g id="xtick_26">
     <g id="line2d_26">
      <g>
       <use style="stroke:#000000;stroke-width:0.6;" x="339.103077" xlink:href="#m85f96e43a1" y="315.1"/>
      </g>
     </g>
    </g>
    <g id="xtick_27">
     <g id="line2d_27">
      <g>
       <use style="stroke:#000000;stroke-width:0.6;" x="353.018462" xlink:href="#m85f96e43a1" y="315.1"/>
      </g>
     </g>
    </g>
    <g id="xtick_28">
     <g id="line2d_28">
      <g>
       <use style="stroke:#000000;stroke-width:0.6;" x="380.849231" xlink:href="#m85f96e43a1" y="315.1"/>
      </g>
     </g>
    </g>
    <g id="xtick_29">
     <g id="line2d_29">
      <g>
       <use style="stroke:#000000;stroke-width:0.6;" x="394.764615" xlink:href="#m85f96e43a1" y="315.1"/>
      </g>
     </g>
    </g>
    <g id="xtick_30">
     <g id="line2d_30">
      <g>
       <use style="stroke:#000000;stroke-width:0.6;" x="408.68" xlink:href="#m85f96e43a1" y="315.1"/>
      </g>
     </g>
    </g>
    <g id="xtick_31">
     <g id="line2d_31">
      <g>
       <use style="stroke:#000000;stroke-width:0.6;" x="422.595385" xlink:href="#m85f96e43a1" y="315.1"/>
      </g>
     </g>
    </g>
   </g>
   <g id="matplotlib.axis_2">
    <g id="ytick_1">
     <g id="line2d_32">
      <defs>
       <path d="M 0 0 
L -3.5 0 
" id="me9234e7ea0" style="stroke:#000000;stroke-width:0.8;"/>
      </defs>
      <g>
       <use style="stroke:#000000;stroke-width:0.8;" x="227.78" xlink:href="#me9234e7ea0" y="271.130769"/>
      </g>
     </g>
     <g id="text_8">
      <!-- 0.5 -->
      <defs>
       <path d="M 10.6875 12.40625 
L 21 12.40625 
L 21 0 
L 10.6875 0 
z
" id="DejaVuSans-2e"/>
       <path d="M 10.796875 72.90625 
L 49.515625 72.90625 
L 49.515625 64.59375 
L 19.828125 64.59375 
L 19.828125 46.734375 
Q 21.96875 47.46875 24.109375 47.828125 
Q 26.265625 48.1875 28.421875 48.1875 
Q 40.625 48.1875 47.75 41.5 
Q 54.890625 34.8125 54.890625 23.390625 
Q 54.890625 11.625 47.5625 5.09375 
Q 40.234375 -1.421875 26.90625 -1.421875 
Q 22.3125 -1.421875 17.546875 -0.640625 
Q 12.796875 0.140625 7.71875 1.703125 
L 7.71875 11.625 
Q 12.109375 9.234375 16.796875 8.0625 
Q 21.484375 6.890625 26.703125 6.890625 
Q 35.15625 6.890625 40.078125 11.328125 
Q 45.015625 15.765625 45.015625 23.390625 
Q 45.015625 31 40.078125 35.4375 
Q 35.15625 39.890625 26.703125 39.890625 
Q 22.75 39.890625 18.8125 39.015625 
Q 14.890625 38.140625 10.796875 36.28125 
z
" id="DejaVuSans-35"/>
      </defs>
      <g transform="translate(204.876875 274.929988)scale(0.1 -0.1)">
       <use xlink:href="#DejaVuSans-30"/>
       <use x="63.623047" xlink:href="#DejaVuSans-2e"/>
       <use x="95.410156" xlink:href="#DejaVuSans-35"/>
      </g>
     </g>
    </g>
    <g id="ytick_2">
     <g id="line2d_33">
      <g>
       <use style="stroke:#000000;stroke-width:0.8;" x="227.78" xlink:href="#me9234e7ea0" y="228.669231"/>
      </g>
     </g>
     <g id="text_9">
      <!-- 1 -->
      <g transform="translate(214.4175 232.46845)scale(0.1 -0.1)">
       <use xlink:href="#DejaVuSans-31"/>
      </g>
     </g>
    </g>
    <g id="ytick_3">
     <g id="line2d_34">
      <g>
       <use style="stroke:#000000;stroke-width:0.8;" x="227.78" xlink:href="#me9234e7ea0" y="186.207692"/>
      </g>
     </g>
     <g id="text_10">
      <!-- 1.5 -->
      <g transform="translate(204.876875 190.006911)scale(0.1 -0.1)">
       <use xlink:href="#DejaVuSans-31"/>
       <use x="63.623047" xlink:href="#DejaVuSans-2e"/>
       <use x="95.410156" xlink:href="#DejaVuSans-35"/>
      </g>
     </g>
    </g>
    <g id="ytick_4">
     <g id="line2d_35">
      <g>
       <use style="stroke:#000000;stroke-width:0.8;" x="227.78" xlink:href="#me9234e7ea0" y="143.746154"/>
      </g>
     </g>
     <g id="text_11">
      <!-- 2 -->
      <g transform="translate(214.4175 147.545373)scale(0.1 -0.1)">
       <use xlink:href="#DejaVuSans-32"/>
      </g>
     </g>
    </g>
    <g id="ytick_5">
     <g id="line2d_36">
      <g>
       <use style="stroke:#000000;stroke-width:0.8;" x="227.78" xlink:href="#me9234e7ea0" y="101.284615"/>
      </g>
     </g>
     <g id="text_12">
      <!-- 2.5 -->
      <g transform="translate(204.876875 105.083834)scale(0.1 -0.1)">
       <use xlink:href="#DejaVuSans-32"/>
       <use x="63.623047" xlink:href="#DejaVuSans-2e"/>
       <use x="95.410156" xlink:href="#DejaVuSans-35"/>
      </g>
     </g>
    </g>
    <g id="ytick_6">
     <g id="line2d_37">
      <g>
       <use style="stroke:#000000;stroke-width:0.8;" x="227.78" xlink:href="#me9234e7ea0" y="58.823077"/>
      </g>
     </g>
     <g id="text_13">
      <!-- 3 -->
      <g transform="translate(214.4175 62.622296)scale(0.1 -0.1)">
       <use xlink:href="#DejaVuSans-33"/>
      </g>
     </g>
    </g>
    <g id="ytick_7">
     <g id="line2d_38">
      <g>
       <use style="stroke:#000000;stroke-width:0.8;" x="227.78" xlink:href="#me9234e7ea0" y="16.361538"/>
      </g>
     </g>
     <g id="text_14">
      <!-- 3.5 -->
      <g transform="translate(204.876875 20.160757)scale(0.1 -0.1)">
       <use xlink:href="#DejaVuSans-33"/>
       <use x="63.623047" xlink:href="#DejaVuSans-2e"/>
       <use x="95.410156" xlink:href="#DejaVuSans-35"/>
      </g>
     </g>
    </g>
    <g id="ytick_8">
     <g id="line2d_39">
      <defs>
       <path d="M 0 0 
L -2 0 
" id="mcf4ff4932b" style="stroke:#000000;stroke-width:0.6;"/>
      </defs>
      <g>
       <use style="stroke:#000000;stroke-width:0.6;" x="227.78" xlink:href="#mcf4ff4932b" y="296.607692"/>
      </g>
     </g>
    </g>
    <g id="ytick_9">
     <g id="line2d_40">
      <g>
       <use style="stroke:#000000;stroke-width:0.6;" x="227.78" xlink:href="#mcf4ff4932b" y="288.115385"/>
      </g>
     </g>
    </g>
    <g id="ytick_10">
     <g id="line2d_41">
      <g>
       <use style="stroke:#000000;stroke-width:0.6;" x="227.78" xlink:href="#mcf4ff4932b" y="279.623077"/>
      </g>
     </g>
    </g>
    <g id="ytick_11">
     <g id="line2d_42">
      <g>
       <use style="stroke:#000000;stroke-width:0.6;" x="227.78" xlink:href="#mcf4ff4932b" y="262.638462"/>
      </g>
     </g>
    </g>
    <g id="ytick_12">
     <g id="line2d_43">
      <g>
       <use style="stroke:#000000;stroke-width:0.6;" x="227.78" xlink:href="#mcf4ff4932b" y="254.146154"/>
      </g>
     </g>
    </g>
    <g id="ytick_13">
     <g id="line2d_44">
      <g>
       <use style="stroke:#000000;stroke-width:0.6;" x="227.78" xlink:href="#mcf4ff4932b" y="245.653846"/>
      </g>
     </g>
    </g>
    <g id="ytick_14">
     <g id="line2d_45">
      <g>
       <use style="stroke:#000000;stroke-width:0.6;" x="227.78" xlink:href="#mcf4ff4932b" y="237.161538"/>
      </g>
     </g>
    </g>
    <g id="ytick_15">
     <g id="line2d_46">
      <g>
       <use style="stroke:#000000;stroke-width:0.6;" x="227.78" xlink:href="#mcf4ff4932b" y="220.176923"/>
      </g>
     </g>
    </g>
    <g id="ytick_16">
     <g id="line2d_47">
      <g>
       <use style="stroke:#000000;stroke-width:0.6;" x="227.78" xlink:href="#mcf4ff4932b" y="211.684615"/>
      </g>
     </g>
    </g>
    <g id="ytick_17">
     <g id="line2d_48">
      <g>
       <use style="stroke:#000000;stroke-width:0.6;" x="227.78" xlink:href="#mcf4ff4932b" y="203.192308"/>
      </g>
     </g>
    </g>
    <g id="ytick_18">
     <g id="line2d_49">
      <g>
       <use style="stroke:#000000;stroke-width:0.6;" x="227.78" xlink:href="#mcf4ff4932b" y="194.7"/>
      </g>
     </g>
    </g>
    <g id="ytick_19">
     <g id="line2d_50">
      <g>
       <use style="stroke:#000000;stroke-width:0.6;" x="227.78" xlink:href="#mcf4ff4932b" y="177.715385"/>
      </g>
     </g>
    </g>
    <g id="ytick_20">
     <g id="line2d_51">
      <g>
       <use style="stroke:#000000;stroke-width:0.6;" x="227.78" xlink:href="#mcf4ff4932b" y="169.223077"/>
      </g>
     </g>
    </g>
    <g id="ytick_21">
     <g id="line2d_52">
      <g>
       <use style="stroke:#000000;stroke-width:0.6;" x="227.78" xlink:href="#mcf4ff4932b" y="160.730769"/>
      </g>
     </g>
    </g>
    <g id="ytick_22">
     <g id="line2d_53">
      <g>
       <use style="stroke:#000000;stroke-width:0.6;" x="227.78" xlink:href="#mcf4ff4932b" y="152.238462"/>
      </g>
     </g>
    </g>
    <g id="ytick_23">
     <g id="line2d_54">
      <g>
       <use style="stroke:#000000;stroke-width:0.6;" x="227.78" xlink:href="#mcf4ff4932b" y="135.253846"/>
      </g>
     </g>
    </g>
    <g id="ytick_24">
     <g id="line2d_55">
      <g>
       <use style="stroke:#000000;stroke-width:0.6;" x="227.78" xlink:href="#mcf4ff4932b" y="126.761538"/>
      </g>
     </g>
    </g>
    <g id="ytick_25">
     <g id="line2d_56">
      <g>
       <use style="stroke:#000000;stroke-width:0.6;" x="227.78" xlink:href="#mcf4ff4932b" y="118.269231"/>
      </g>
     </g>
    </g>
    <g id="ytick_26">
     <g id="line2d_57">
      <g>
       <use style="stroke:#000000;stroke-width:0.6;" x="227.78" xlink:href="#mcf4ff4932b" y="109.776923"/>
      </g>
     </g>
    </g>
    <g id="ytick_27">
     <g id="line2d_58">
      <g>
       <use style="stroke:#000000;stroke-width:0.6;" x="227.78" xlink:href="#mcf4ff4932b" y="92.792308"/>
      </g>
     </g>
    </g>
    <g id="ytick_28">
     <g id="line2d_59">
      <g>
       <use style="stroke:#000000;stroke-width:0.6;" x="227.78" xlink:href="#mcf4ff4932b" y="84.3"/>
      </g>
     </g>
    </g>
    <g id="ytick_29">
     <g id="line2d_60">
      <g>
       <use style="stroke:#000000;stroke-width:0.6;" x="227.78" xlink:href="#mcf4ff4932b" y="75.807692"/>
      </g>
     </g>
    </g>
    <g id="ytick_30">
     <g id="line2d_61">
      <g>
       <use style="stroke:#000000;stroke-width:0.6;" x="227.78" xlink:href="#mcf4ff4932b" y="67.315385"/>
      </g>
     </g>
    </g>
    <g id="ytick_31">
     <g id="line2d_62">
      <g>
       <use style="stroke:#000000;stroke-width:0.6;" x="227.78" xlink:href="#mcf4ff4932b" y="50.330769"/>
      </g>
     </g>
    </g>
    <g id="ytick_32">
     <g id="line2d_63">
      <g>
       <use style="stroke:#000000;stroke-width:0.6;" x="227.78" xlink:href="#mcf4ff4932b" y="41.838462"/>
      </g>
     </g>
    </g>
    <g id="ytick_33">
     <g id="line2d_64">
      <g>
       <use style="stroke:#000000;stroke-width:0.6;" x="227.78" xlink:href="#mcf4ff4932b" y="33.346154"/>
      </g>
     </g>
    </g>
    <g id="ytick_34">
     <g id="line2d_65">
      <g>
       <use style="stroke:#000000;stroke-width:0.6;" x="227.78" xlink:href="#mcf4ff4932b" y="24.853846"/>
      </g>
     </g>
    </g>
   </g>
   <g id="line2d_66">
    <path clip-path="url(#pb6276a02cd)" d="M 19.049231 16.361538 
L 20.82207 17.44347 
L 23.708231 19.204842 
L 24.895599 19.929471 
L 28.000411 21.824282 
L 30.159852 23.14215 
L 31.648643 24.050732 
L 33.96472 25.464192 
L 36.008199 26.71129 
L 38.894128 28.472521 
L 40.384358 29.381981 
L 41.448944 30.031679 
L 45.169059 32.301997 
L 45.761168 32.663351 
L 47.814934 33.916727 
L 49.492567 34.940556 
L 53.248668 37.232837 
L 54.550413 38.027268 
L 57.260663 39.681285 
L 58.233459 40.274965 
L 61.396722 42.205447 
L 62.820252 43.074202 
L 64.277446 43.963501 
L 66.920154 45.576298 
L 69.681253 47.261347 
L 71.153165 48.159628 
L 73.64747 49.681857 
L 75.998695 51.116767 
L 77.413849 51.98041 
L 80.090347 53.613828 
L 81.230833 54.309846 
L 84.247815 56.151056 
L 85.150705 56.702073 
L 87.859496 58.3552 
L 90.596186 60.025352 
L 92.344918 61.092572 
L 95.404634 62.959861 
L 97.684324 64.351114 
L 97.848033 64.451023 
L 101.083921 66.425827 
L 102.278277 67.154721 
L 104.080288 68.254456 
L 107.003579 70.038487 
L 108.638417 71.0362 
L 111.4191 72.7332 
L 113.120953 73.77181 
L 116.547713 75.8631 
L 117.027006 76.155604 
L 119.414717 77.61278 
L 120.939972 78.543616 
L 123.59752 80.16547 
L 126.805171 82.123041 
L 127.097546 82.301472 
L 130.578871 84.426062 
L 132.718255 85.731689 
L 134.895816 87.060615 
L 137.12324 88.419972 
L 138.130628 89.034763 
L 141.19484 90.904796 
L 142.388548 91.633294 
L 144.668924 93.024966 
L 148.025539 95.073448 
L 150.00426 96.281026 
L 151.357153 97.106672 
L 153.411997 98.360706 
L 156.446571 100.212652 
L 158.11648 101.231767 
L 159.178306 101.87978 
L 162.539329 103.930951 
L 164.700898 105.250118 
L 165.565794 105.777948 
L 167.666065 107.059706 
L 169.822631 108.375819 
L 171.419908 109.350609 
L 175.12689 111.612912 
L 175.460453 111.81648 
" style="fill:none;stroke:#0000ff;stroke-linecap:square;"/>
   </g>
   <g id="line2d_67">
    <path clip-path="url(#pb6276a02cd)" d="M 182.656946 116.208369 
L 185.453327 117.914951 
L 186.859399 118.773051 
L 189.121964 120.153853 
L 191.937172 121.871924 
L 193.989837 123.124628 
L 195.335324 123.945754 
L 197.220989 125.096542 
L 199.428853 126.443961 
L 202.130208 128.092549 
L 204.040071 129.258104 
L 206.51357 130.767636 
L 207.277767 131.234011 
L 209.872533 132.81755 
L 211.769306 133.975117 
L 215.093713 136.003942 
L 215.48447 136.242414 
L 218.651477 138.175181 
L 221.111382 139.676417 
L 222.450978 140.493948 
L 223.853358 141.349795 
L 227.187029 143.384274 
L 229.273953 144.657886 
L 231.695397 146.13565 
L 232.085465 146.373701 
L 234.374271 147.770518 
L 238.130621 150.062951 
L 239.998457 151.202857 
L 240.794414 151.688615 
L 242.61655 152.800632 
L 246.09945 154.926183 
L 247.914095 156.033628 
L 250.547119 157.640515 
L 251.773637 158.389037 
L 254.922913 160.310983 
L 255.359643 160.577511 
L 259.125316 162.875634 
L 260.305646 163.595968 
L 261.785921 164.499353 
L 265.525047 166.781273 
L 265.947682 167.0392 
L 267.789577 168.163275 
L 271.363093 170.344128 
L 273.561616 171.685847 
L 274.186311 172.067086 
L 277.264885 173.945885 
L 278.336791 174.60005 
L 281.159697 176.322818 
L 283.894126 177.991591 
L 284.502245 178.362714 
L 287.240537 180.033845 
L 289.607184 181.478167 
L 292.759775 183.402136 
L 293.458103 183.828313 
L 295.953399 185.351147 
L 298.537758 186.928335 
L 299.526536 187.531768 
L 302.123281 189.116514 
L 304.118376 190.334085 
L 306.430338 191.745033 
L 308.609854 193.075153 
L 310.220926 194.058361 
L 312.842485 195.658251 
L 315.001173 196.975659 
L 317.701054 198.623347 
L 318.815371 199.303395 
L 320.2569 200.183134 
L 322.852039 201.766901 
L 324.745014 202.922149 
L 326.46579 203.972307 
L 328.951049 205.489016 
L 331.252492 206.893546 
L 333.399431 208.203783 
L 336.217469 209.923581 
L 338.895686 211.558049 
L 339.821697 212.123176 
L 341.139873 212.927635 
L 343.46611 214.347296 
L 347.155732 216.599005 
L 348.874813 217.64813 
L 350.870687 218.866175 
L 352.253124 219.709851 
L 354.987794 221.378771 
L 356.128797 222.075105 
L 359.347276 224.039284 
L 361.970413 225.640137 
L 363.188636 226.383597 
L 364.323658 227.07628 
L 366.934611 228.669697 
L 369.593483 230.292359 
L 371.31298 231.341737 
L 373.084891 232.423102 
L 375.60105 233.958669 
L 378.633977 235.809609 
L 379.103968 236.096436 
L 381.876951 237.788738 
L 384.313998 239.276023 
L 386.92934 240.872119 
L 388.797919 242.012479 
L 390.831369 243.253457 
L 392.977108 244.562963 
L 394.125165 245.263601 
L 396.874101 246.941227 
L 398.693587 248.051626 
L 401.187515 249.573626 
L 402.139883 250.154839 
L 405.708186 252.332509 
L 407.771398 253.591651 
L 408.321284 253.927236 
L 410.488131 255.249623 
L 414.345694 257.603825 
L 414.978299 257.989892 
L 418.150451 259.925799 
L 418.794304 260.318731 
L 421.753363 262.124591 
L 424.868394 264.025638 
L 425.222455 264.241715 
L 428.988477 266.54005 
L 430.390188 267.395489 
L 431.954354 268.350072 
L 434.013701 269.606854 
L 436.510769 271.130769 
" style="fill:none;stroke:#0000ff;stroke-linecap:square;"/>
   </g>
   <g id="line2d_68">
    <path clip-path="url(#pb6276a02cd)" d="M 19.049231 44.669231 
L 436.510769 299.438462 
L 436.510769 299.438462 
" style="fill:none;stroke:#ff0000;stroke-linecap:square;"/>
   </g>
   <g id="patch_3">
    <path d="M 227.78 305.1 
L 227.78 10.7 
" style="fill:none;stroke:#000000;stroke-linecap:square;stroke-linejoin:miter;stroke-width:0.8;"/>
   </g>
   <g id="patch_4">
    <path d="M 10.7 315.1 
L 444.86 315.1 
" style="fill:none;stroke:#000000;stroke-linecap:square;stroke-linejoin:miter;stroke-width:0.8;"/>
   </g>
  </g>
 </g>
 <defs>
  <clipPath id="pb6276a02cd">
   <rect height="294.4" width="434.16" x="10.7" y="10.7"/>
  </clipPath>
 </defs>
</svg>
