<?xml version="1.0" encoding="utf-8" standalone="no"?>
<!DOCTYPE svg PUBLIC "-//W3C//DTD SVG 1.1//EN"
  "http://www.w3.org/Graphics/SVG/1.1/DTD/svg11.dtd">
<!-- Created with matplotlib (http://matplotlib.org/) -->
<svg height="340.36pt" version="1.1" viewBox="0 0 392.292937 340.36" width="392.292937pt" xmlns="http://www.w3.org/2000/svg" xmlns:xlink="http://www.w3.org/1999/xlink">
 <defs>
  <style type="text/css">
*{stroke-linecap:butt;stroke-linejoin:round;}
  </style>
 </defs>
 <g id="figure_1">
  <g id="patch_1">
   <path d="M 0 340.36 
L 392.292937 340.36 
L 392.292937 0 
L 0 0 
z
" style="fill:#ffffff;"/>
  </g>
  <g id="axes_1">
   <g id="patch_2">
    <path d="M 10.7 329.66 
L 381.592937 329.66 
L 381.592937 10.7 
L 10.7 10.7 
z
" style="fill:#ffffff;"/>
   </g>
   <g id="matplotlib.axis_1">
    <g id="xtick_1">
     <g id="line2d_1">
      <defs>
       <path d="M 0 0 
L 0 3.5 
" id="m59d4ae0cab" style="stroke:#000000;stroke-width:0.8;"/>
      </defs>
      <g>
       <use style="stroke:#000000;stroke-width:0.8;" x="90.265873" xlink:href="#m59d4ae0cab" y="144.907102"/>
      </g>
     </g>
     <g id="text_1">
      <!-- -5 -->
      <defs>
       <path d="M 4.890625 31.390625 
L 31.203125 31.390625 
L 31.203125 23.390625 
L 4.890625 23.390625 
z
" id="DejaVuSans-2d"/>
       <path d="M 10.796875 72.90625 
L 49.515625 72.90625 
L 49.515625 64.59375 
L 19.828125 64.59375 
L 19.828125 46.734375 
Q 21.96875 47.46875 24.109375 47.828125 
Q 26.265625 48.1875 28.421875 48.1875 
Q 40.625 48.1875 47.75 41.5 
Q 54.890625 34.8125 54.890625 23.390625 
Q 54.890625 11.625 47.5625 5.09375 
Q 40.234375 -1.421875 26.90625 -1.421875 
Q 22.3125 -1.421875 17.546875 -0.640625 
Q 12.796875 0.140625 7.71875 1.703125 
L 7.71875 11.625 
Q 12.109375 9.234375 16.796875 8.0625 
Q 21.484375 6.890625 26.703125 6.890625 
Q 35.15625 6.890625 40.078125 11.328125 
Q 45.015625 15.765625 45.015625 23.390625 
Q 45.015625 31 40.078125 35.4375 
Q 35.15625 39.890625 26.703125 39.890625 
Q 22.75 39.890625 18.8125 39.015625 
Q 14.890625 38.140625 10.796875 36.28125 
z
" id="DejaVuSans-35"/>
      </defs>
      <g transform="translate(85.280716 159.505539)scale(0.1 -0.1)">
       <use xlink:href="#DejaVuSans-2d"/>
       <use x="36.083984" xlink:href="#DejaVuSans-35"/>
      </g>
     </g>
    </g>
    <g id="xtick_2">
     <g id="line2d_2">
      <g>
       <use style="stroke:#000000;stroke-width:0.8;" x="171.157513" xlink:href="#m59d4ae0cab" y="144.907102"/>
      </g>
     </g>
    </g>
    <g id="xtick_3">
     <g id="line2d_3">
      <g>
       <use style="stroke:#000000;stroke-width:0.8;" x="252.049154" xlink:href="#m59d4ae0cab" y="144.907102"/>
      </g>
     </g>
     <g id="text_2">
      <!-- 5 -->
      <g transform="translate(248.867904 159.505539)scale(0.1 -0.1)">
       <use xlink:href="#DejaVuSans-35"/>
      </g>
     </g>
    </g>
    <g id="xtick_4">
     <g id="line2d_4">
      <g>
       <use style="stroke:#000000;stroke-width:0.8;" x="332.940794" xlink:href="#m59d4ae0cab" y="144.907102"/>
      </g>
     </g>
     <g id="text_3">
      <!-- 10 -->
      <defs>
       <path d="M 12.40625 8.296875 
L 28.515625 8.296875 
L 28.515625 63.921875 
L 10.984375 60.40625 
L 10.984375 69.390625 
L 28.421875 72.90625 
L 38.28125 72.90625 
L 38.28125 8.296875 
L 54.390625 8.296875 
L 54.390625 0 
L 12.40625 0 
z
" id="DejaVuSans-31"/>
       <path d="M 31.78125 66.40625 
Q 24.171875 66.40625 20.328125 58.90625 
Q 16.5 51.421875 16.5 36.375 
Q 16.5 21.390625 20.328125 13.890625 
Q 24.171875 6.390625 31.78125 6.390625 
Q 39.453125 6.390625 43.28125 13.890625 
Q 47.125 21.390625 47.125 36.375 
Q 47.125 51.421875 43.28125 58.90625 
Q 39.453125 66.40625 31.78125 66.40625 
z
M 31.78125 74.21875 
Q 44.046875 74.21875 50.515625 64.515625 
Q 56.984375 54.828125 56.984375 36.375 
Q 56.984375 17.96875 50.515625 8.265625 
Q 44.046875 -1.421875 31.78125 -1.421875 
Q 19.53125 -1.421875 13.0625 8.265625 
Q 6.59375 17.96875 6.59375 36.375 
Q 6.59375 54.828125 13.0625 64.515625 
Q 19.53125 74.21875 31.78125 74.21875 
z
" id="DejaVuSans-30"/>
      </defs>
      <g transform="translate(326.578294 159.505539)scale(0.1 -0.1)">
       <use xlink:href="#DejaVuSans-31"/>
       <use x="63.623047" xlink:href="#DejaVuSans-30"/>
      </g>
     </g>
    </g>
    <g id="xtick_5">
     <g id="line2d_5">
      <defs>
       <path d="M 0 0 
L 0 2 
" id="m6cf4825483" style="stroke:#000000;stroke-width:0.6;"/>
      </defs>
      <g>
       <use style="stroke:#000000;stroke-width:0.6;" x="25.55256" xlink:href="#m6cf4825483" y="144.907102"/>
      </g>
     </g>
    </g>
    <g id="xtick_6">
     <g id="line2d_6">
      <g>
       <use style="stroke:#000000;stroke-width:0.6;" x="41.730888" xlink:href="#m6cf4825483" y="144.907102"/>
      </g>
     </g>
    </g>
    <g id="xtick_7">
     <g id="line2d_7">
      <g>
       <use style="stroke:#000000;stroke-width:0.6;" x="57.909216" xlink:href="#m6cf4825483" y="144.907102"/>
      </g>
     </g>
    </g>
    <g id="xtick_8">
     <g id="line2d_8">
      <g>
       <use style="stroke:#000000;stroke-width:0.6;" x="74.087545" xlink:href="#m6cf4825483" y="144.907102"/>
      </g>
     </g>
    </g>
    <g id="xtick_9">
     <g id="line2d_9">
      <g>
       <use style="stroke:#000000;stroke-width:0.6;" x="106.444201" xlink:href="#m6cf4825483" y="144.907102"/>
      </g>
     </g>
    </g>
    <g id="xtick_10">
     <g id="line2d_10">
      <g>
       <use style="stroke:#000000;stroke-width:0.6;" x="122.622529" xlink:href="#m6cf4825483" y="144.907102"/>
      </g>
     </g>
    </g>
    <g id="xtick_11">
     <g id="line2d_11">
      <g>
       <use style="stroke:#000000;stroke-width:0.6;" x="138.800857" xlink:href="#m6cf4825483" y="144.907102"/>
      </g>
     </g>
    </g>
    <g id="xtick_12">
     <g id="line2d_12">
      <g>
       <use style="stroke:#000000;stroke-width:0.6;" x="154.979185" xlink:href="#m6cf4825483" y="144.907102"/>
      </g>
     </g>
    </g>
    <g id="xtick_13">
     <g id="line2d_13">
      <g>
       <use style="stroke:#000000;stroke-width:0.6;" x="187.335841" xlink:href="#m6cf4825483" y="144.907102"/>
      </g>
     </g>
    </g>
    <g id="xtick_14">
     <g id="line2d_14">
      <g>
       <use style="stroke:#000000;stroke-width:0.6;" x="203.514169" xlink:href="#m6cf4825483" y="144.907102"/>
      </g>
     </g>
    </g>
    <g id="xtick_15">
     <g id="line2d_15">
      <g>
       <use style="stroke:#000000;stroke-width:0.6;" x="219.692498" xlink:href="#m6cf4825483" y="144.907102"/>
      </g>
     </g>
    </g>
    <g id="xtick_16">
     <g id="line2d_16">
      <g>
       <use style="stroke:#000000;stroke-width:0.6;" x="235.870826" xlink:href="#m6cf4825483" y="144.907102"/>
      </g>
     </g>
    </g>
    <g id="xtick_17">
     <g id="line2d_17">
      <g>
       <use style="stroke:#000000;stroke-width:0.6;" x="268.227482" xlink:href="#m6cf4825483" y="144.907102"/>
      </g>
     </g>
    </g>
    <g id="xtick_18">
     <g id="line2d_18">
      <g>
       <use style="stroke:#000000;stroke-width:0.6;" x="284.40581" xlink:href="#m6cf4825483" y="144.907102"/>
      </g>
     </g>
    </g>
    <g id="xtick_19">
     <g id="line2d_19">
      <g>
       <use style="stroke:#000000;stroke-width:0.6;" x="300.584138" xlink:href="#m6cf4825483" y="144.907102"/>
      </g>
     </g>
    </g>
    <g id="xtick_20">
     <g id="line2d_20">
      <g>
       <use style="stroke:#000000;stroke-width:0.6;" x="316.762466" xlink:href="#m6cf4825483" y="144.907102"/>
      </g>
     </g>
    </g>
    <g id="xtick_21">
     <g id="line2d_21">
      <g>
       <use style="stroke:#000000;stroke-width:0.6;" x="349.119122" xlink:href="#m6cf4825483" y="144.907102"/>
      </g>
     </g>
    </g>
    <g id="xtick_22">
     <g id="line2d_22">
      <g>
       <use style="stroke:#000000;stroke-width:0.6;" x="365.29745" xlink:href="#m6cf4825483" y="144.907102"/>
      </g>
     </g>
    </g>
    <g id="xtick_23">
     <g id="line2d_23">
      <g>
       <use style="stroke:#000000;stroke-width:0.6;" x="381.475779" xlink:href="#m6cf4825483" y="144.907102"/>
      </g>
     </g>
    </g>
   </g>
   <g id="matplotlib.axis_2">
    <g id="ytick_1">
     <g id="line2d_24">
      <defs>
       <path d="M 0 0 
L -3.5 0 
" id="m10c4a479af" style="stroke:#000000;stroke-width:0.8;"/>
      </defs>
      <g>
       <use style="stroke:#000000;stroke-width:0.8;" x="171.157513" xlink:href="#m10c4a479af" y="306.690383"/>
      </g>
     </g>
     <g id="text_4">
      <!-- -10 -->
      <g transform="translate(147.824701 310.489602)scale(0.1 -0.1)">
       <use xlink:href="#DejaVuSans-2d"/>
       <use x="36.083984" xlink:href="#DejaVuSans-31"/>
       <use x="99.707031" xlink:href="#DejaVuSans-30"/>
      </g>
     </g>
    </g>
    <g id="ytick_2">
     <g id="line2d_25">
      <g>
       <use style="stroke:#000000;stroke-width:0.8;" x="171.157513" xlink:href="#m10c4a479af" y="225.798742"/>
      </g>
     </g>
     <g id="text_5">
      <!-- -5 -->
      <g transform="translate(154.187201 229.597961)scale(0.1 -0.1)">
       <use xlink:href="#DejaVuSans-2d"/>
       <use x="36.083984" xlink:href="#DejaVuSans-35"/>
      </g>
     </g>
    </g>
    <g id="ytick_3">
     <g id="line2d_26">
      <g>
       <use style="stroke:#000000;stroke-width:0.8;" x="171.157513" xlink:href="#m10c4a479af" y="144.907102"/>
      </g>
     </g>
    </g>
    <g id="ytick_4">
     <g id="line2d_27">
      <g>
       <use style="stroke:#000000;stroke-width:0.8;" x="171.157513" xlink:href="#m10c4a479af" y="64.015461"/>
      </g>
     </g>
     <g id="text_6">
      <!-- 5 -->
      <g transform="translate(157.795013 67.81468)scale(0.1 -0.1)">
       <use xlink:href="#DejaVuSans-35"/>
      </g>
     </g>
    </g>
    <g id="ytick_5">
     <g id="line2d_28">
      <defs>
       <path d="M 0 0 
L -2 0 
" id="mfb8014287f" style="stroke:#000000;stroke-width:0.6;"/>
      </defs>
      <g>
       <use style="stroke:#000000;stroke-width:0.6;" x="171.157513" xlink:href="#mfb8014287f" y="322.868711"/>
      </g>
     </g>
    </g>
    <g id="ytick_6">
     <g id="line2d_29">
      <g>
       <use style="stroke:#000000;stroke-width:0.6;" x="171.157513" xlink:href="#mfb8014287f" y="290.512055"/>
      </g>
     </g>
    </g>
    <g id="ytick_7">
     <g id="line2d_30">
      <g>
       <use style="stroke:#000000;stroke-width:0.6;" x="171.157513" xlink:href="#mfb8014287f" y="274.333727"/>
      </g>
     </g>
    </g>
    <g id="ytick_8">
     <g id="line2d_31">
      <g>
       <use style="stroke:#000000;stroke-width:0.6;" x="171.157513" xlink:href="#mfb8014287f" y="258.155398"/>
      </g>
     </g>
    </g>
    <g id="ytick_9">
     <g id="line2d_32">
      <g>
       <use style="stroke:#000000;stroke-width:0.6;" x="171.157513" xlink:href="#mfb8014287f" y="241.97707"/>
      </g>
     </g>
    </g>
    <g id="ytick_10">
     <g id="line2d_33">
      <g>
       <use style="stroke:#000000;stroke-width:0.6;" x="171.157513" xlink:href="#mfb8014287f" y="209.620414"/>
      </g>
     </g>
    </g>
    <g id="ytick_11">
     <g id="line2d_34">
      <g>
       <use style="stroke:#000000;stroke-width:0.6;" x="171.157513" xlink:href="#mfb8014287f" y="193.442086"/>
      </g>
     </g>
    </g>
    <g id="ytick_12">
     <g id="line2d_35">
      <g>
       <use style="stroke:#000000;stroke-width:0.6;" x="171.157513" xlink:href="#mfb8014287f" y="177.263758"/>
      </g>
     </g>
    </g>
    <g id="ytick_13">
     <g id="line2d_36">
      <g>
       <use style="stroke:#000000;stroke-width:0.6;" x="171.157513" xlink:href="#mfb8014287f" y="161.08543"/>
      </g>
     </g>
    </g>
    <g id="ytick_14">
     <g id="line2d_37">
      <g>
       <use style="stroke:#000000;stroke-width:0.6;" x="171.157513" xlink:href="#mfb8014287f" y="128.728774"/>
      </g>
     </g>
    </g>
    <g id="ytick_15">
     <g id="line2d_38">
      <g>
       <use style="stroke:#000000;stroke-width:0.6;" x="171.157513" xlink:href="#mfb8014287f" y="112.550445"/>
      </g>
     </g>
    </g>
    <g id="ytick_16">
     <g id="line2d_39">
      <g>
       <use style="stroke:#000000;stroke-width:0.6;" x="171.157513" xlink:href="#mfb8014287f" y="96.372117"/>
      </g>
     </g>
    </g>
    <g id="ytick_17">
     <g id="line2d_40">
      <g>
       <use style="stroke:#000000;stroke-width:0.6;" x="171.157513" xlink:href="#mfb8014287f" y="80.193789"/>
      </g>
     </g>
    </g>
    <g id="ytick_18">
     <g id="line2d_41">
      <g>
       <use style="stroke:#000000;stroke-width:0.6;" x="171.157513" xlink:href="#mfb8014287f" y="47.837133"/>
      </g>
     </g>
    </g>
    <g id="ytick_19">
     <g id="line2d_42">
      <g>
       <use style="stroke:#000000;stroke-width:0.6;" x="171.157513" xlink:href="#mfb8014287f" y="31.658805"/>
      </g>
     </g>
    </g>
    <g id="ytick_20">
     <g id="line2d_43">
      <g>
       <use style="stroke:#000000;stroke-width:0.6;" x="171.157513" xlink:href="#mfb8014287f" y="15.480477"/>
      </g>
     </g>
    </g>
   </g>
   <g id="line2d_44">
    <path clip-path="url(#p47252097d8)" d="M 171.157513 144.907102 
L 172.814674 144.735847 
L 174.115218 144.350448 
L 175.696192 143.537702 
L 176.994817 142.506809 
L 178.001835 141.378992 
L 178.970424 139.835773 
L 179.505944 138.606856 
L 179.928172 137.167903 
L 180.155218 135.810808 
L 180.234365 134.213276 
L 180.056632 132.131105 
L 179.62778 130.23264 
L 178.898981 128.238398 
L 177.959398 126.404091 
L 176.9192 124.824577 
L 175.101522 122.683003 
L 173.811375 121.468008 
L 171.645209 119.813368 
L 169.232657 118.39163 
L 167.208029 117.464513 
L 165.258955 116.763346 
L 162.378412 116.024989 
L 159.409296 115.593976 
L 157.137182 115.471251 
L 154.827192 115.520941 
L 151.191536 115.944805 
L 150.717673 116.030932 
L 148.264812 116.591337 
L 143.807808 118.115167 
L 140.268525 119.823091 
L 138.900673 120.612557 
L 136.895658 121.912623 
L 133.604933 124.459104 
L 132.091037 125.828806 
L 129.410826 128.625157 
L 127.467572 131.015566 
L 125.662752 133.589857 
L 123.813073 136.703387 
L 122.522612 139.273668 
L 121.198143 142.420685 
L 120.254606 145.151823 
L 119.416038 148.168617 
L 118.603908 152.204047 
L 118.245701 154.914542 
L 118.023076 157.787895 
L 117.978308 161.943747 
L 118.269381 166.239902 
L 118.700441 169.396951 
L 119.370778 172.791348 
L 120.37593 176.575197 
L 121.653546 180.334719 
L 123.303507 184.267207 
L 125.324141 188.247426 
L 127.490655 191.857477 
L 129.794413 195.177138 
L 132.082827 198.079128 
L 134.566465 200.879175 
L 136.555917 202.905834 
L 140.18861 206.196478 
L 144.037548 209.202289 
L 147.613819 211.625068 
L 150.559467 213.388012 
L 154.008932 215.214046 
L 157.373288 216.769629 
L 161.630476 218.446847 
L 165.102644 219.591885 
L 168.662804 220.571343 
L 171.485207 221.214449 
L 176.931537 222.137439 
L 181.430998 222.596398 
L 186.45818 222.795217 
L 190.65419 222.712319 
L 195.097121 222.379874 
L 199.560492 221.792115 
L 203.213922 221.119786 
L 208.452706 219.849102 
L 212.04771 218.762161 
L 215.618486 217.502906 
L 218.633661 216.294883 
L 224.122875 213.73667 
L 228.941402 211.080675 
L 233.523905 208.162822 
L 235.709478 206.624142 
L 238.437135 204.55899 
L 240.877296 202.564862 
L 243.29686 200.438931 
L 247.459988 196.39307 
L 250.940941 192.574558 
L 253.776044 189.115311 
L 257.001613 184.718039 
L 258.986992 181.716165 
L 261.925406 176.752969 
L 264.465401 171.812649 
L 266.598204 167.017739 
L 267.840917 163.849064 
L 269.455551 159.146501 
L 270.727394 154.758151 
L 271.979496 149.443536 
L 272.968713 143.868298 
L 273.508612 139.609081 
L 273.89888 134.809477 
L 274.064868 129.713415 
L 273.946643 123.918164 
L 273.674526 119.908071 
L 273.034506 114.315694 
L 272.256346 109.597328 
L 271.12939 104.345162 
L 269.735388 99.141928 
L 268.069791 93.978447 
L 266.592666 90.01358 
L 264.95336 86.087744 
L 262.960951 81.81649 
L 260.583416 77.262153 
L 257.980388 72.794427 
L 255.016005 68.220706 
L 251.526737 63.391992 
L 247.416715 58.317772 
L 242.952352 53.412535 
L 239.489561 49.970372 
L 235.86414 46.658943 
L 230.743074 42.426809 
L 224.952747 38.18868 
L 221.184575 35.706663 
L 216.054011 32.642171 
L 210.742438 29.819848 
L 207.008526 28.033121 
L 203.199035 26.367926 
L 196.337271 23.746619 
L 191.354199 22.1306 
L 186.279789 20.72054 
L 180.773596 19.448401 
L 176.39855 18.622564 
L 171.977437 17.94994 
L 164.828047 17.198393 
L 159.927395 16.918636 
L 153.848486 16.833846 
L 145.476136 17.188908 
L 130.037476 19.28368 
L 122.563113 20.984058 
L 115.594629 22.988886 
L 110.704434 24.646568 
L 103.869446 27.325766 
L 96.121546 30.90316 
L 90.924233 33.64713 
L 88.295643 35.146809 
L 84.209274 37.635575 
L 80.196407 40.276122 
L 74.169789 44.637147 
L 70.809311 47.292601 
L 67.520933 50.060028 
L 64.30837 52.937491 
L 58.76297 58.351935 
L 54.622489 62.812115 
L 50.710949 67.404862 
L 46.55507 72.754271 
L 42.43188 78.631918 
L 38.597844 84.723213 
L 35.96083 89.344918 
L 33.485354 94.078987 
L 31.097469 99.092989 
L 28.892768 104.214876 
L 26.848242 109.514139 
L 24.969876 115.009945 
L 23.287552 120.649002 
L 21.823578 126.374069 
L 20.736245 131.390752 
L 19.818009 136.459863 
L 19.103286 141.327493 
L 18.380105 148.047802 
L 18.013565 153.51762 
L 17.836373 159.682509 
L 17.872405 164.573093 
L 18.10911 170.242423 
L 18.551345 175.87094 
L 19.359461 182.649261 
L 20.323727 188.622603 
L 21.523706 194.577302 
L 22.979025 200.578704 
L 24.587452 206.252455 
L 26.413561 211.883095 
L 28.190596 216.771629 
L 30.13291 221.615084 
L 32.543773 227.066717 
L 35.566049 233.223309 
L 38.160301 238.033385 
L 41.383768 243.519631 
L 45.320646 249.618605 
L 47.650576 252.966299 
L 52.200104 259.029911 
L 57.047022 264.902538 
L 61.494267 269.839394 
L 65.224039 273.68924 
L 69.761102 278.054751 
L 75.333907 282.990973 
L 81.071413 287.636225 
L 87.032475 292.042657 
L 93.969122 296.685699 
L 101.159435 301.000692 
L 105.968617 303.626552 
L 110.874229 306.103964 
L 118.174698 309.436361 
L 124.44226 311.977872 
L 129.158014 313.705221 
L 133.934589 315.299169 
L 142.110684 317.677634 
L 150.430176 319.662236 
L 155.424553 320.64981 
L 160.201874 321.454854 
L 165.011447 322.129732 
L 169.849719 322.673281 
L 174.713093 323.084438 
L 180.659432 323.404787 
L 186.630952 323.526154 
L 192.726194 323.44404 
L 206.624959 322.479111 
L 212.527897 321.740317 
L 220.296327 320.465113 
L 228.031357 318.847666 
L 235.179842 317.03726 
L 239.520048 315.786602 
L 243.837301 314.426398 
L 248.128834 312.957023 
L 256.295077 309.827915 
L 263.258285 306.800579 
L 269.371628 303.856103 
L 272.394036 302.297047 
L 277.731445 299.369639 
L 282.507626 296.553345 
L 287.210101 293.589422 
L 291.691317 290.578941 
L 298.266438 285.810868 
L 302.54615 282.466853 
L 307.205791 278.59293 
L 312.693666 273.692855 
L 318.475051 268.095078 
L 322.930304 263.441818 
L 327.853324 257.914042 
L 332.625829 252.118244 
L 337.183705 246.121884 
L 340.481093 241.461483 
L 343.647562 236.694618 
L 347.806969 229.929659 
L 350.582482 225.043083 
L 353.364451 219.78986 
L 356.158316 214.089636 
L 358.927733 207.928619 
L 361.726263 201.052791 
L 363.984051 194.890785 
L 366.332602 187.698911 
L 368.41221 180.400752 
L 369.74574 175.063024 
L 370.976212 169.476497 
L 372.049204 163.844399 
L 372.963121 158.171176 
L 373.716491 152.461332 
L 374.46038 144.907102 
L 374.46038 144.907102 
" style="fill:none;stroke:#0000ff;stroke-linecap:square;"/>
   </g>
   <g id="patch_3">
    <path d="M 171.157513 329.66 
L 171.157513 10.7 
" style="fill:none;stroke:#000000;stroke-linecap:square;stroke-linejoin:miter;stroke-width:0.8;"/>
   </g>
   <g id="patch_4">
    <path d="M 10.7 144.907102 
L 381.592937 144.907102 
" style="fill:none;stroke:#000000;stroke-linecap:square;stroke-linejoin:miter;stroke-width:0.8;"/>
   </g>
  </g>
 </g>
 <defs>
  <clipPath id="p47252097d8">
   <rect height="318.96" width="370.892937" x="10.7" y="10.7"/>
  </clipPath>
 </defs>
</svg>
