<?xml version="1.0" encoding="utf-8" standalone="no"?>
<!DOCTYPE svg PUBLIC "-//W3C//DTD SVG 1.1//EN"
  "http://www.w3.org/Graphics/SVG/1.1/DTD/svg11.dtd">
<!-- Created with matplotlib (http://matplotlib.org/) -->
<svg height="338.978125pt" version="1.1" viewBox="0 0 455.56 338.978125" width="455.56pt" xmlns="http://www.w3.org/2000/svg" xmlns:xlink="http://www.w3.org/1999/xlink">
 <defs>
  <style type="text/css">
*{stroke-linecap:butt;stroke-linejoin:round;}
  </style>
 </defs>
 <g id="figure_1">
  <g id="patch_1">
   <path d="M 0 338.978125 
L 455.56 338.978125 
L 455.56 0 
L 0 0 
z
" style="fill:#ffffff;"/>
  </g>
  <g id="axes_1">
   <g id="patch_2">
    <path d="M 10.7 305.1 
L 444.86 305.1 
L 444.86 10.7 
L 10.7 10.7 
z
" style="fill:#ffffff;"/>
   </g>
   <g id="matplotlib.axis_1">
    <g id="xtick_1">
     <g id="line2d_1">
      <defs>
       <path d="M 0 0 
L 0 3.5 
" id="m9ab9f3ef08" style="stroke:#000000;stroke-width:0.8;"/>
      </defs>
      <g>
       <use style="stroke:#000000;stroke-width:0.8;" x="60.795385" xlink:href="#m9ab9f3ef08" y="315.1"/>
      </g>
     </g>
     <g id="text_1">
      <!-- -4 -->
      <defs>
       <path d="M 4.890625 31.390625 
L 31.203125 31.390625 
L 31.203125 23.390625 
L 4.890625 23.390625 
z
" id="DejaVuSans-2d"/>
       <path d="M 37.796875 64.3125 
L 12.890625 25.390625 
L 37.796875 25.390625 
z
M 35.203125 72.90625 
L 47.609375 72.90625 
L 47.609375 25.390625 
L 58.015625 25.390625 
L 58.015625 17.1875 
L 47.609375 17.1875 
L 47.609375 0 
L 37.796875 0 
L 37.796875 17.1875 
L 4.890625 17.1875 
L 4.890625 26.703125 
z
" id="DejaVuSans-34"/>
      </defs>
      <g transform="translate(55.810228 329.698437)scale(0.1 -0.1)">
       <use xlink:href="#DejaVuSans-2d"/>
       <use x="36.083984" xlink:href="#DejaVuSans-34"/>
      </g>
     </g>
    </g>
    <g id="xtick_2">
     <g id="line2d_2">
      <g>
       <use style="stroke:#000000;stroke-width:0.8;" x="144.287692" xlink:href="#m9ab9f3ef08" y="315.1"/>
      </g>
     </g>
     <g id="text_2">
      <!-- -2 -->
      <defs>
       <path d="M 19.1875 8.296875 
L 53.609375 8.296875 
L 53.609375 0 
L 7.328125 0 
L 7.328125 8.296875 
Q 12.9375 14.109375 22.625 23.890625 
Q 32.328125 33.6875 34.8125 36.53125 
Q 39.546875 41.84375 41.421875 45.53125 
Q 43.3125 49.21875 43.3125 52.78125 
Q 43.3125 58.59375 39.234375 62.25 
Q 35.15625 65.921875 28.609375 65.921875 
Q 23.96875 65.921875 18.8125 64.3125 
Q 13.671875 62.703125 7.8125 59.421875 
L 7.8125 69.390625 
Q 13.765625 71.78125 18.9375 73 
Q 24.125 74.21875 28.421875 74.21875 
Q 39.75 74.21875 46.484375 68.546875 
Q 53.21875 62.890625 53.21875 53.421875 
Q 53.21875 48.921875 51.53125 44.890625 
Q 49.859375 40.875 45.40625 35.40625 
Q 44.1875 33.984375 37.640625 27.21875 
Q 31.109375 20.453125 19.1875 8.296875 
z
" id="DejaVuSans-32"/>
      </defs>
      <g transform="translate(139.302536 329.698437)scale(0.1 -0.1)">
       <use xlink:href="#DejaVuSans-2d"/>
       <use x="36.083984" xlink:href="#DejaVuSans-32"/>
      </g>
     </g>
    </g>
    <g id="xtick_3">
     <g id="line2d_3">
      <g>
       <use style="stroke:#000000;stroke-width:0.8;" x="227.78" xlink:href="#m9ab9f3ef08" y="315.1"/>
      </g>
     </g>
     <g id="text_3">
      <!-- 0 -->
      <defs>
       <path d="M 31.78125 66.40625 
Q 24.171875 66.40625 20.328125 58.90625 
Q 16.5 51.421875 16.5 36.375 
Q 16.5 21.390625 20.328125 13.890625 
Q 24.171875 6.390625 31.78125 6.390625 
Q 39.453125 6.390625 43.28125 13.890625 
Q 47.125 21.390625 47.125 36.375 
Q 47.125 51.421875 43.28125 58.90625 
Q 39.453125 66.40625 31.78125 66.40625 
z
M 31.78125 74.21875 
Q 44.046875 74.21875 50.515625 64.515625 
Q 56.984375 54.828125 56.984375 36.375 
Q 56.984375 17.96875 50.515625 8.265625 
Q 44.046875 -1.421875 31.78125 -1.421875 
Q 19.53125 -1.421875 13.0625 8.265625 
Q 6.59375 17.96875 6.59375 36.375 
Q 6.59375 54.828125 13.0625 64.515625 
Q 19.53125 74.21875 31.78125 74.21875 
z
" id="DejaVuSans-30"/>
      </defs>
      <g transform="translate(224.59875 329.698437)scale(0.1 -0.1)">
       <use xlink:href="#DejaVuSans-30"/>
      </g>
     </g>
    </g>
    <g id="xtick_4">
     <g id="line2d_4">
      <g>
       <use style="stroke:#000000;stroke-width:0.8;" x="311.272308" xlink:href="#m9ab9f3ef08" y="315.1"/>
      </g>
     </g>
     <g id="text_4">
      <!-- 2 -->
      <g transform="translate(308.091058 329.698437)scale(0.1 -0.1)">
       <use xlink:href="#DejaVuSans-32"/>
      </g>
     </g>
    </g>
    <g id="xtick_5">
     <g id="line2d_5">
      <g>
       <use style="stroke:#000000;stroke-width:0.8;" x="394.764615" xlink:href="#m9ab9f3ef08" y="315.1"/>
      </g>
     </g>
     <g id="text_5">
      <!-- 4 -->
      <g transform="translate(391.583365 329.698437)scale(0.1 -0.1)">
       <use xlink:href="#DejaVuSans-34"/>
      </g>
     </g>
    </g>
    <g id="xtick_6">
     <g id="line2d_6">
      <defs>
       <path d="M 0 0 
L 0 2 
" id="m18605ae29e" style="stroke:#000000;stroke-width:0.6;"/>
      </defs>
      <g>
       <use style="stroke:#000000;stroke-width:0.6;" x="19.049231" xlink:href="#m18605ae29e" y="315.1"/>
      </g>
     </g>
    </g>
    <g id="xtick_7">
     <g id="line2d_7">
      <g>
       <use style="stroke:#000000;stroke-width:0.6;" x="39.922308" xlink:href="#m18605ae29e" y="315.1"/>
      </g>
     </g>
    </g>
    <g id="xtick_8">
     <g id="line2d_8">
      <g>
       <use style="stroke:#000000;stroke-width:0.6;" x="81.668462" xlink:href="#m18605ae29e" y="315.1"/>
      </g>
     </g>
    </g>
    <g id="xtick_9">
     <g id="line2d_9">
      <g>
       <use style="stroke:#000000;stroke-width:0.6;" x="102.541538" xlink:href="#m18605ae29e" y="315.1"/>
      </g>
     </g>
    </g>
    <g id="xtick_10">
     <g id="line2d_10">
      <g>
       <use style="stroke:#000000;stroke-width:0.6;" x="123.414615" xlink:href="#m18605ae29e" y="315.1"/>
      </g>
     </g>
    </g>
    <g id="xtick_11">
     <g id="line2d_11">
      <g>
       <use style="stroke:#000000;stroke-width:0.6;" x="165.160769" xlink:href="#m18605ae29e" y="315.1"/>
      </g>
     </g>
    </g>
    <g id="xtick_12">
     <g id="line2d_12">
      <g>
       <use style="stroke:#000000;stroke-width:0.6;" x="186.033846" xlink:href="#m18605ae29e" y="315.1"/>
      </g>
     </g>
    </g>
    <g id="xtick_13">
     <g id="line2d_13">
      <g>
       <use style="stroke:#000000;stroke-width:0.6;" x="206.906923" xlink:href="#m18605ae29e" y="315.1"/>
      </g>
     </g>
    </g>
    <g id="xtick_14">
     <g id="line2d_14">
      <g>
       <use style="stroke:#000000;stroke-width:0.6;" x="248.653077" xlink:href="#m18605ae29e" y="315.1"/>
      </g>
     </g>
    </g>
    <g id="xtick_15">
     <g id="line2d_15">
      <g>
       <use style="stroke:#000000;stroke-width:0.6;" x="269.526154" xlink:href="#m18605ae29e" y="315.1"/>
      </g>
     </g>
    </g>
    <g id="xtick_16">
     <g id="line2d_16">
      <g>
       <use style="stroke:#000000;stroke-width:0.6;" x="290.399231" xlink:href="#m18605ae29e" y="315.1"/>
      </g>
     </g>
    </g>
    <g id="xtick_17">
     <g id="line2d_17">
      <g>
       <use style="stroke:#000000;stroke-width:0.6;" x="332.145385" xlink:href="#m18605ae29e" y="315.1"/>
      </g>
     </g>
    </g>
    <g id="xtick_18">
     <g id="line2d_18">
      <g>
       <use style="stroke:#000000;stroke-width:0.6;" x="353.018462" xlink:href="#m18605ae29e" y="315.1"/>
      </g>
     </g>
    </g>
    <g id="xtick_19">
     <g id="line2d_19">
      <g>
       <use style="stroke:#000000;stroke-width:0.6;" x="373.891538" xlink:href="#m18605ae29e" y="315.1"/>
      </g>
     </g>
    </g>
    <g id="xtick_20">
     <g id="line2d_20">
      <g>
       <use style="stroke:#000000;stroke-width:0.6;" x="415.637692" xlink:href="#m18605ae29e" y="315.1"/>
      </g>
     </g>
    </g>
    <g id="xtick_21">
     <g id="line2d_21">
      <g>
       <use style="stroke:#000000;stroke-width:0.6;" x="436.510769" xlink:href="#m18605ae29e" y="315.1"/>
      </g>
     </g>
    </g>
   </g>
   <g id="matplotlib.axis_2">
    <g id="ytick_1">
     <g id="line2d_22">
      <defs>
       <path d="M 0 0 
L -3.5 0 
" id="m1b2e171c8c" style="stroke:#000000;stroke-width:0.8;"/>
      </defs>
      <g>
       <use style="stroke:#000000;stroke-width:0.8;" x="227.78" xlink:href="#m1b2e171c8c" y="254.146697"/>
      </g>
     </g>
     <g id="text_6">
      <!-- 5 -->
      <defs>
       <path d="M 10.796875 72.90625 
L 49.515625 72.90625 
L 49.515625 64.59375 
L 19.828125 64.59375 
L 19.828125 46.734375 
Q 21.96875 47.46875 24.109375 47.828125 
Q 26.265625 48.1875 28.421875 48.1875 
Q 40.625 48.1875 47.75 41.5 
Q 54.890625 34.8125 54.890625 23.390625 
Q 54.890625 11.625 47.5625 5.09375 
Q 40.234375 -1.421875 26.90625 -1.421875 
Q 22.3125 -1.421875 17.546875 -0.640625 
Q 12.796875 0.140625 7.71875 1.703125 
L 7.71875 11.625 
Q 12.109375 9.234375 16.796875 8.0625 
Q 21.484375 6.890625 26.703125 6.890625 
Q 35.15625 6.890625 40.078125 11.328125 
Q 45.015625 15.765625 45.015625 23.390625 
Q 45.015625 31 40.078125 35.4375 
Q 35.15625 39.890625 26.703125 39.890625 
Q 22.75 39.890625 18.8125 39.015625 
Q 14.890625 38.140625 10.796875 36.28125 
z
" id="DejaVuSans-35"/>
      </defs>
      <g transform="translate(214.4175 257.945916)scale(0.1 -0.1)">
       <use xlink:href="#DejaVuSans-35"/>
      </g>
     </g>
    </g>
    <g id="ytick_2">
     <g id="line2d_23">
      <g>
       <use style="stroke:#000000;stroke-width:0.8;" x="227.78" xlink:href="#m1b2e171c8c" y="197.531183"/>
      </g>
     </g>
     <g id="text_7">
      <!-- 10 -->
      <defs>
       <path d="M 12.40625 8.296875 
L 28.515625 8.296875 
L 28.515625 63.921875 
L 10.984375 60.40625 
L 10.984375 69.390625 
L 28.421875 72.90625 
L 38.28125 72.90625 
L 38.28125 8.296875 
L 54.390625 8.296875 
L 54.390625 0 
L 12.40625 0 
z
" id="DejaVuSans-31"/>
      </defs>
      <g transform="translate(208.055 201.330402)scale(0.1 -0.1)">
       <use xlink:href="#DejaVuSans-31"/>
       <use x="63.623047" xlink:href="#DejaVuSans-30"/>
      </g>
     </g>
    </g>
    <g id="ytick_3">
     <g id="line2d_24">
      <g>
       <use style="stroke:#000000;stroke-width:0.8;" x="227.78" xlink:href="#m1b2e171c8c" y="140.915669"/>
      </g>
     </g>
     <g id="text_8">
      <!-- 15 -->
      <g transform="translate(208.055 144.714888)scale(0.1 -0.1)">
       <use xlink:href="#DejaVuSans-31"/>
       <use x="63.623047" xlink:href="#DejaVuSans-35"/>
      </g>
     </g>
    </g>
    <g id="ytick_4">
     <g id="line2d_25">
      <g>
       <use style="stroke:#000000;stroke-width:0.8;" x="227.78" xlink:href="#m1b2e171c8c" y="84.300155"/>
      </g>
     </g>
     <g id="text_9">
      <!-- 20 -->
      <g transform="translate(208.055 88.099374)scale(0.1 -0.1)">
       <use xlink:href="#DejaVuSans-32"/>
       <use x="63.623047" xlink:href="#DejaVuSans-30"/>
      </g>
     </g>
    </g>
    <g id="ytick_5">
     <g id="line2d_26">
      <g>
       <use style="stroke:#000000;stroke-width:0.8;" x="227.78" xlink:href="#m1b2e171c8c" y="27.684641"/>
      </g>
     </g>
     <g id="text_10">
      <!-- 25 -->
      <g transform="translate(208.055 31.48386)scale(0.1 -0.1)">
       <use xlink:href="#DejaVuSans-32"/>
       <use x="63.623047" xlink:href="#DejaVuSans-35"/>
      </g>
     </g>
    </g>
    <g id="ytick_6">
     <g id="line2d_27">
      <defs>
       <path d="M 0 0 
L -2 0 
" id="m89ea9b4512" style="stroke:#000000;stroke-width:0.6;"/>
      </defs>
      <g>
       <use style="stroke:#000000;stroke-width:0.6;" x="227.78" xlink:href="#m89ea9b4512" y="299.439108"/>
      </g>
     </g>
    </g>
    <g id="ytick_7">
     <g id="line2d_28">
      <g>
       <use style="stroke:#000000;stroke-width:0.6;" x="227.78" xlink:href="#m89ea9b4512" y="288.116006"/>
      </g>
     </g>
    </g>
    <g id="ytick_8">
     <g id="line2d_29">
      <g>
       <use style="stroke:#000000;stroke-width:0.6;" x="227.78" xlink:href="#m89ea9b4512" y="276.792903"/>
      </g>
     </g>
    </g>
    <g id="ytick_9">
     <g id="line2d_30">
      <g>
       <use style="stroke:#000000;stroke-width:0.6;" x="227.78" xlink:href="#m89ea9b4512" y="265.4698"/>
      </g>
     </g>
    </g>
    <g id="ytick_10">
     <g id="line2d_31">
      <g>
       <use style="stroke:#000000;stroke-width:0.6;" x="227.78" xlink:href="#m89ea9b4512" y="242.823594"/>
      </g>
     </g>
    </g>
    <g id="ytick_11">
     <g id="line2d_32">
      <g>
       <use style="stroke:#000000;stroke-width:0.6;" x="227.78" xlink:href="#m89ea9b4512" y="231.500492"/>
      </g>
     </g>
    </g>
    <g id="ytick_12">
     <g id="line2d_33">
      <g>
       <use style="stroke:#000000;stroke-width:0.6;" x="227.78" xlink:href="#m89ea9b4512" y="220.177389"/>
      </g>
     </g>
    </g>
    <g id="ytick_13">
     <g id="line2d_34">
      <g>
       <use style="stroke:#000000;stroke-width:0.6;" x="227.78" xlink:href="#m89ea9b4512" y="208.854286"/>
      </g>
     </g>
    </g>
    <g id="ytick_14">
     <g id="line2d_35">
      <g>
       <use style="stroke:#000000;stroke-width:0.6;" x="227.78" xlink:href="#m89ea9b4512" y="186.20808"/>
      </g>
     </g>
    </g>
    <g id="ytick_15">
     <g id="line2d_36">
      <g>
       <use style="stroke:#000000;stroke-width:0.6;" x="227.78" xlink:href="#m89ea9b4512" y="174.884978"/>
      </g>
     </g>
    </g>
    <g id="ytick_16">
     <g id="line2d_37">
      <g>
       <use style="stroke:#000000;stroke-width:0.6;" x="227.78" xlink:href="#m89ea9b4512" y="163.561875"/>
      </g>
     </g>
    </g>
    <g id="ytick_17">
     <g id="line2d_38">
      <g>
       <use style="stroke:#000000;stroke-width:0.6;" x="227.78" xlink:href="#m89ea9b4512" y="152.238772"/>
      </g>
     </g>
    </g>
    <g id="ytick_18">
     <g id="line2d_39">
      <g>
       <use style="stroke:#000000;stroke-width:0.6;" x="227.78" xlink:href="#m89ea9b4512" y="129.592566"/>
      </g>
     </g>
    </g>
    <g id="ytick_19">
     <g id="line2d_40">
      <g>
       <use style="stroke:#000000;stroke-width:0.6;" x="227.78" xlink:href="#m89ea9b4512" y="118.269464"/>
      </g>
     </g>
    </g>
    <g id="ytick_20">
     <g id="line2d_41">
      <g>
       <use style="stroke:#000000;stroke-width:0.6;" x="227.78" xlink:href="#m89ea9b4512" y="106.946361"/>
      </g>
     </g>
    </g>
    <g id="ytick_21">
     <g id="line2d_42">
      <g>
       <use style="stroke:#000000;stroke-width:0.6;" x="227.78" xlink:href="#m89ea9b4512" y="95.623258"/>
      </g>
     </g>
    </g>
    <g id="ytick_22">
     <g id="line2d_43">
      <g>
       <use style="stroke:#000000;stroke-width:0.6;" x="227.78" xlink:href="#m89ea9b4512" y="72.977052"/>
      </g>
     </g>
    </g>
    <g id="ytick_23">
     <g id="line2d_44">
      <g>
       <use style="stroke:#000000;stroke-width:0.6;" x="227.78" xlink:href="#m89ea9b4512" y="61.65395"/>
      </g>
     </g>
    </g>
    <g id="ytick_24">
     <g id="line2d_45">
      <g>
       <use style="stroke:#000000;stroke-width:0.6;" x="227.78" xlink:href="#m89ea9b4512" y="50.330847"/>
      </g>
     </g>
    </g>
    <g id="ytick_25">
     <g id="line2d_46">
      <g>
       <use style="stroke:#000000;stroke-width:0.6;" x="227.78" xlink:href="#m89ea9b4512" y="39.007744"/>
      </g>
     </g>
    </g>
    <g id="ytick_26">
     <g id="line2d_47">
      <g>
       <use style="stroke:#000000;stroke-width:0.6;" x="227.78" xlink:href="#m89ea9b4512" y="16.361538"/>
      </g>
     </g>
    </g>
   </g>
   <g id="line2d_48">
    <path clip-path="url(#p2b28b2553c)" d="M 19.049231 16.361538 
L 26.403091 35.956562 
L 33.785586 54.921036 
L 40.449673 71.43184 
L 47.372481 87.97251 
L 53.725739 102.604332 
L 60.02256 116.588634 
L 66.288458 129.992814 
L 72.998145 143.780693 
L 79.904184 157.361114 
L 85.526098 167.958748 
L 91.06823 178.003983 
L 96.364792 187.231123 
L 102.208259 196.988075 
L 107.83077 205.957227 
L 112.856503 213.626683 
L 119.114099 222.717256 
L 124.463204 230.084652 
L 130.351097 237.764253 
L 134.442044 242.834853 
L 139.884324 249.243291 
L 144.787204 254.68702 
L 149.86411 259.994779 
L 154.478458 264.528394 
L 159.461651 269.11366 
L 164.640042 273.536644 
L 169.068194 277.042441 
L 174.212738 280.795438 
L 178.360463 283.570828 
L 182.57981 286.164766 
L 186.89434 288.57799 
L 190.285793 290.305112 
L 194.927598 292.426707 
L 199.74938 294.334083 
L 203.954893 295.751012 
L 207.67058 296.811676 
L 211.784396 297.776715 
L 215.281793 298.424197 
L 219.783235 299.023618 
L 224.368534 299.363492 
L 228.830629 299.431936 
L 232.714554 299.2809 
L 236.840763 298.905697 
L 241.061549 298.292989 
L 244.522842 297.617769 
L 249.286064 296.43404 
L 253.517413 295.135207 
L 257.363304 293.75286 
L 261.763937 291.935332 
L 265.939763 289.97796 
L 270.247328 287.721408 
L 274.295023 285.381256 
L 279.423913 282.110217 
L 284.259103 278.713461 
L 289.630418 274.583878 
L 294.109339 270.853736 
L 298.919386 266.557523 
L 304.3408 261.354856 
L 309.388914 256.167034 
L 314.015311 251.121795 
L 319.224571 245.108025 
L 324.600878 238.53164 
L 329.54327 232.154672 
L 334.586286 225.32069 
L 340.0591 217.530347 
L 344.993652 210.172527 
L 350.893178 200.96057 
L 355.476436 193.491767 
L 361.93922 182.496289 
L 368.19614 171.333964 
L 374.430841 159.705257 
L 380.98545 146.935211 
L 387.478399 133.734862 
L 393.306752 121.419067 
L 400.089056 106.531783 
L 406.681662 91.48799 
L 413.386429 75.60898 
L 420.098445 59.127699 
L 427.223159 40.992523 
L 433.795813 23.677613 
L 436.510769 16.361538 
L 436.510769 16.361538 
" style="fill:none;stroke:#0000ff;stroke-linecap:square;"/>
   </g>
   <g id="patch_3">
    <path d="M 227.78 305.1 
L 227.78 10.7 
" style="fill:none;stroke:#000000;stroke-linecap:square;stroke-linejoin:miter;stroke-width:0.8;"/>
   </g>
   <g id="patch_4">
    <path d="M 10.7 315.1 
L 444.86 315.1 
" style="fill:none;stroke:#000000;stroke-linecap:square;stroke-linejoin:miter;stroke-width:0.8;"/>
   </g>
  </g>
 </g>
 <defs>
  <clipPath id="p2b28b2553c">
   <rect height="294.4" width="434.16" x="10.7" y="10.7"/>
  </clipPath>
 </defs>
</svg>
