<?xml version="1.0" encoding="utf-8" standalone="no"?>
<!DOCTYPE svg PUBLIC "-//W3C//DTD SVG 1.1//EN"
  "http://www.w3.org/Graphics/SVG/1.1/DTD/svg11.dtd">
<!-- Created with matplotlib (http://matplotlib.org/) -->
<svg height="340.36pt" version="1.1" viewBox="0 0 366.12351 340.36" width="366.12351pt" xmlns="http://www.w3.org/2000/svg" xmlns:xlink="http://www.w3.org/1999/xlink">
 <defs>
  <style type="text/css">
*{stroke-linecap:butt;stroke-linejoin:round;}
  </style>
 </defs>
 <g id="figure_1">
  <g id="patch_1">
   <path d="M 0 340.36 
L 366.12351 340.36 
L 366.12351 0 
L 0 0 
z
" style="fill:#ffffff;"/>
  </g>
  <g id="axes_1">
   <g id="patch_2">
    <path d="M 10.7 329.66 
L 355.42351 329.66 
L 355.42351 10.7 
L 10.7 10.7 
z
" style="fill:#ffffff;"/>
   </g>
   <g id="patch_3">
    <path clip-path="url(#pd24f01b2b1)" d="M 179.606294 36.258643 
Q 128.562305 175.189871 35.198447 287.143603 
" style="fill:none;stroke:#000000;stroke-linecap:round;stroke-width:2;"/>
    <path clip-path="url(#pd24f01b2b1)" d="M 45.443028 282.666042 
L 35.198447 287.143603 
L 37.763146 276.261401 
L 45.443028 282.666042 
z
" style="stroke:#000000;stroke-linecap:round;stroke-width:2;"/>
   </g>
   <g id="patch_4">
    <path clip-path="url(#pd24f01b2b1)" d="M 176.64447 34.548633 
Q 81.848491 148.219638 31.575644 285.051977 
" style="fill:none;stroke:#000000;stroke-linecap:round;stroke-width:2;"/>
    <path clip-path="url(#pd24f01b2b1)" d="M 39.717558 277.389781 
L 31.575644 285.051977 
L 30.331036 273.941129 
L 39.717558 277.389781 
z
" style="stroke:#000000;stroke-linecap:round;stroke-width:2;"/>
   </g>
   <g id="patch_5">
    <path clip-path="url(#pd24f01b2b1)" d="M 189.47904 34.548633 
Q 284.275019 148.219638 334.547865 285.051977 
" style="fill:none;stroke:#000000;stroke-linecap:round;stroke-width:2;"/>
    <path clip-path="url(#pd24f01b2b1)" d="M 335.792474 273.941129 
L 334.547865 285.051977 
L 326.405952 277.389781 
L 335.792474 273.941129 
z
" style="stroke:#000000;stroke-linecap:round;stroke-width:2;"/>
   </g>
   <g id="patch_6">
    <path clip-path="url(#pd24f01b2b1)" d="M 187.288358 38.357533 
Q 237.561205 175.189871 332.357184 288.860877 
" style="fill:none;stroke:#000000;stroke-linecap:round;stroke-width:2;"/>
    <path clip-path="url(#pd24f01b2b1)" d="M 186.04375 49.468381 
L 187.288358 38.357533 
L 195.430272 46.019729 
L 186.04375 49.468381 
z
" style="stroke:#000000;stroke-linecap:round;stroke-width:2;"/>
   </g>
   <g id="patch_7">
    <path clip-path="url(#pd24f01b2b1)" d="M 37.221787 294.845911 
Q 183.061755 269.585687 326.69846 294.464295 
" style="fill:none;stroke:#000000;stroke-linecap:round;stroke-width:2;"/>
    <path clip-path="url(#pd24f01b2b1)" d="M 317.698487 287.831008 
L 326.69846 294.464295 
L 315.991847 297.684301 
L 317.698487 287.831008 
z
" style="stroke:#000000;stroke-linecap:round;stroke-width:2;"/>
   </g>
   <g id="patch_8">
    <path clip-path="url(#pd24f01b2b1)" d="M 39.42505 298.647547 
Q 183.061755 323.526154 328.901723 298.26593 
" style="fill:none;stroke:#000000;stroke-linecap:round;stroke-width:2;"/>
    <path clip-path="url(#pd24f01b2b1)" d="M 48.425023 305.280834 
L 39.42505 298.647547 
L 50.131663 295.427541 
L 48.425023 305.280834 
z
" style="stroke:#000000;stroke-linecap:round;stroke-width:2;"/>
   </g>
   <g id="matplotlib.axis_1"/>
   <g id="matplotlib.axis_2"/>
   <g id="patch_9">
    <path clip-path="url(#pd24f01b2b1)" d="M 189.18966 37.467432 
Q 260.918112 161.704755 333.764597 287.878569 
" style="fill:none;stroke:#000000;stroke-linecap:round;stroke-width:2;"/>
    <path clip-path="url(#pd24f01b2b1)" d="M 189.859533 48.627686 
L 189.18966 37.467432 
L 198.519787 43.627686 
L 189.859533 48.627686 
z
" style="stroke:#000000;stroke-linecap:round;stroke-width:2;"/>
   </g>
   <g id="patch_10">
    <path d="M 183.061755 36.873332 
C 185.719022 36.873332 188.267812 35.817588 190.146783 33.938617 
C 192.025754 32.059646 193.081498 29.510856 193.081498 26.853589 
C 193.081498 24.196322 192.025754 21.647532 190.146783 19.768561 
C 188.267812 17.889589 185.719022 16.833846 183.061755 16.833846 
C 180.404488 16.833846 177.855698 17.889589 175.976727 19.768561 
C 174.097755 21.647532 173.042012 24.196322 173.042012 26.853589 
C 173.042012 29.510856 174.097755 32.059646 175.976727 33.938617 
C 177.855698 35.817588 180.404488 36.873332 183.061755 36.873332 
z
" style="fill:#0000ff;stroke:#000000;stroke-linejoin:miter;"/>
   </g>
   <g id="patch_11">
    <path d="M 27.349041 306.575663 
C 30.006308 306.575663 32.555098 305.51992 34.434069 303.640949 
C 36.313041 301.761977 37.368784 299.213188 37.368784 296.555921 
C 37.368784 293.898654 36.313041 291.349864 34.434069 289.470893 
C 32.555098 287.591921 30.006308 286.536178 27.349041 286.536178 
C 24.691774 286.536178 22.142984 287.591921 20.264013 289.470893 
C 18.385042 291.349864 17.329298 293.898654 17.329298 296.555921 
C 17.329298 299.213188 18.385042 301.761977 20.264013 303.640949 
C 22.142984 305.51992 24.691774 306.575663 27.349041 306.575663 
z
" style="fill:#0000ff;stroke:#000000;stroke-linejoin:miter;"/>
   </g>
   <g id="patch_12">
    <path d="M 338.774469 306.575663 
C 341.431736 306.575663 343.980525 305.51992 345.859497 303.640949 
C 347.738468 301.761977 348.794211 299.213188 348.794211 296.555921 
C 348.794211 293.898654 347.738468 291.349864 345.859497 289.470893 
C 343.980525 287.591921 341.431736 286.536178 338.774469 286.536178 
C 336.117202 286.536178 333.568412 287.591921 331.689441 289.470893 
C 329.810469 291.349864 328.754726 293.898654 328.754726 296.555921 
C 328.754726 299.213188 329.810469 301.761977 331.689441 303.640949 
C 333.568412 305.51992 336.117202 306.575663 338.774469 306.575663 
z
" style="fill:#0000ff;stroke:#000000;stroke-linejoin:miter;"/>
   </g>
   <g id="text_1">
    <!-- 1 -->
    <defs>
     <path d="M 12.40625 8.296875 
L 28.515625 8.296875 
L 28.515625 63.921875 
L 10.984375 60.40625 
L 10.984375 69.390625 
L 28.421875 72.90625 
L 38.28125 72.90625 
L 38.28125 8.296875 
L 54.390625 8.296875 
L 54.390625 0 
L 12.40625 0 
z
" id="DejaVuSans-31"/>
    </defs>
    <g transform="translate(179.880505 29.612964)scale(0.1 -0.1)">
     <use xlink:href="#DejaVuSans-31"/>
    </g>
   </g>
   <g id="text_2">
    <!-- 2 -->
    <defs>
     <path d="M 19.1875 8.296875 
L 53.609375 8.296875 
L 53.609375 0 
L 7.328125 0 
L 7.328125 8.296875 
Q 12.9375 14.109375 22.625 23.890625 
Q 32.328125 33.6875 34.8125 36.53125 
Q 39.546875 41.84375 41.421875 45.53125 
Q 43.3125 49.21875 43.3125 52.78125 
Q 43.3125 58.59375 39.234375 62.25 
Q 35.15625 65.921875 28.609375 65.921875 
Q 23.96875 65.921875 18.8125 64.3125 
Q 13.671875 62.703125 7.8125 59.421875 
L 7.8125 69.390625 
Q 13.765625 71.78125 18.9375 73 
Q 24.125 74.21875 28.421875 74.21875 
Q 39.75 74.21875 46.484375 68.546875 
Q 53.21875 62.890625 53.21875 53.421875 
Q 53.21875 48.921875 51.53125 44.890625 
Q 49.859375 40.875 45.40625 35.40625 
Q 44.1875 33.984375 37.640625 27.21875 
Q 31.109375 20.453125 19.1875 8.296875 
z
" id="DejaVuSans-32"/>
    </defs>
    <g transform="translate(24.167791 299.315296)scale(0.1 -0.1)">
     <use xlink:href="#DejaVuSans-32"/>
    </g>
   </g>
   <g id="text_3">
    <!-- 3 -->
    <defs>
     <path d="M 40.578125 39.3125 
Q 47.65625 37.796875 51.625 33 
Q 55.609375 28.21875 55.609375 21.1875 
Q 55.609375 10.40625 48.1875 4.484375 
Q 40.765625 -1.421875 27.09375 -1.421875 
Q 22.515625 -1.421875 17.65625 -0.515625 
Q 12.796875 0.390625 7.625 2.203125 
L 7.625 11.71875 
Q 11.71875 9.328125 16.59375 8.109375 
Q 21.484375 6.890625 26.8125 6.890625 
Q 36.078125 6.890625 40.9375 10.546875 
Q 45.796875 14.203125 45.796875 21.1875 
Q 45.796875 27.640625 41.28125 31.265625 
Q 36.765625 34.90625 28.71875 34.90625 
L 20.21875 34.90625 
L 20.21875 43.015625 
L 29.109375 43.015625 
Q 36.375 43.015625 40.234375 45.921875 
Q 44.09375 48.828125 44.09375 54.296875 
Q 44.09375 59.90625 40.109375 62.90625 
Q 36.140625 65.921875 28.71875 65.921875 
Q 24.65625 65.921875 20.015625 65.03125 
Q 15.375 64.15625 9.8125 62.3125 
L 9.8125 71.09375 
Q 15.4375 72.65625 20.34375 73.4375 
Q 25.25 74.21875 29.59375 74.21875 
Q 40.828125 74.21875 47.359375 69.109375 
Q 53.90625 64.015625 53.90625 55.328125 
Q 53.90625 49.265625 50.4375 45.09375 
Q 46.96875 40.921875 40.578125 39.3125 
z
" id="DejaVuSans-33"/>
    </defs>
    <g transform="translate(335.593219 299.315296)scale(0.1 -0.1)">
     <use xlink:href="#DejaVuSans-33"/>
    </g>
   </g>
  </g>
 </g>
 <defs>
  <clipPath id="pd24f01b2b1">
   <rect height="318.96" width="344.72351" x="10.7" y="10.7"/>
  </clipPath>
 </defs>
</svg>
