<?xml version="1.0" encoding="utf-8" standalone="no"?>
<!DOCTYPE svg PUBLIC "-//W3C//DTD SVG 1.1//EN"
  "http://www.w3.org/Graphics/SVG/1.1/DTD/svg11.dtd">
<!-- Created with matplotlib (http://matplotlib.org/) -->
<svg height="340.36pt" version="1.1" viewBox="0 0 392.328982 340.36" width="392.328982pt" xmlns="http://www.w3.org/2000/svg" xmlns:xlink="http://www.w3.org/1999/xlink">
 <defs>
  <style type="text/css">
*{stroke-linecap:butt;stroke-linejoin:round;}
  </style>
 </defs>
 <g id="figure_1">
  <g id="patch_1">
   <path d="M 0 340.36 
L 392.328982 340.36 
L 392.328982 0 
L 0 0 
z
" style="fill:#ffffff;"/>
  </g>
  <g id="axes_1">
   <g id="patch_2">
    <path d="M 10.7 329.66 
L 381.628982 329.66 
L 381.628982 10.7 
L 10.7 10.7 
z
" style="fill:#ffffff;"/>
   </g>
   <g id="matplotlib.axis_1">
    <g id="xtick_1">
     <g id="line2d_1">
      <defs>
       <path d="M 0 0 
L 0 3.5 
" id="mce56220082" style="stroke:#000000;stroke-width:0.8;"/>
      </defs>
      <g>
       <use style="stroke:#000000;stroke-width:0.8;" x="90.273322" xlink:href="#mce56220082" y="144.895679"/>
      </g>
     </g>
     <g id="text_1">
      <!-- -5 -->
      <defs>
       <path d="M 4.890625 31.390625 
L 31.203125 31.390625 
L 31.203125 23.390625 
L 4.890625 23.390625 
z
" id="DejaVuSans-2d"/>
       <path d="M 10.796875 72.90625 
L 49.515625 72.90625 
L 49.515625 64.59375 
L 19.828125 64.59375 
L 19.828125 46.734375 
Q 21.96875 47.46875 24.109375 47.828125 
Q 26.265625 48.1875 28.421875 48.1875 
Q 40.625 48.1875 47.75 41.5 
Q 54.890625 34.8125 54.890625 23.390625 
Q 54.890625 11.625 47.5625 5.09375 
Q 40.234375 -1.421875 26.90625 -1.421875 
Q 22.3125 -1.421875 17.546875 -0.640625 
Q 12.796875 0.140625 7.71875 1.703125 
L 7.71875 11.625 
Q 12.109375 9.234375 16.796875 8.0625 
Q 21.484375 6.890625 26.703125 6.890625 
Q 35.15625 6.890625 40.078125 11.328125 
Q 45.015625 15.765625 45.015625 23.390625 
Q 45.015625 31 40.078125 35.4375 
Q 35.15625 39.890625 26.703125 39.890625 
Q 22.75 39.890625 18.8125 39.015625 
Q 14.890625 38.140625 10.796875 36.28125 
z
" id="DejaVuSans-35"/>
      </defs>
      <g transform="translate(85.288166 159.494117)scale(0.1 -0.1)">
       <use xlink:href="#DejaVuSans-2d"/>
       <use x="36.083984" xlink:href="#DejaVuSans-35"/>
      </g>
     </g>
    </g>
    <g id="xtick_2">
     <g id="line2d_2">
      <g>
       <use style="stroke:#000000;stroke-width:0.8;" x="171.172904" xlink:href="#mce56220082" y="144.895679"/>
      </g>
     </g>
    </g>
    <g id="xtick_3">
     <g id="line2d_3">
      <g>
       <use style="stroke:#000000;stroke-width:0.8;" x="252.072487" xlink:href="#mce56220082" y="144.895679"/>
      </g>
     </g>
     <g id="text_2">
      <!-- 5 -->
      <g transform="translate(248.891237 159.494117)scale(0.1 -0.1)">
       <use xlink:href="#DejaVuSans-35"/>
      </g>
     </g>
    </g>
    <g id="xtick_4">
     <g id="line2d_4">
      <g>
       <use style="stroke:#000000;stroke-width:0.8;" x="332.97207" xlink:href="#mce56220082" y="144.895679"/>
      </g>
     </g>
     <g id="text_3">
      <!-- 10 -->
      <defs>
       <path d="M 12.40625 8.296875 
L 28.515625 8.296875 
L 28.515625 63.921875 
L 10.984375 60.40625 
L 10.984375 69.390625 
L 28.421875 72.90625 
L 38.28125 72.90625 
L 38.28125 8.296875 
L 54.390625 8.296875 
L 54.390625 0 
L 12.40625 0 
z
" id="DejaVuSans-31"/>
       <path d="M 31.78125 66.40625 
Q 24.171875 66.40625 20.328125 58.90625 
Q 16.5 51.421875 16.5 36.375 
Q 16.5 21.390625 20.328125 13.890625 
Q 24.171875 6.390625 31.78125 6.390625 
Q 39.453125 6.390625 43.28125 13.890625 
Q 47.125 21.390625 47.125 36.375 
Q 47.125 51.421875 43.28125 58.90625 
Q 39.453125 66.40625 31.78125 66.40625 
z
M 31.78125 74.21875 
Q 44.046875 74.21875 50.515625 64.515625 
Q 56.984375 54.828125 56.984375 36.375 
Q 56.984375 17.96875 50.515625 8.265625 
Q 44.046875 -1.421875 31.78125 -1.421875 
Q 19.53125 -1.421875 13.0625 8.265625 
Q 6.59375 17.96875 6.59375 36.375 
Q 6.59375 54.828125 13.0625 64.515625 
Q 19.53125 74.21875 31.78125 74.21875 
z
" id="DejaVuSans-30"/>
      </defs>
      <g transform="translate(326.60957 159.494117)scale(0.1 -0.1)">
       <use xlink:href="#DejaVuSans-31"/>
       <use x="63.623047" xlink:href="#DejaVuSans-30"/>
      </g>
     </g>
    </g>
    <g id="xtick_5">
     <g id="line2d_5">
      <defs>
       <path d="M 0 0 
L 0 2 
" id="m66af787dbd" style="stroke:#000000;stroke-width:0.6;"/>
      </defs>
      <g>
       <use style="stroke:#000000;stroke-width:0.6;" x="25.553656" xlink:href="#m66af787dbd" y="144.895679"/>
      </g>
     </g>
    </g>
    <g id="xtick_6">
     <g id="line2d_6">
      <g>
       <use style="stroke:#000000;stroke-width:0.6;" x="41.733572" xlink:href="#m66af787dbd" y="144.895679"/>
      </g>
     </g>
    </g>
    <g id="xtick_7">
     <g id="line2d_7">
      <g>
       <use style="stroke:#000000;stroke-width:0.6;" x="57.913489" xlink:href="#m66af787dbd" y="144.895679"/>
      </g>
     </g>
    </g>
    <g id="xtick_8">
     <g id="line2d_8">
      <g>
       <use style="stroke:#000000;stroke-width:0.6;" x="74.093405" xlink:href="#m66af787dbd" y="144.895679"/>
      </g>
     </g>
    </g>
    <g id="xtick_9">
     <g id="line2d_9">
      <g>
       <use style="stroke:#000000;stroke-width:0.6;" x="106.453238" xlink:href="#m66af787dbd" y="144.895679"/>
      </g>
     </g>
    </g>
    <g id="xtick_10">
     <g id="line2d_10">
      <g>
       <use style="stroke:#000000;stroke-width:0.6;" x="122.633155" xlink:href="#m66af787dbd" y="144.895679"/>
      </g>
     </g>
    </g>
    <g id="xtick_11">
     <g id="line2d_11">
      <g>
       <use style="stroke:#000000;stroke-width:0.6;" x="138.813071" xlink:href="#m66af787dbd" y="144.895679"/>
      </g>
     </g>
    </g>
    <g id="xtick_12">
     <g id="line2d_12">
      <g>
       <use style="stroke:#000000;stroke-width:0.6;" x="154.992988" xlink:href="#m66af787dbd" y="144.895679"/>
      </g>
     </g>
    </g>
    <g id="xtick_13">
     <g id="line2d_13">
      <g>
       <use style="stroke:#000000;stroke-width:0.6;" x="187.352821" xlink:href="#m66af787dbd" y="144.895679"/>
      </g>
     </g>
    </g>
    <g id="xtick_14">
     <g id="line2d_14">
      <g>
       <use style="stroke:#000000;stroke-width:0.6;" x="203.532738" xlink:href="#m66af787dbd" y="144.895679"/>
      </g>
     </g>
    </g>
    <g id="xtick_15">
     <g id="line2d_15">
      <g>
       <use style="stroke:#000000;stroke-width:0.6;" x="219.712654" xlink:href="#m66af787dbd" y="144.895679"/>
      </g>
     </g>
    </g>
    <g id="xtick_16">
     <g id="line2d_16">
      <g>
       <use style="stroke:#000000;stroke-width:0.6;" x="235.892571" xlink:href="#m66af787dbd" y="144.895679"/>
      </g>
     </g>
    </g>
    <g id="xtick_17">
     <g id="line2d_17">
      <g>
       <use style="stroke:#000000;stroke-width:0.6;" x="268.252404" xlink:href="#m66af787dbd" y="144.895679"/>
      </g>
     </g>
    </g>
    <g id="xtick_18">
     <g id="line2d_18">
      <g>
       <use style="stroke:#000000;stroke-width:0.6;" x="284.43232" xlink:href="#m66af787dbd" y="144.895679"/>
      </g>
     </g>
    </g>
    <g id="xtick_19">
     <g id="line2d_19">
      <g>
       <use style="stroke:#000000;stroke-width:0.6;" x="300.612237" xlink:href="#m66af787dbd" y="144.895679"/>
      </g>
     </g>
    </g>
    <g id="xtick_20">
     <g id="line2d_20">
      <g>
       <use style="stroke:#000000;stroke-width:0.6;" x="316.792153" xlink:href="#m66af787dbd" y="144.895679"/>
      </g>
     </g>
    </g>
    <g id="xtick_21">
     <g id="line2d_21">
      <g>
       <use style="stroke:#000000;stroke-width:0.6;" x="349.151986" xlink:href="#m66af787dbd" y="144.895679"/>
      </g>
     </g>
    </g>
    <g id="xtick_22">
     <g id="line2d_22">
      <g>
       <use style="stroke:#000000;stroke-width:0.6;" x="365.331903" xlink:href="#m66af787dbd" y="144.895679"/>
      </g>
     </g>
    </g>
    <g id="xtick_23">
     <g id="line2d_23">
      <g>
       <use style="stroke:#000000;stroke-width:0.6;" x="381.511819" xlink:href="#m66af787dbd" y="144.895679"/>
      </g>
     </g>
    </g>
   </g>
   <g id="matplotlib.axis_2">
    <g id="ytick_1">
     <g id="line2d_24">
      <defs>
       <path d="M 0 0 
L -3.5 0 
" id="mcc9e016724" style="stroke:#000000;stroke-width:0.8;"/>
      </defs>
      <g>
       <use style="stroke:#000000;stroke-width:0.8;" x="171.172904" xlink:href="#mcc9e016724" y="306.694845"/>
      </g>
     </g>
     <g id="text_4">
      <!-- -10 -->
      <g transform="translate(147.840092 310.494063)scale(0.1 -0.1)">
       <use xlink:href="#DejaVuSans-2d"/>
       <use x="36.083984" xlink:href="#DejaVuSans-31"/>
       <use x="99.707031" xlink:href="#DejaVuSans-30"/>
      </g>
     </g>
    </g>
    <g id="ytick_2">
     <g id="line2d_25">
      <g>
       <use style="stroke:#000000;stroke-width:0.8;" x="171.172904" xlink:href="#mcc9e016724" y="225.795262"/>
      </g>
     </g>
     <g id="text_5">
      <!-- -5 -->
      <g transform="translate(154.202592 229.594481)scale(0.1 -0.1)">
       <use xlink:href="#DejaVuSans-2d"/>
       <use x="36.083984" xlink:href="#DejaVuSans-35"/>
      </g>
     </g>
    </g>
    <g id="ytick_3">
     <g id="line2d_26">
      <g>
       <use style="stroke:#000000;stroke-width:0.8;" x="171.172904" xlink:href="#mcc9e016724" y="144.895679"/>
      </g>
     </g>
    </g>
    <g id="ytick_4">
     <g id="line2d_27">
      <g>
       <use style="stroke:#000000;stroke-width:0.8;" x="171.172904" xlink:href="#mcc9e016724" y="63.996097"/>
      </g>
     </g>
     <g id="text_6">
      <!-- 5 -->
      <g transform="translate(157.810404 67.795316)scale(0.1 -0.1)">
       <use xlink:href="#DejaVuSans-35"/>
      </g>
     </g>
    </g>
    <g id="ytick_5">
     <g id="line2d_28">
      <defs>
       <path d="M 0 0 
L -2 0 
" id="m59d28e38ee" style="stroke:#000000;stroke-width:0.6;"/>
      </defs>
      <g>
       <use style="stroke:#000000;stroke-width:0.6;" x="171.172904" xlink:href="#m59d28e38ee" y="322.874761"/>
      </g>
     </g>
    </g>
    <g id="ytick_6">
     <g id="line2d_29">
      <g>
       <use style="stroke:#000000;stroke-width:0.6;" x="171.172904" xlink:href="#m59d28e38ee" y="290.514928"/>
      </g>
     </g>
    </g>
    <g id="ytick_7">
     <g id="line2d_30">
      <g>
       <use style="stroke:#000000;stroke-width:0.6;" x="171.172904" xlink:href="#m59d28e38ee" y="274.335012"/>
      </g>
     </g>
    </g>
    <g id="ytick_8">
     <g id="line2d_31">
      <g>
       <use style="stroke:#000000;stroke-width:0.6;" x="171.172904" xlink:href="#m59d28e38ee" y="258.155095"/>
      </g>
     </g>
    </g>
    <g id="ytick_9">
     <g id="line2d_32">
      <g>
       <use style="stroke:#000000;stroke-width:0.6;" x="171.172904" xlink:href="#m59d28e38ee" y="241.975179"/>
      </g>
     </g>
    </g>
    <g id="ytick_10">
     <g id="line2d_33">
      <g>
       <use style="stroke:#000000;stroke-width:0.6;" x="171.172904" xlink:href="#m59d28e38ee" y="209.615345"/>
      </g>
     </g>
    </g>
    <g id="ytick_11">
     <g id="line2d_34">
      <g>
       <use style="stroke:#000000;stroke-width:0.6;" x="171.172904" xlink:href="#m59d28e38ee" y="193.435429"/>
      </g>
     </g>
    </g>
    <g id="ytick_12">
     <g id="line2d_35">
      <g>
       <use style="stroke:#000000;stroke-width:0.6;" x="171.172904" xlink:href="#m59d28e38ee" y="177.255512"/>
      </g>
     </g>
    </g>
    <g id="ytick_13">
     <g id="line2d_36">
      <g>
       <use style="stroke:#000000;stroke-width:0.6;" x="171.172904" xlink:href="#m59d28e38ee" y="161.075596"/>
      </g>
     </g>
    </g>
    <g id="ytick_14">
     <g id="line2d_37">
      <g>
       <use style="stroke:#000000;stroke-width:0.6;" x="171.172904" xlink:href="#m59d28e38ee" y="128.715763"/>
      </g>
     </g>
    </g>
    <g id="ytick_15">
     <g id="line2d_38">
      <g>
       <use style="stroke:#000000;stroke-width:0.6;" x="171.172904" xlink:href="#m59d28e38ee" y="112.535846"/>
      </g>
     </g>
    </g>
    <g id="ytick_16">
     <g id="line2d_39">
      <g>
       <use style="stroke:#000000;stroke-width:0.6;" x="171.172904" xlink:href="#m59d28e38ee" y="96.35593"/>
      </g>
     </g>
    </g>
    <g id="ytick_17">
     <g id="line2d_40">
      <g>
       <use style="stroke:#000000;stroke-width:0.6;" x="171.172904" xlink:href="#m59d28e38ee" y="80.176013"/>
      </g>
     </g>
    </g>
    <g id="ytick_18">
     <g id="line2d_41">
      <g>
       <use style="stroke:#000000;stroke-width:0.6;" x="171.172904" xlink:href="#m59d28e38ee" y="47.81618"/>
      </g>
     </g>
    </g>
    <g id="ytick_19">
     <g id="line2d_42">
      <g>
       <use style="stroke:#000000;stroke-width:0.6;" x="171.172904" xlink:href="#m59d28e38ee" y="31.636264"/>
      </g>
     </g>
    </g>
    <g id="ytick_20">
     <g id="line2d_43">
      <g>
       <use style="stroke:#000000;stroke-width:0.6;" x="171.172904" xlink:href="#m59d28e38ee" y="15.456347"/>
      </g>
     </g>
    </g>
   </g>
   <g id="line2d_44">
    <path clip-path="url(#p565484f549)" d="M 171.172904 144.895679 
L 171.856981 144.866714 
L 173.896523 144.425854 
L 175.578599 143.61149 
L 176.949293 142.553306 
L 178.000379 141.39017 
L 178.975352 139.845753 
L 179.665373 138.17811 
L 180.073001 136.502809 
L 180.250002 134.537557 
L 180.187558 133.017842 
L 179.831719 130.919894 
L 179.300043 129.178812 
L 178.48224 127.31405 
L 177.454016 125.555644 
L 176.220231 123.894583 
L 174.956301 122.506256 
L 172.803926 120.620538 
L 170.904868 119.31222 
L 168.741443 118.12499 
L 166.360672 117.118559 
L 164.463527 116.507312 
L 161.43178 115.83628 
L 160.1746 115.658952 
L 158.054751 115.484987 
L 154.966245 115.499523 
L 150.880023 115.988831 
L 148.562614 116.50218 
L 145.556285 117.428019 
L 143.051895 118.432856 
L 139.670834 120.151926 
L 138.14039 121.078877 
L 135.918739 122.607255 
L 133.985804 124.131886 
L 132.266471 125.660519 
L 129.400411 128.636988 
L 127.137011 131.461117 
L 125.538503 133.786676 
L 124.06803 136.246111 
L 122.720707 138.862595 
L 121.348937 142.04361 
L 119.973096 146.109411 
L 119.241482 148.94188 
L 118.608509 152.22876 
L 118.12859 156.29068 
L 117.97518 159.511322 
L 117.994502 162.135403 
L 118.234684 165.796292 
L 118.673596 169.161342 
L 119.5218 173.381237 
L 120.457836 176.801596 
L 121.800488 180.684156 
L 123.214332 184.042422 
L 124.762562 187.183777 
L 127.14189 191.288104 
L 128.748668 193.703722 
L 131.161854 196.931773 
L 133.515724 199.715051 
L 136.662631 202.992326 
L 140.199344 206.189713 
L 142.271396 207.863492 
L 145.724366 210.37225 
L 148.850509 212.376572 
L 152.115836 214.230472 
L 156.282835 216.277911 
L 159.582609 217.669113 
L 163.667806 219.133154 
L 168.47103 220.51563 
L 172.156587 221.343592 
L 175.757081 221.966773 
L 179.417597 222.418867 
L 183.988261 222.734016 
L 187.180142 222.793252 
L 192.410666 222.608346 
L 196.725467 222.193395 
L 201.550126 221.446997 
L 207.909593 219.998996 
L 213.870519 218.144805 
L 217.016014 216.963384 
L 220.133609 215.6474 
L 223.329158 214.141933 
L 227.801684 211.752648 
L 231.993701 209.190962 
L 236.073362 206.368761 
L 240.357964 203.014233 
L 244.842428 199.012723 
L 247.879267 195.973311 
L 251.097829 192.412239 
L 254.122533 188.691587 
L 257.316973 184.285122 
L 260.165452 179.83998 
L 262.817779 175.134451 
L 265.21947 170.241468 
L 266.556572 167.168998 
L 268.233536 162.83436 
L 269.712148 158.391489 
L 270.959533 153.952956 
L 272.114847 148.892807 
L 273.063715 143.379981 
L 273.629507 138.647081 
L 273.998521 133.322487 
L 274.089935 128.060458 
L 273.973375 123.930534 
L 273.615075 118.968837 
L 273.096373 114.560974 
L 272.181977 109.060109 
L 271.172465 104.403982 
L 269.769758 99.157555 
L 267.981248 93.639988 
L 266.332552 89.282706 
L 264.518559 85.042212 
L 262.5496 80.924431 
L 259.8968 75.975917 
L 257.185029 71.462325 
L 253.890575 66.5516 
L 250.809287 62.41304 
L 246.474482 57.188252 
L 244.043058 54.514935 
L 240.505378 50.907943 
L 236.791567 47.439059 
L 233.365713 44.493994 
L 229.810364 41.669276 
L 224.824774 38.064931 
L 221.323841 35.759779 
L 216.789409 33.026495 
L 211.13936 29.986676 
L 206.76131 27.888814 
L 200.155567 25.116662 
L 193.291328 22.701992 
L 186.243561 20.68339 
L 185.588774 20.518552 
L 180.312731 19.326724 
L 174.961091 18.359848 
L 170.439227 17.727682 
L 165.87707 17.257792 
L 161.897986 16.983576 
L 157.896921 16.833846 
L 151.957864 16.842644 
L 145.992183 17.128185 
L 140.343223 17.654397 
L 129.653154 19.338519 
L 123.795021 20.651234 
L 118.074874 22.207476 
L 111.464775 24.355027 
L 105.326193 26.698976 
L 99.275504 29.356167 
L 92.857163 32.574631 
L 88.479374 35.021494 
L 84.17647 37.638743 
L 80.736023 39.891929 
L 74.268334 44.545005 
L 68.587846 49.126767 
L 63.123486 54.029114 
L 58.964715 58.128778 
L 54.961297 62.417325 
L 51.520294 66.406927 
L 48.337278 70.381362 
L 45.286328 74.483037 
L 42.017195 79.245455 
L 38.928613 84.156885 
L 35.659993 89.885265 
L 33.194261 94.652091 
L 30.894086 99.531549 
L 28.289734 105.704136 
L 26.053267 111.743558 
L 23.982488 118.20896 
L 22.380409 124.072991 
L 21.089452 129.657906 
L 20.008906 135.310793 
L 19.019236 141.975971 
L 18.464685 147.08328 
L 18.001646 153.762133 
L 17.83325 160.170511 
L 17.949966 167.028953 
L 18.26352 172.511141 
L 18.773808 177.99857 
L 19.574019 184.103679 
L 20.619536 190.196679 
L 21.813791 195.850277 
L 23.407342 202.161994 
L 25.377253 208.767866 
L 27.643195 215.309907 
L 29.666809 220.486087 
L 32.520862 227.010194 
L 35.431303 232.95564 
L 38.176341 238.055517 
L 41.831043 244.237483 
L 45.579179 249.993408 
L 49.377312 255.331877 
L 53.37787 260.503805 
L 57.57215 265.502216 
L 61.400205 269.734928 
L 64.914124 273.374914 
L 68.678466 277.039336 
L 72.538455 280.567124 
L 76.488149 283.956625 
L 80.875882 287.482194 
L 85.72616 291.109314 
L 90.609284 294.496936 
L 95.510856 297.650574 
L 101.956135 301.448777 
L 105.781401 303.527473 
L 109.66763 305.51259 
L 113.612528 307.402371 
L 120.770516 310.524316 
L 127.177751 312.999815 
L 133.591816 315.191447 
L 139.863181 317.068956 
L 142.964531 317.903523 
L 149.226382 319.404362 
L 153.566927 320.303208 
L 157.938768 321.093863 
L 164.826296 322.110338 
L 171.773167 322.856716 
L 178.706441 323.326914 
L 185.67708 323.526154 
L 197.76948 323.226177 
L 210.144921 322.070775 
L 222.998297 319.949822 
L 232.816509 317.68096 
L 237.692398 316.339158 
L 242.540941 314.859585 
L 250.947875 311.94055 
L 259.298292 308.578823 
L 266.375694 305.349702 
L 272.850002 302.073224 
L 280.329537 297.880359 
L 284.252077 295.496401 
L 288.123087 293.011969 
L 295.370389 287.987018 
L 301.521498 283.310112 
L 306.951317 278.837362 
L 312.202229 274.175623 
L 317.489431 269.113587 
L 322.807821 263.606868 
L 328.078386 257.686564 
L 333.269535 251.339268 
L 338.555519 244.261271 
L 341.253275 240.372222 
L 345.513323 233.786045 
L 348.772957 228.319678 
L 351.860925 222.735218 
L 355.281828 215.993458 
L 358.450591 209.103617 
L 360.419879 204.43278 
L 363.118509 197.416535 
L 365.556349 190.281232 
L 367.761646 182.916846 
L 369.457635 176.406349 
L 370.937499 169.824855 
L 372.111148 163.681858 
L 373.095468 157.490072 
L 373.893429 151.211624 
L 374.495732 144.895679 
L 374.495732 144.895679 
" style="fill:none;stroke:#0000ff;stroke-linecap:square;"/>
   </g>
   <g id="patch_3">
    <path d="M 171.172904 329.66 
L 171.172904 10.7 
" style="fill:none;stroke:#000000;stroke-linecap:square;stroke-linejoin:miter;stroke-width:0.8;"/>
   </g>
   <g id="patch_4">
    <path d="M 10.7 144.895679 
L 381.628982 144.895679 
" style="fill:none;stroke:#000000;stroke-linecap:square;stroke-linejoin:miter;stroke-width:0.8;"/>
   </g>
  </g>
 </g>
 <defs>
  <clipPath id="p565484f549">
   <rect height="318.96" width="370.928982" x="10.7" y="10.7"/>
  </clipPath>
 </defs>
</svg>
