<?xml version="1.0" encoding="utf-8" standalone="no"?>
<!DOCTYPE svg PUBLIC "-//W3C//DTD SVG 1.1//EN"
  "http://www.w3.org/Graphics/SVG/1.1/DTD/svg11.dtd">
<!-- Created with matplotlib (http://matplotlib.org/) -->
<svg height="340.36pt" version="1.1" viewBox="0 0 392.292509 340.36" width="392.292509pt" xmlns="http://www.w3.org/2000/svg" xmlns:xlink="http://www.w3.org/1999/xlink">
 <defs>
  <style type="text/css">
*{stroke-linecap:butt;stroke-linejoin:round;}
  </style>
 </defs>
 <g id="figure_1">
  <g id="patch_1">
   <path d="M 0 340.36 
L 392.292509 340.36 
L 392.292509 0 
L 0 0 
z
" style="fill:#ffffff;"/>
  </g>
  <g id="axes_1">
   <g id="patch_2">
    <path d="M 10.7 329.66 
L 381.592509 329.66 
L 381.592509 10.7 
L 10.7 10.7 
z
" style="fill:#ffffff;"/>
   </g>
   <g id="matplotlib.axis_1">
    <g id="xtick_1">
     <g id="line2d_1">
      <defs>
       <path d="M 0 0 
L 0 3.5 
" id="mf5198f2189" style="stroke:#000000;stroke-width:0.8;"/>
      </defs>
      <g>
       <use style="stroke:#000000;stroke-width:0.8;" x="90.261602" xlink:href="#mf5198f2189" y="144.91096"/>
      </g>
     </g>
     <g id="text_1">
      <!-- -5 -->
      <defs>
       <path d="M 4.890625 31.390625 
L 31.203125 31.390625 
L 31.203125 23.390625 
L 4.890625 23.390625 
z
" id="DejaVuSans-2d"/>
       <path d="M 10.796875 72.90625 
L 49.515625 72.90625 
L 49.515625 64.59375 
L 19.828125 64.59375 
L 19.828125 46.734375 
Q 21.96875 47.46875 24.109375 47.828125 
Q 26.265625 48.1875 28.421875 48.1875 
Q 40.625 48.1875 47.75 41.5 
Q 54.890625 34.8125 54.890625 23.390625 
Q 54.890625 11.625 47.5625 5.09375 
Q 40.234375 -1.421875 26.90625 -1.421875 
Q 22.3125 -1.421875 17.546875 -0.640625 
Q 12.796875 0.140625 7.71875 1.703125 
L 7.71875 11.625 
Q 12.109375 9.234375 16.796875 8.0625 
Q 21.484375 6.890625 26.703125 6.890625 
Q 35.15625 6.890625 40.078125 11.328125 
Q 45.015625 15.765625 45.015625 23.390625 
Q 45.015625 31 40.078125 35.4375 
Q 35.15625 39.890625 26.703125 39.890625 
Q 22.75 39.890625 18.8125 39.015625 
Q 14.890625 38.140625 10.796875 36.28125 
z
" id="DejaVuSans-35"/>
      </defs>
      <g transform="translate(85.276446 159.509398)scale(0.1 -0.1)">
       <use xlink:href="#DejaVuSans-2d"/>
       <use x="36.083984" xlink:href="#DejaVuSans-35"/>
      </g>
     </g>
    </g>
    <g id="xtick_2">
     <g id="line2d_2">
      <g>
       <use style="stroke:#000000;stroke-width:0.8;" x="171.154339" xlink:href="#mf5198f2189" y="144.91096"/>
      </g>
     </g>
    </g>
    <g id="xtick_3">
     <g id="line2d_3">
      <g>
       <use style="stroke:#000000;stroke-width:0.8;" x="252.047076" xlink:href="#mf5198f2189" y="144.91096"/>
      </g>
     </g>
     <g id="text_2">
      <!-- 5 -->
      <g transform="translate(248.865826 159.509398)scale(0.1 -0.1)">
       <use xlink:href="#DejaVuSans-35"/>
      </g>
     </g>
    </g>
    <g id="xtick_4">
     <g id="line2d_4">
      <g>
       <use style="stroke:#000000;stroke-width:0.8;" x="332.939812" xlink:href="#mf5198f2189" y="144.91096"/>
      </g>
     </g>
     <g id="text_3">
      <!-- 10 -->
      <defs>
       <path d="M 12.40625 8.296875 
L 28.515625 8.296875 
L 28.515625 63.921875 
L 10.984375 60.40625 
L 10.984375 69.390625 
L 28.421875 72.90625 
L 38.28125 72.90625 
L 38.28125 8.296875 
L 54.390625 8.296875 
L 54.390625 0 
L 12.40625 0 
z
" id="DejaVuSans-31"/>
       <path d="M 31.78125 66.40625 
Q 24.171875 66.40625 20.328125 58.90625 
Q 16.5 51.421875 16.5 36.375 
Q 16.5 21.390625 20.328125 13.890625 
Q 24.171875 6.390625 31.78125 6.390625 
Q 39.453125 6.390625 43.28125 13.890625 
Q 47.125 21.390625 47.125 36.375 
Q 47.125 51.421875 43.28125 58.90625 
Q 39.453125 66.40625 31.78125 66.40625 
z
M 31.78125 74.21875 
Q 44.046875 74.21875 50.515625 64.515625 
Q 56.984375 54.828125 56.984375 36.375 
Q 56.984375 17.96875 50.515625 8.265625 
Q 44.046875 -1.421875 31.78125 -1.421875 
Q 19.53125 -1.421875 13.0625 8.265625 
Q 6.59375 17.96875 6.59375 36.375 
Q 6.59375 54.828125 13.0625 64.515625 
Q 19.53125 74.21875 31.78125 74.21875 
z
" id="DejaVuSans-30"/>
      </defs>
      <g transform="translate(326.577312 159.509398)scale(0.1 -0.1)">
       <use xlink:href="#DejaVuSans-31"/>
       <use x="63.623047" xlink:href="#DejaVuSans-30"/>
      </g>
     </g>
    </g>
    <g id="xtick_5">
     <g id="line2d_5">
      <defs>
       <path d="M 0 0 
L 0 2 
" id="m4b23c8548e" style="stroke:#000000;stroke-width:0.6;"/>
      </defs>
      <g>
       <use style="stroke:#000000;stroke-width:0.6;" x="25.547413" xlink:href="#m4b23c8548e" y="144.91096"/>
      </g>
     </g>
    </g>
    <g id="xtick_6">
     <g id="line2d_6">
      <g>
       <use style="stroke:#000000;stroke-width:0.6;" x="41.72596" xlink:href="#m4b23c8548e" y="144.91096"/>
      </g>
     </g>
    </g>
    <g id="xtick_7">
     <g id="line2d_7">
      <g>
       <use style="stroke:#000000;stroke-width:0.6;" x="57.904508" xlink:href="#m4b23c8548e" y="144.91096"/>
      </g>
     </g>
    </g>
    <g id="xtick_8">
     <g id="line2d_8">
      <g>
       <use style="stroke:#000000;stroke-width:0.6;" x="74.083055" xlink:href="#m4b23c8548e" y="144.91096"/>
      </g>
     </g>
    </g>
    <g id="xtick_9">
     <g id="line2d_9">
      <g>
       <use style="stroke:#000000;stroke-width:0.6;" x="106.44015" xlink:href="#m4b23c8548e" y="144.91096"/>
      </g>
     </g>
    </g>
    <g id="xtick_10">
     <g id="line2d_10">
      <g>
       <use style="stroke:#000000;stroke-width:0.6;" x="122.618697" xlink:href="#m4b23c8548e" y="144.91096"/>
      </g>
     </g>
    </g>
    <g id="xtick_11">
     <g id="line2d_11">
      <g>
       <use style="stroke:#000000;stroke-width:0.6;" x="138.797244" xlink:href="#m4b23c8548e" y="144.91096"/>
      </g>
     </g>
    </g>
    <g id="xtick_12">
     <g id="line2d_12">
      <g>
       <use style="stroke:#000000;stroke-width:0.6;" x="154.975792" xlink:href="#m4b23c8548e" y="144.91096"/>
      </g>
     </g>
    </g>
    <g id="xtick_13">
     <g id="line2d_13">
      <g>
       <use style="stroke:#000000;stroke-width:0.6;" x="187.332886" xlink:href="#m4b23c8548e" y="144.91096"/>
      </g>
     </g>
    </g>
    <g id="xtick_14">
     <g id="line2d_14">
      <g>
       <use style="stroke:#000000;stroke-width:0.6;" x="203.511434" xlink:href="#m4b23c8548e" y="144.91096"/>
      </g>
     </g>
    </g>
    <g id="xtick_15">
     <g id="line2d_15">
      <g>
       <use style="stroke:#000000;stroke-width:0.6;" x="219.689981" xlink:href="#m4b23c8548e" y="144.91096"/>
      </g>
     </g>
    </g>
    <g id="xtick_16">
     <g id="line2d_16">
      <g>
       <use style="stroke:#000000;stroke-width:0.6;" x="235.868528" xlink:href="#m4b23c8548e" y="144.91096"/>
      </g>
     </g>
    </g>
    <g id="xtick_17">
     <g id="line2d_17">
      <g>
       <use style="stroke:#000000;stroke-width:0.6;" x="268.225623" xlink:href="#m4b23c8548e" y="144.91096"/>
      </g>
     </g>
    </g>
    <g id="xtick_18">
     <g id="line2d_18">
      <g>
       <use style="stroke:#000000;stroke-width:0.6;" x="284.40417" xlink:href="#m4b23c8548e" y="144.91096"/>
      </g>
     </g>
    </g>
    <g id="xtick_19">
     <g id="line2d_19">
      <g>
       <use style="stroke:#000000;stroke-width:0.6;" x="300.582717" xlink:href="#m4b23c8548e" y="144.91096"/>
      </g>
     </g>
    </g>
    <g id="xtick_20">
     <g id="line2d_20">
      <g>
       <use style="stroke:#000000;stroke-width:0.6;" x="316.761265" xlink:href="#m4b23c8548e" y="144.91096"/>
      </g>
     </g>
    </g>
    <g id="xtick_21">
     <g id="line2d_21">
      <g>
       <use style="stroke:#000000;stroke-width:0.6;" x="349.118359" xlink:href="#m4b23c8548e" y="144.91096"/>
      </g>
     </g>
    </g>
    <g id="xtick_22">
     <g id="line2d_22">
      <g>
       <use style="stroke:#000000;stroke-width:0.6;" x="365.296907" xlink:href="#m4b23c8548e" y="144.91096"/>
      </g>
     </g>
    </g>
    <g id="xtick_23">
     <g id="line2d_23">
      <g>
       <use style="stroke:#000000;stroke-width:0.6;" x="381.475454" xlink:href="#m4b23c8548e" y="144.91096"/>
      </g>
     </g>
    </g>
   </g>
   <g id="matplotlib.axis_2">
    <g id="ytick_1">
     <g id="line2d_24">
      <defs>
       <path d="M 0 0 
L -3.5 0 
" id="m5df788d10e" style="stroke:#000000;stroke-width:0.8;"/>
      </defs>
      <g>
       <use style="stroke:#000000;stroke-width:0.8;" x="171.154339" xlink:href="#m5df788d10e" y="306.696433"/>
      </g>
     </g>
     <g id="text_4">
      <!-- -10 -->
      <g transform="translate(147.821526 310.495652)scale(0.1 -0.1)">
       <use xlink:href="#DejaVuSans-2d"/>
       <use x="36.083984" xlink:href="#DejaVuSans-31"/>
       <use x="99.707031" xlink:href="#DejaVuSans-30"/>
      </g>
     </g>
    </g>
    <g id="ytick_2">
     <g id="line2d_25">
      <g>
       <use style="stroke:#000000;stroke-width:0.8;" x="171.154339" xlink:href="#m5df788d10e" y="225.803697"/>
      </g>
     </g>
     <g id="text_5">
      <!-- -5 -->
      <g transform="translate(154.184026 229.602916)scale(0.1 -0.1)">
       <use xlink:href="#DejaVuSans-2d"/>
       <use x="36.083984" xlink:href="#DejaVuSans-35"/>
      </g>
     </g>
    </g>
    <g id="ytick_3">
     <g id="line2d_26">
      <g>
       <use style="stroke:#000000;stroke-width:0.8;" x="171.154339" xlink:href="#m5df788d10e" y="144.91096"/>
      </g>
     </g>
    </g>
    <g id="ytick_4">
     <g id="line2d_27">
      <g>
       <use style="stroke:#000000;stroke-width:0.8;" x="171.154339" xlink:href="#m5df788d10e" y="64.018224"/>
      </g>
     </g>
     <g id="text_6">
      <!-- 5 -->
      <g transform="translate(157.791839 67.817443)scale(0.1 -0.1)">
       <use xlink:href="#DejaVuSans-35"/>
      </g>
     </g>
    </g>
    <g id="ytick_5">
     <g id="line2d_28">
      <defs>
       <path d="M 0 0 
L -2 0 
" id="m7f6d53a104" style="stroke:#000000;stroke-width:0.6;"/>
      </defs>
      <g>
       <use style="stroke:#000000;stroke-width:0.6;" x="171.154339" xlink:href="#m7f6d53a104" y="322.874981"/>
      </g>
     </g>
    </g>
    <g id="ytick_6">
     <g id="line2d_29">
      <g>
       <use style="stroke:#000000;stroke-width:0.6;" x="171.154339" xlink:href="#m7f6d53a104" y="290.517886"/>
      </g>
     </g>
    </g>
    <g id="ytick_7">
     <g id="line2d_30">
      <g>
       <use style="stroke:#000000;stroke-width:0.6;" x="171.154339" xlink:href="#m7f6d53a104" y="274.339339"/>
      </g>
     </g>
    </g>
    <g id="ytick_8">
     <g id="line2d_31">
      <g>
       <use style="stroke:#000000;stroke-width:0.6;" x="171.154339" xlink:href="#m7f6d53a104" y="258.160792"/>
      </g>
     </g>
    </g>
    <g id="ytick_9">
     <g id="line2d_32">
      <g>
       <use style="stroke:#000000;stroke-width:0.6;" x="171.154339" xlink:href="#m7f6d53a104" y="241.982244"/>
      </g>
     </g>
    </g>
    <g id="ytick_10">
     <g id="line2d_33">
      <g>
       <use style="stroke:#000000;stroke-width:0.6;" x="171.154339" xlink:href="#m7f6d53a104" y="209.62515"/>
      </g>
     </g>
    </g>
    <g id="ytick_11">
     <g id="line2d_34">
      <g>
       <use style="stroke:#000000;stroke-width:0.6;" x="171.154339" xlink:href="#m7f6d53a104" y="193.446602"/>
      </g>
     </g>
    </g>
    <g id="ytick_12">
     <g id="line2d_35">
      <g>
       <use style="stroke:#000000;stroke-width:0.6;" x="171.154339" xlink:href="#m7f6d53a104" y="177.268055"/>
      </g>
     </g>
    </g>
    <g id="ytick_13">
     <g id="line2d_36">
      <g>
       <use style="stroke:#000000;stroke-width:0.6;" x="171.154339" xlink:href="#m7f6d53a104" y="161.089508"/>
      </g>
     </g>
    </g>
    <g id="ytick_14">
     <g id="line2d_37">
      <g>
       <use style="stroke:#000000;stroke-width:0.6;" x="171.154339" xlink:href="#m7f6d53a104" y="128.732413"/>
      </g>
     </g>
    </g>
    <g id="ytick_15">
     <g id="line2d_38">
      <g>
       <use style="stroke:#000000;stroke-width:0.6;" x="171.154339" xlink:href="#m7f6d53a104" y="112.553866"/>
      </g>
     </g>
    </g>
    <g id="ytick_16">
     <g id="line2d_39">
      <g>
       <use style="stroke:#000000;stroke-width:0.6;" x="171.154339" xlink:href="#m7f6d53a104" y="96.375318"/>
      </g>
     </g>
    </g>
    <g id="ytick_17">
     <g id="line2d_40">
      <g>
       <use style="stroke:#000000;stroke-width:0.6;" x="171.154339" xlink:href="#m7f6d53a104" y="80.196771"/>
      </g>
     </g>
    </g>
    <g id="ytick_18">
     <g id="line2d_41">
      <g>
       <use style="stroke:#000000;stroke-width:0.6;" x="171.154339" xlink:href="#m7f6d53a104" y="47.839676"/>
      </g>
     </g>
    </g>
    <g id="ytick_19">
     <g id="line2d_42">
      <g>
       <use style="stroke:#000000;stroke-width:0.6;" x="171.154339" xlink:href="#m7f6d53a104" y="31.661129"/>
      </g>
     </g>
    </g>
    <g id="ytick_20">
     <g id="line2d_43">
      <g>
       <use style="stroke:#000000;stroke-width:0.6;" x="171.154339" xlink:href="#m7f6d53a104" y="15.482582"/>
      </g>
     </g>
    </g>
   </g>
   <g id="line2d_44">
    <path clip-path="url(#p7267789f40)" d="M 171.154339 144.91096 
L 172.132352 144.851657 
L 173.066863 144.68218 
L 174.422003 144.226932 
L 175.937776 143.375975 
L 177.239249 142.265402 
L 178.296027 140.970821 
L 179.172827 139.414954 
L 179.750979 137.85034 
L 180.147074 135.859574 
L 180.231867 134.43236 
L 180.126963 132.655886 
L 179.754516 130.706104 
L 179.202885 128.988158 
L 178.380464 127.171214 
L 177.4023 125.523445 
L 176.287561 124.016535 
L 174.760205 122.347936 
L 173.512317 121.219774 
L 171.845569 119.955333 
L 169.850308 118.725193 
L 168.267236 117.927314 
L 165.554409 116.8631 
L 163.556259 116.290906 
L 162.140511 115.982695 
L 160.156798 115.676687 
L 156.564445 115.470865 
L 153.143795 115.668132 
L 151.348095 115.9208 
L 149.016133 116.401793 
L 144.731469 117.746173 
L 142.882946 118.51883 
L 140.040227 119.951118 
L 137.097174 121.774954 
L 135.222454 123.13946 
L 132.158921 125.764492 
L 129.350606 128.693537 
L 126.751237 131.989626 
L 125.329733 134.107992 
L 123.572962 137.149174 
L 122.225021 139.923222 
L 121.169933 142.488868 
L 120.01867 145.920051 
L 119.196548 149.093093 
L 118.629635 152.024292 
L 118.173953 155.606771 
L 117.978844 158.789149 
L 117.979834 162.130159 
L 118.250401 166.101795 
L 118.844487 170.252824 
L 119.675994 174.07511 
L 120.900933 178.238795 
L 121.997443 181.236867 
L 123.775023 185.275737 
L 124.903034 187.486666 
L 127.056133 191.187013 
L 128.750126 193.738368 
L 130.586714 196.230803 
L 133.317715 199.52085 
L 135.999339 202.364647 
L 139.02901 205.206245 
L 141.949316 207.634713 
L 145.561954 210.282456 
L 148.322054 212.074051 
L 152.538556 214.472162 
L 156.703239 216.482957 
L 159.917084 217.815377 
L 164.813849 219.50981 
L 167.598653 220.304324 
L 170.386189 220.983331 
L 175.401369 221.924837 
L 177.605851 222.228716 
L 181.479236 222.604996 
L 185.404538 222.78559 
L 189.416173 222.764985 
L 195.164155 222.377544 
L 201.154084 221.524572 
L 208.024712 219.970852 
L 211.578377 218.918243 
L 215.606076 217.51147 
L 219.592526 215.885773 
L 222.653684 214.472008 
L 225.450744 213.048083 
L 230.648677 210.043654 
L 233.0501 208.486583 
L 237.969341 204.927995 
L 240.901845 202.546807 
L 243.304797 200.434309 
L 246.981893 196.887163 
L 249.584611 194.116611 
L 252.535807 190.672864 
L 255.254677 187.16821 
L 258.350193 182.707899 
L 260.998453 178.395617 
L 263.193316 174.375762 
L 265.04127 170.58554 
L 266.732251 166.690709 
L 268.418071 162.254531 
L 269.978456 157.430886 
L 271.345025 152.295799 
L 272.460033 146.9556 
L 273.303256 141.395378 
L 273.710017 137.462104 
L 274.018233 132.062393 
L 274.065701 128.622599 
L 273.899078 123.052363 
L 273.432519 117.486014 
L 272.934298 113.640591 
L 272.267194 109.668038 
L 271.312068 105.126459 
L 270.155471 100.613751 
L 268.98302 96.707811 
L 267.095351 91.31888 
L 264.927825 86.037209 
L 263.214448 82.341265 
L 260.703599 77.487006 
L 257.760176 72.443455 
L 255.029321 68.246008 
L 251.989021 64.007262 
L 248.959095 60.158164 
L 245.05993 55.662445 
L 242.532117 52.983911 
L 238.748515 49.275067 
L 234.695881 45.654294 
L 230.853103 42.517033 
L 225.774152 38.761634 
L 220.89258 35.526719 
L 216.349229 32.812989 
L 211.74755 30.331665 
L 206.934049 28.002569 
L 202.818568 26.213447 
L 198.620164 24.569758 
L 195.0127 23.297266 
L 191.35294 22.13329 
L 186.723274 20.837493 
L 182.023966 19.71707 
L 175.116959 18.413637 
L 171.235411 17.855296 
L 167.32334 17.416499 
L 161.742149 17.002417 
L 153.661492 16.8379 
L 146.106648 17.145039 
L 138.529406 17.900363 
L 135.758011 18.289268 
L 129.692887 19.353468 
L 123.650844 20.709262 
L 117.499086 22.400893 
L 111.429713 24.388138 
L 104.296421 27.146198 
L 97.285721 30.32761 
L 93.50625 32.248101 
L 89.97783 34.178126 
L 86.496181 36.218421 
L 83.063863 38.368465 
L 76.97624 42.543972 
L 74.306913 44.531398 
L 70.992096 47.142639 
L 67.747087 49.86271 
L 64.575438 52.689763 
L 60.145594 56.943289 
L 54.744268 62.67273 
L 50.639961 67.488866 
L 46.735159 72.507631 
L 42.900796 77.926737 
L 38.83706 84.317508 
L 35.093068 90.950427 
L 32.166977 96.778921 
L 29.757513 102.132831 
L 27.434869 107.919912 
L 25.723159 112.708648 
L 24.072851 117.901127 
L 22.522515 123.506057 
L 21.249838 128.897066 
L 20.226548 134.056056 
L 19.340295 139.553699 
L 18.582637 145.808026 
L 18.083659 152.115617 
L 17.861663 157.67165 
L 17.837804 162.945267 
L 18.077354 169.795343 
L 18.558868 176.006284 
L 19.459584 183.385318 
L 20.619202 190.236707 
L 22.073093 196.992462 
L 23.831064 203.707216 
L 25.817208 210.141768 
L 27.648542 215.350936 
L 29.711374 220.619236 
L 31.99212 225.882686 
L 34.468891 231.079285 
L 37.936252 237.647006 
L 41.178996 243.198644 
L 44.653069 248.638118 
L 47.593128 252.89798 
L 50.788347 257.22183 
L 55.206363 262.748274 
L 59.881207 268.105288 
L 64.802887 273.277088 
L 69.377983 277.708614 
L 73.70886 281.60659 
L 78.187988 285.363351 
L 82.291675 288.580749 
L 86.505568 291.678216 
L 92.882771 295.999547 
L 98.425232 299.424941 
L 104.115377 302.646569 
L 109.774276 305.573603 
L 115.558203 308.297109 
L 122.488483 311.223858 
L 130.070626 314.029142 
L 137.808581 316.487479 
L 144.75336 318.361855 
L 151.375011 319.867579 
L 158.073526 321.119709 
L 165.080474 322.145107 
L 172.148383 322.890962 
L 178.859347 323.335306 
L 188.896215 323.526154 
L 207.09139 322.433875 
L 211.400353 321.90261 
L 220.009121 320.524218 
L 228.577574 318.725782 
L 233.283047 317.553226 
L 237.966508 316.253116 
L 243.984885 314.383257 
L 249.953182 312.301658 
L 256.704846 309.664352 
L 264.952922 306.016952 
L 273.047421 301.955799 
L 279.544445 298.32794 
L 284.935014 295.052555 
L 291.380554 290.798551 
L 298.785847 285.420137 
L 305.13328 280.351639 
L 311.179337 275.087815 
L 317.684627 268.893008 
L 323.995112 262.286341 
L 329.155195 256.382303 
L 334.086957 250.252308 
L 337.243071 246.044462 
L 340.799454 240.999618 
L 344.202444 235.830781 
L 347.308633 230.777236 
L 350.920072 224.429285 
L 354.302275 217.931276 
L 357.671935 210.795833 
L 360.532945 204.078851 
L 363.151473 197.240381 
L 365.214694 191.240921 
L 367.090038 185.163106 
L 369.117188 177.659246 
L 370.880075 169.943816 
L 372.115351 163.467474 
L 373.140128 156.937149 
L 373.889237 150.941016 
L 374.45996 144.91096 
L 374.45996 144.91096 
" style="fill:none;stroke:#0000ff;stroke-linecap:square;"/>
   </g>
   <g id="patch_3">
    <path d="M 171.154339 329.66 
L 171.154339 10.7 
" style="fill:none;stroke:#000000;stroke-linecap:square;stroke-linejoin:miter;stroke-width:0.8;"/>
   </g>
   <g id="patch_4">
    <path d="M 10.7 144.91096 
L 381.592509 144.91096 
" style="fill:none;stroke:#000000;stroke-linecap:square;stroke-linejoin:miter;stroke-width:0.8;"/>
   </g>
  </g>
 </g>
 <defs>
  <clipPath id="p7267789f40">
   <rect height="318.96" width="370.892509" x="10.7" y="10.7"/>
  </clipPath>
 </defs>
</svg>
