<?xml version="1.0" encoding="utf-8" standalone="no"?>
<!DOCTYPE svg PUBLIC "-//W3C//DTD SVG 1.1//EN"
  "http://www.w3.org/Graphics/SVG/1.1/DTD/svg11.dtd">
<svg xmlns:xlink="http://www.w3.org/1999/xlink" width="297.283516pt" height="338.4pt" viewBox="0 0 297.283516 338.4" xmlns="http://www.w3.org/2000/svg" version="1.1">
 <metadata>
  <rdf:RDF xmlns:dc="http://purl.org/dc/elements/1.1/" xmlns:cc="http://creativecommons.org/ns#" xmlns:rdf="http://www.w3.org/1999/02/22-rdf-syntax-ns#">
   <cc:Work>
    <dc:type rdf:resource="http://purl.org/dc/dcmitype/StillImage"/>
    <dc:date>2023-01-18T01:14:21.014398</dc:date>
    <dc:format>image/svg+xml</dc:format>
    <dc:creator>
     <cc:Agent>
      <dc:title>Matplotlib v3.5.2, https://matplotlib.org/</dc:title>
     </cc:Agent>
    </dc:creator>
   </cc:Work>
  </rdf:RDF>
 </metadata>
 <defs>
  <style type="text/css">*{stroke-linejoin: round; stroke-linecap: butt}</style>
 </defs>
 <g id="figure_1">
  <g id="patch_1">
   <path d="M -0 338.4 
L 297.283516 338.4 
L 297.283516 0 
L -0 0 
z
" style="fill: #ffffff"/>
  </g>
  <g id="axes_1">
   <g id="patch_2">
    <path d="M 7.2 331.2 
L 290.083516 331.2 
L 290.083516 7.2 
L 7.2 7.2 
z
" style="fill: #ffffff"/>
   </g>
   <g id="patch_3">
    <path d="M 143.002675 27.636961 
Q 95.818083 77.70671 31.040198 93.020456 
" clip-path="url(#p83d3422354)" style="fill: none; stroke: #000000; stroke-width: 2; stroke-linecap: round"/>
    <path d="M 41.92227 95.585709 
L 31.040198 93.020456 
L 39.621644 85.853951 
L 41.92227 95.585709 
z
" clip-path="url(#p83d3422354)" style="stroke: #000000; stroke-width: 2; stroke-linecap: round"/>
   </g>
   <g id="patch_4">
    <path d="M 138.463927 24.059148 
Q 73.686043 39.372893 26.501451 89.442643 
" clip-path="url(#p83d3422354)" style="fill: none; stroke: #000000; stroke-width: 2; stroke-linecap: round"/>
    <path d="M 127.581856 21.493895 
L 138.463927 24.059148 
L 129.882481 31.225653 
L 127.581856 21.493895 
z
" clip-path="url(#p83d3422354)" style="stroke: #000000; stroke-width: 2; stroke-linecap: round"/>
   </g>
   <g id="patch_5">
    <path d="M 28.864111 244.865109 
Q 95.818083 260.69329 141.469117 309.13571 
" clip-path="url(#p83d3422354)" style="fill: none; stroke: #000000; stroke-width: 2; stroke-linecap: round"/>
    <path d="M 138.249656 298.428933 
L 141.469117 309.13571 
L 130.972019 305.287213 
L 138.249656 298.428933 
z
" clip-path="url(#p83d3422354)" style="stroke: #000000; stroke-width: 2; stroke-linecap: round"/>
   </g>
   <g id="patch_6">
    <path d="M 28.035008 250.584686 
Q 73.686043 299.027107 140.640014 314.855287 
" clip-path="url(#p83d3422354)" style="fill: none; stroke: #000000; stroke-width: 2; stroke-linecap: round"/>
    <path d="M 31.254469 261.291463 
L 28.035008 250.584686 
L 38.532107 254.433183 
L 31.254469 261.291463 
z
" clip-path="url(#p83d3422354)" style="stroke: #000000; stroke-width: 2; stroke-linecap: round"/>
   </g>
   <g id="matplotlib.axis_1"/>
   <g id="matplotlib.axis_2"/>
   <g id="patch_7">
    <path d="M 144.530608 28.77379 
Q 84.752063 132.313267 26.091551 233.916253 
" clip-path="url(#p83d3422354)" style="fill: none; stroke: #000000; stroke-width: 2; stroke-linecap: round"/>
    <path d="M 35.421678 227.755999 
L 26.091551 233.916253 
L 26.761424 222.755999 
L 35.421678 227.755999 
z
" clip-path="url(#p83d3422354)" style="stroke: #000000; stroke-width: 2; stroke-linecap: round"/>
   </g>
   <g id="patch_8">
    <path d="M 24.973517 102.547255 
Q 84.752063 206.086733 143.412574 307.689719 
" clip-path="url(#p83d3422354)" style="fill: none; stroke: #000000; stroke-width: 2; stroke-linecap: round"/>
    <path d="M 142.742701 296.529465 
L 143.412574 307.689719 
L 134.082447 301.529465 
L 142.742701 296.529465 
z
" clip-path="url(#p83d3422354)" style="stroke: #000000; stroke-width: 2; stroke-linecap: round"/>
   </g>
   <g id="patch_9">
    <path d="M 29.084667 95.426535 
Q 148.641758 95.426535 265.96278 95.426535 
" clip-path="url(#p83d3422354)" style="fill: none; stroke: #000000; stroke-width: 2; stroke-linecap: round"/>
    <path d="M 255.96278 90.426535 
L 265.96278 95.426535 
L 255.96278 100.426535 
L 255.96278 90.426535 
z
" clip-path="url(#p83d3422354)" style="stroke: #000000; stroke-width: 2; stroke-linecap: round"/>
   </g>
   <g id="patch_10">
    <path d="M 27.983088 238.862316 
Q 148.641758 169.2 267.363936 100.655718 
" clip-path="url(#p83d3422354)" style="fill: none; stroke: #000000; stroke-width: 2; stroke-linecap: round"/>
    <path d="M 256.203682 101.325591 
L 267.363936 100.655718 
L 261.203682 109.985845 
L 256.203682 101.325591 
z
" clip-path="url(#p83d3422354)" style="stroke: #000000; stroke-width: 2; stroke-linecap: round"/>
   </g>
   <g id="patch_11">
    <path d="M 148.641758 32.111437 
Q 148.641758 169.2 148.641758 308.524631 
" clip-path="url(#p83d3422354)" style="fill: none; stroke: #000000; stroke-width: 2; stroke-linecap: round"/>
    <path d="M 143.641758 42.111437 
L 148.641758 32.111437 
L 153.641758 42.111437 
L 143.641758 42.111437 
z
" clip-path="url(#p83d3422354)" style="stroke: #000000; stroke-width: 2; stroke-linecap: round"/>
   </g>
   <g id="patch_12">
    <path d="M 153.870942 30.710281 
Q 212.531453 132.313267 272.309998 235.852745 
" clip-path="url(#p83d3422354)" style="fill: none; stroke: #000000; stroke-width: 2; stroke-linecap: round"/>
    <path d="M 154.540815 41.870535 
L 153.870942 30.710281 
L 163.201069 36.870535 
L 154.540815 41.870535 
z
" clip-path="url(#p83d3422354)" style="stroke: #000000; stroke-width: 2; stroke-linecap: round"/>
   </g>
   <g id="patch_13">
    <path d="M 157.69897 311.517747 
Q 212.531453 279.860198 269.300428 247.084615 
" clip-path="url(#p83d3422354)" style="fill: none; stroke: #000000; stroke-width: 2; stroke-linecap: round"/>
    <path d="M 168.859224 310.847874 
L 157.69897 311.517747 
L 163.859224 302.18762 
L 168.859224 310.847874 
z
" clip-path="url(#p83d3422354)" style="stroke: #000000; stroke-width: 2; stroke-linecap: round"/>
   </g>
   <g id="patch_14">
    <path d="M 157.69897 26.882253 
Q 212.531453 58.539802 269.300428 91.315385 
" clip-path="url(#p83d3422354)" style="fill: none; stroke: #000000; stroke-width: 2; stroke-linecap: round"/>
    <path d="M 163.859224 36.21238 
L 157.69897 26.882253 
L 168.859224 27.552126 
L 163.859224 36.21238 
z
" clip-path="url(#p83d3422354)" style="stroke: #000000; stroke-width: 2; stroke-linecap: round"/>
   </g>
   <g id="patch_15">
    <path d="M 276.421148 232.515098 
Q 276.421148 169.2 276.421148 103.648834 
" clip-path="url(#p83d3422354)" style="fill: none; stroke: #000000; stroke-width: 2; stroke-linecap: round"/>
    <path d="M 281.421148 222.515098 
L 276.421148 232.515098 
L 271.421148 222.515098 
L 281.421148 222.515098 
z
" clip-path="url(#p83d3422354)" style="stroke: #000000; stroke-width: 2; stroke-linecap: round"/>
   </g>
   <g id="text_1">
    <g id="patch_16">
     <path d="M 78.238198 76.962319 
L 102.331948 76.962319 
L 102.331948 59.284194 
L 78.238198 59.284194 
z
" style="fill: #ffffff; stroke: #ffffff; stroke-linejoin: miter"/>
    </g>
    <!-- 1/3 -->
    <g style="fill: #0000ff" transform="translate(82.238198 70.882631)scale(0.1 -0.1)">
     <defs>
      <path id="DejaVuSans-31" d="M 794 531 
L 1825 531 
L 1825 4091 
L 703 3866 
L 703 4441 
L 1819 4666 
L 2450 4666 
L 2450 531 
L 3481 531 
L 3481 0 
L 794 0 
L 794 531 
z
" transform="scale(0.015625)"/>
      <path id="DejaVuSans-2f" d="M 1625 4666 
L 2156 4666 
L 531 -594 
L 0 -594 
L 1625 4666 
z
" transform="scale(0.015625)"/>
      <path id="DejaVuSans-33" d="M 2597 2516 
Q 3050 2419 3304 2112 
Q 3559 1806 3559 1356 
Q 3559 666 3084 287 
Q 2609 -91 1734 -91 
Q 1441 -91 1130 -33 
Q 819 25 488 141 
L 488 750 
Q 750 597 1062 519 
Q 1375 441 1716 441 
Q 2309 441 2620 675 
Q 2931 909 2931 1356 
Q 2931 1769 2642 2001 
Q 2353 2234 1838 2234 
L 1294 2234 
L 1294 2753 
L 1863 2753 
Q 2328 2753 2575 2939 
Q 2822 3125 2822 3475 
Q 2822 3834 2567 4026 
Q 2313 4219 1838 4219 
Q 1578 4219 1281 4162 
Q 984 4106 628 3988 
L 628 4550 
Q 988 4650 1302 4700 
Q 1616 4750 1894 4750 
Q 2613 4750 3031 4423 
Q 3450 4097 3450 3541 
Q 3450 3153 3228 2886 
Q 3006 2619 2597 2516 
z
" transform="scale(0.015625)"/>
     </defs>
     <use xlink:href="#DejaVuSans-31"/>
     <use xlink:href="#DejaVuSans-2f" x="63.623047"/>
     <use xlink:href="#DejaVuSans-33" x="97.314453"/>
    </g>
   </g>
   <g id="text_2">
    <g id="patch_17">
     <path d="M 67.172178 57.79541 
L 91.265928 57.79541 
L 91.265928 40.117285 
L 67.172178 40.117285 
z
" style="fill: #ffffff; stroke: #ffffff; stroke-linejoin: miter"/>
    </g>
    <!-- 1/4 -->
    <g style="fill: #0000ff" transform="translate(71.172178 51.715723)scale(0.1 -0.1)">
     <defs>
      <path id="DejaVuSans-34" d="M 2419 4116 
L 825 1625 
L 2419 1625 
L 2419 4116 
z
M 2253 4666 
L 3047 4666 
L 3047 1625 
L 3713 1625 
L 3713 1100 
L 3047 1100 
L 3047 0 
L 2419 0 
L 2419 1100 
L 313 1100 
L 313 1709 
L 2253 4666 
z
" transform="scale(0.015625)"/>
     </defs>
     <use xlink:href="#DejaVuSans-31"/>
     <use xlink:href="#DejaVuSans-2f" x="63.623047"/>
     <use xlink:href="#DejaVuSans-34" x="97.314453"/>
    </g>
   </g>
   <g id="text_3">
    <g id="patch_18">
     <path d="M 78.238198 279.115806 
L 102.331948 279.115806 
L 102.331948 261.437681 
L 78.238198 261.437681 
z
" style="fill: #ffffff; stroke: #ffffff; stroke-linejoin: miter"/>
    </g>
    <!-- 3/4 -->
    <g style="fill: #0000ff" transform="translate(82.238198 273.036119)scale(0.1 -0.1)">
     <use xlink:href="#DejaVuSans-33"/>
     <use xlink:href="#DejaVuSans-2f" x="63.623047"/>
     <use xlink:href="#DejaVuSans-34" x="97.314453"/>
    </g>
   </g>
   <g id="text_4">
    <g id="patch_19">
     <path d="M 67.172178 298.282715 
L 91.265928 298.282715 
L 91.265928 280.60459 
L 67.172178 280.60459 
z
" style="fill: #ffffff; stroke: #ffffff; stroke-linejoin: miter"/>
    </g>
    <!-- 2/5 -->
    <g style="fill: #0000ff" transform="translate(71.172178 292.203027)scale(0.1 -0.1)">
     <defs>
      <path id="DejaVuSans-32" d="M 1228 531 
L 3431 531 
L 3431 0 
L 469 0 
L 469 531 
Q 828 903 1448 1529 
Q 2069 2156 2228 2338 
Q 2531 2678 2651 2914 
Q 2772 3150 2772 3378 
Q 2772 3750 2511 3984 
Q 2250 4219 1831 4219 
Q 1534 4219 1204 4116 
Q 875 4013 500 3803 
L 500 4441 
Q 881 4594 1212 4672 
Q 1544 4750 1819 4750 
Q 2544 4750 2975 4387 
Q 3406 4025 3406 3419 
Q 3406 3131 3298 2873 
Q 3191 2616 2906 2266 
Q 2828 2175 2409 1742 
Q 1991 1309 1228 531 
z
" transform="scale(0.015625)"/>
      <path id="DejaVuSans-35" d="M 691 4666 
L 3169 4666 
L 3169 4134 
L 1269 4134 
L 1269 2991 
Q 1406 3038 1543 3061 
Q 1681 3084 1819 3084 
Q 2600 3084 3056 2656 
Q 3513 2228 3513 1497 
Q 3513 744 3044 326 
Q 2575 -91 1722 -91 
Q 1428 -91 1123 -41 
Q 819 9 494 109 
L 494 744 
Q 775 591 1075 516 
Q 1375 441 1709 441 
Q 2250 441 2565 725 
Q 2881 1009 2881 1497 
Q 2881 1984 2565 2268 
Q 2250 2553 1709 2553 
Q 1456 2553 1204 2497 
Q 953 2441 691 2322 
L 691 4666 
z
" transform="scale(0.015625)"/>
     </defs>
     <use xlink:href="#DejaVuSans-32"/>
     <use xlink:href="#DejaVuSans-2f" x="63.623047"/>
     <use xlink:href="#DejaVuSans-35" x="97.314453"/>
    </g>
   </g>
   <g id="text_5">
    <g id="patch_20">
     <path d="M 72.705188 141.15233 
L 96.798938 141.15233 
L 96.798938 123.474205 
L 72.705188 123.474205 
z
" style="fill: #ffffff; stroke: #ffffff; stroke-linejoin: miter"/>
    </g>
    <!-- 2/3 -->
    <g style="fill: #0000ff" transform="translate(76.705188 135.072642)scale(0.1 -0.1)">
     <use xlink:href="#DejaVuSans-32"/>
     <use xlink:href="#DejaVuSans-2f" x="63.623047"/>
     <use xlink:href="#DejaVuSans-33" x="97.314453"/>
    </g>
   </g>
   <g id="text_6">
    <g id="patch_21">
     <path d="M 72.705188 214.925795 
L 96.798938 214.925795 
L 96.798938 197.24767 
L 72.705188 197.24767 
z
" style="fill: #ffffff; stroke: #ffffff; stroke-linejoin: miter"/>
    </g>
    <!-- 1/2 -->
    <g style="fill: #0000ff" transform="translate(76.705188 208.846108)scale(0.1 -0.1)">
     <use xlink:href="#DejaVuSans-31"/>
     <use xlink:href="#DejaVuSans-2f" x="63.623047"/>
     <use xlink:href="#DejaVuSans-32" x="97.314453"/>
    </g>
   </g>
   <g id="text_7">
    <g id="patch_22">
     <path d="M 136.594883 104.265597 
L 160.688633 104.265597 
L 160.688633 86.587472 
L 136.594883 86.587472 
z
" style="fill: #ffffff; stroke: #ffffff; stroke-linejoin: miter"/>
    </g>
    <!-- 1/4 -->
    <g style="fill: #0000ff" transform="translate(140.594883 98.18591)scale(0.1 -0.1)">
     <use xlink:href="#DejaVuSans-31"/>
     <use xlink:href="#DejaVuSans-2f" x="63.623047"/>
     <use xlink:href="#DejaVuSans-34" x="97.314453"/>
    </g>
   </g>
   <g id="text_8">
    <g id="patch_23">
     <path d="M 136.594883 178.039063 
L 160.688633 178.039063 
L 160.688633 160.360938 
L 136.594883 160.360938 
z
" style="fill: #ffffff; stroke: #ffffff; stroke-linejoin: miter"/>
    </g>
    <!-- 1/4 -->
    <g style="fill: #0000ff" transform="translate(140.594883 171.959375)scale(0.1 -0.1)">
     <use xlink:href="#DejaVuSans-31"/>
     <use xlink:href="#DejaVuSans-2f" x="63.623047"/>
     <use xlink:href="#DejaVuSans-34" x="97.314453"/>
    </g>
   </g>
   <g id="text_9">
    <g id="patch_24">
     <path d="M 136.594883 178.039063 
L 160.688633 178.039063 
L 160.688633 160.360938 
L 136.594883 160.360938 
z
" style="fill: #ffffff; stroke: #ffffff; stroke-linejoin: miter"/>
    </g>
    <!-- 3/5 -->
    <g style="fill: #0000ff" transform="translate(140.594883 171.959375)scale(0.1 -0.1)">
     <use xlink:href="#DejaVuSans-33"/>
     <use xlink:href="#DejaVuSans-2f" x="63.623047"/>
     <use xlink:href="#DejaVuSans-35" x="97.314453"/>
    </g>
   </g>
   <g id="text_10">
    <g id="patch_25">
     <path d="M 200.484578 141.15233 
L 224.578328 141.15233 
L 224.578328 123.474205 
L 200.484578 123.474205 
z
" style="fill: #ffffff; stroke: #ffffff; stroke-linejoin: miter"/>
    </g>
    <!-- 1/3 -->
    <g style="fill: #0000ff" transform="translate(204.484578 135.072642)scale(0.1 -0.1)">
     <use xlink:href="#DejaVuSans-31"/>
     <use xlink:href="#DejaVuSans-2f" x="63.623047"/>
     <use xlink:href="#DejaVuSans-33" x="97.314453"/>
    </g>
   </g>
   <g id="text_11">
    <g id="patch_26">
     <path d="M 200.484578 288.699261 
L 224.578328 288.699261 
L 224.578328 271.021136 
L 200.484578 271.021136 
z
" style="fill: #ffffff; stroke: #ffffff; stroke-linejoin: miter"/>
    </g>
    <!-- 2/3 -->
    <g style="fill: #0000ff" transform="translate(204.484578 282.619573)scale(0.1 -0.1)">
     <use xlink:href="#DejaVuSans-32"/>
     <use xlink:href="#DejaVuSans-2f" x="63.623047"/>
     <use xlink:href="#DejaVuSans-33" x="97.314453"/>
    </g>
   </g>
   <g id="text_12">
    <g id="patch_27">
     <path d="M 200.484578 67.378864 
L 224.578328 67.378864 
L 224.578328 49.700739 
L 200.484578 49.700739 
z
" style="fill: #ffffff; stroke: #ffffff; stroke-linejoin: miter"/>
    </g>
    <!-- 1/2 -->
    <g style="fill: #0000ff" transform="translate(204.484578 61.299177)scale(0.1 -0.1)">
     <use xlink:href="#DejaVuSans-31"/>
     <use xlink:href="#DejaVuSans-2f" x="63.623047"/>
     <use xlink:href="#DejaVuSans-32" x="97.314453"/>
    </g>
   </g>
   <g id="text_13">
    <g id="patch_28">
     <path d="M 264.374273 178.039063 
L 288.468023 178.039063 
L 288.468023 160.360938 
L 264.374273 160.360938 
z
" style="fill: #ffffff; stroke: #ffffff; stroke-linejoin: miter"/>
    </g>
    <!-- 1/2 -->
    <g style="fill: #0000ff" transform="translate(268.374273 171.959375)scale(0.1 -0.1)">
     <use xlink:href="#DejaVuSans-31"/>
     <use xlink:href="#DejaVuSans-2f" x="63.623047"/>
     <use xlink:href="#DejaVuSans-32" x="97.314453"/>
    </g>
   </g>
   <g id="patch_29">
    <path d="M 148.641758 29.875369 
C 150.822337 29.875369 152.913899 29.009016 154.455802 27.467113 
C 155.997704 25.925211 156.864058 23.833649 156.864058 21.653069 
C 156.864058 19.47249 155.997704 17.380928 154.455802 15.839025 
C 152.913899 14.297123 150.822337 13.430769 148.641758 13.430769 
C 146.461178 13.430769 144.369616 14.297123 142.827714 15.839025 
C 141.285811 17.380928 140.419458 19.47249 140.419458 21.653069 
C 140.419458 23.833649 141.285811 25.925211 142.827714 27.467113 
C 144.369616 29.009016 146.461178 29.875369 148.641758 29.875369 
z
" style="fill: #fec7b8; stroke: #000000; stroke-linejoin: miter"/>
   </g>
   <g id="patch_30">
    <path d="M 20.862367 103.648834 
C 23.042947 103.648834 25.134509 102.782481 26.676411 101.240579 
C 28.218314 99.698676 29.084667 97.607114 29.084667 95.426535 
C 29.084667 93.245955 28.218314 91.154393 26.676411 89.612491 
C 25.134509 88.070588 23.042947 87.204235 20.862367 87.204235 
C 18.681788 87.204235 16.590226 88.070588 15.048323 89.612491 
C 13.506421 91.154393 12.640068 93.245955 12.640068 95.426535 
C 12.640068 97.607114 13.506421 99.698676 15.048323 101.240579 
C 16.590226 102.782481 18.681788 103.648834 20.862367 103.648834 
z
" style="fill: #fec7b8; stroke: #000000; stroke-linejoin: miter"/>
   </g>
   <g id="patch_31">
    <path d="M 20.862367 251.195765 
C 23.042947 251.195765 25.134509 250.329412 26.676411 248.787509 
C 28.218314 247.245607 29.084667 245.154045 29.084667 242.973465 
C 29.084667 240.792886 28.218314 238.701324 26.676411 237.159421 
C 25.134509 235.617519 23.042947 234.751166 20.862367 234.751166 
C 18.681788 234.751166 16.590226 235.617519 15.048323 237.159421 
C 13.506421 238.701324 12.640068 240.792886 12.640068 242.973465 
C 12.640068 245.154045 13.506421 247.245607 15.048323 248.787509 
C 16.590226 250.329412 18.681788 251.195765 20.862367 251.195765 
z
" style="fill: #fec7b8; stroke: #000000; stroke-linejoin: miter"/>
   </g>
   <g id="patch_32">
    <path d="M 148.641758 324.969231 
C 150.822337 324.969231 152.913899 324.102877 154.455802 322.560975 
C 155.997704 321.019072 156.864058 318.92751 156.864058 316.746931 
C 156.864058 314.566351 155.997704 312.474789 154.455802 310.932887 
C 152.913899 309.390984 150.822337 308.524631 148.641758 308.524631 
C 146.461178 308.524631 144.369616 309.390984 142.827714 310.932887 
C 141.285811 312.474789 140.419458 314.566351 140.419458 316.746931 
C 140.419458 318.92751 141.285811 321.019072 142.827714 322.560975 
C 144.369616 324.102877 146.461178 324.969231 148.641758 324.969231 
z
" style="fill: #fec7b8; stroke: #000000; stroke-linejoin: miter"/>
   </g>
   <g id="patch_33">
    <path d="M 276.421148 251.195765 
C 278.601728 251.195765 280.69329 250.329412 282.235192 248.787509 
C 283.777095 247.245607 284.643448 245.154045 284.643448 242.973465 
C 284.643448 240.792886 283.777095 238.701324 282.235192 237.159421 
C 280.69329 235.617519 278.601728 234.751166 276.421148 234.751166 
C 274.240569 234.751166 272.149007 235.617519 270.607104 237.159421 
C 269.065202 238.701324 268.198848 240.792886 268.198848 242.973465 
C 268.198848 245.154045 269.065202 247.245607 270.607104 248.787509 
C 272.149007 250.329412 274.240569 251.195765 276.421148 251.195765 
z
" style="fill: #fec7b8; stroke: #000000; stroke-linejoin: miter"/>
   </g>
   <g id="patch_34">
    <path d="M 276.421148 103.648834 
C 278.601728 103.648834 280.69329 102.782481 282.235192 101.240579 
C 283.777095 99.698676 284.643448 97.607114 284.643448 95.426535 
C 284.643448 93.245955 283.777095 91.154393 282.235192 89.612491 
C 280.69329 88.070588 278.601728 87.204235 276.421148 87.204235 
C 274.240569 87.204235 272.149007 88.070588 270.607104 89.612491 
C 269.065202 91.154393 268.198848 93.245955 268.198848 95.426535 
C 268.198848 97.607114 269.065202 99.698676 270.607104 101.240579 
C 272.149007 102.782481 274.240569 103.648834 276.421148 103.648834 
z
" style="fill: #fec7b8; stroke: #000000; stroke-linejoin: miter"/>
   </g>
   <g id="text_14">
    <!-- 0 -->
    <g transform="translate(145.460508 24.412444)scale(0.1 -0.1)">
     <defs>
      <path id="DejaVuSans-30" d="M 2034 4250 
Q 1547 4250 1301 3770 
Q 1056 3291 1056 2328 
Q 1056 1369 1301 889 
Q 1547 409 2034 409 
Q 2525 409 2770 889 
Q 3016 1369 3016 2328 
Q 3016 3291 2770 3770 
Q 2525 4250 2034 4250 
z
M 2034 4750 
Q 2819 4750 3233 4129 
Q 3647 3509 3647 2328 
Q 3647 1150 3233 529 
Q 2819 -91 2034 -91 
Q 1250 -91 836 529 
Q 422 1150 422 2328 
Q 422 3509 836 4129 
Q 1250 4750 2034 4750 
z
" transform="scale(0.015625)"/>
     </defs>
     <use xlink:href="#DejaVuSans-30"/>
    </g>
   </g>
   <g id="text_15">
    <!-- 1 -->
    <g transform="translate(17.681117 98.18591)scale(0.1 -0.1)">
     <use xlink:href="#DejaVuSans-31"/>
    </g>
   </g>
   <g id="text_16">
    <!-- 2 -->
    <g transform="translate(17.681117 245.73284)scale(0.1 -0.1)">
     <use xlink:href="#DejaVuSans-32"/>
    </g>
   </g>
   <g id="text_17">
    <!-- 3 -->
    <g transform="translate(145.460508 319.506306)scale(0.1 -0.1)">
     <use xlink:href="#DejaVuSans-33"/>
    </g>
   </g>
   <g id="text_18">
    <!-- 4 -->
    <g transform="translate(273.239898 245.73284)scale(0.1 -0.1)">
     <use xlink:href="#DejaVuSans-34"/>
    </g>
   </g>
   <g id="text_19">
    <!-- 5 -->
    <g transform="translate(273.239898 98.18591)scale(0.1 -0.1)">
     <use xlink:href="#DejaVuSans-35"/>
    </g>
   </g>
  </g>
 </g>
 <defs>
  <clipPath id="p83d3422354">
   <rect x="7.2" y="7.2" width="282.883516" height="324"/>
  </clipPath>
 </defs>
</svg>
