<?xml version="1.0" encoding="utf-8" standalone="no"?>
<!DOCTYPE svg PUBLIC "-//W3C//DTD SVG 1.1//EN"
  "http://www.w3.org/Graphics/SVG/1.1/DTD/svg11.dtd">
<svg xmlns:xlink="http://www.w3.org/1999/xlink" width="453.6pt" height="301.275468pt" viewBox="0 0 453.6 301.275468" xmlns="http://www.w3.org/2000/svg" version="1.1">
 <metadata>
  <rdf:RDF xmlns:dc="http://purl.org/dc/elements/1.1/" xmlns:cc="http://creativecommons.org/ns#" xmlns:rdf="http://www.w3.org/1999/02/22-rdf-syntax-ns#">
   <cc:Work>
    <dc:type rdf:resource="http://purl.org/dc/dcmitype/StillImage"/>
    <dc:date>2023-02-24T17:02:12.516774</dc:date>
    <dc:format>image/svg+xml</dc:format>
    <dc:creator>
     <cc:Agent>
      <dc:title>Matplotlib v3.5.2, https://matplotlib.org/</dc:title>
     </cc:Agent>
    </dc:creator>
   </cc:Work>
  </rdf:RDF>
 </metadata>
 <defs>
  <style type="text/css">*{stroke-linejoin: round; stroke-linecap: butt}</style>
 </defs>
 <g id="figure_1">
  <g id="patch_1">
   <path d="M 0 301.275468 
L 453.6 301.275468 
L 453.6 0 
L 0 0 
z
" style="fill: #ffffff"/>
  </g>
  <g id="axes_1">
   <g id="patch_2">
    <path d="M 7.2 294.075468 
L 446.4 294.075468 
L 446.4 7.375468 
L 7.2 7.375468 
z
" style="fill: #ffffff"/>
   </g>
   <g id="patch_3">
    <path d="M 50.838462 153.658161 
L 156.415385 48.081238 
L 121.223077 12.88893 
L 15.646154 118.465853 
z
" clip-path="url(#p59bf33bbbc)" style="fill: #008b8b; opacity: 0.15"/>
   </g>
   <g id="patch_4">
    <path d="M 50.838462 153.658161 
L 33.242308 171.254314 
L 150.55 288.562007 
L 168.146154 270.965853 
z
" clip-path="url(#p59bf33bbbc)" style="fill: #dc143c; opacity: 0.15"/>
   </g>
   <g id="patch_5">
    <path d="M 402.761538 153.658161 
L 437.953846 118.465853 
L 332.376923 12.88893 
L 297.184615 48.081238 
z
" clip-path="url(#p59bf33bbbc)" style="fill: #1e90ff; opacity: 0.15"/>
   </g>
   <g id="patch_6">
    <path d="M 402.761538 153.658161 
L 320.646154 235.773545 
L 355.838462 270.965853 
L 437.953846 188.850468 
z
" clip-path="url(#p59bf33bbbc)" style="fill: #8b0000; opacity: 0.15"/>
   </g>
   <g id="patch_7">
    <path d="M 50.838462 153.658161 
L 46.146154 158.350468 
L 41.453846 153.658161 
L 46.146154 148.965853 
z
" clip-path="url(#p59bf33bbbc)"/>
   </g>
   <g id="patch_8">
    <path d="M 402.761538 153.658161 
L 407.453846 158.350468 
L 412.146154 153.658161 
L 407.453846 148.965853 
z
" clip-path="url(#p59bf33bbbc)"/>
   </g>
   <g id="matplotlib.axis_1"/>
   <g id="matplotlib.axis_2"/>
   <g id="text_1">
    <!-- Espace ligne -->
    <g transform="translate(30.434564 131.041327)rotate(-45)scale(0.1 -0.1)">
     <defs>
      <path id="DejaVuSans-45" d="M 628 4666 
L 3578 4666 
L 3578 4134 
L 1259 4134 
L 1259 2753 
L 3481 2753 
L 3481 2222 
L 1259 2222 
L 1259 531 
L 3634 531 
L 3634 0 
L 628 0 
L 628 4666 
z
" transform="scale(0.015625)"/>
      <path id="DejaVuSans-73" d="M 2834 3397 
L 2834 2853 
Q 2591 2978 2328 3040 
Q 2066 3103 1784 3103 
Q 1356 3103 1142 2972 
Q 928 2841 928 2578 
Q 928 2378 1081 2264 
Q 1234 2150 1697 2047 
L 1894 2003 
Q 2506 1872 2764 1633 
Q 3022 1394 3022 966 
Q 3022 478 2636 193 
Q 2250 -91 1575 -91 
Q 1294 -91 989 -36 
Q 684 19 347 128 
L 347 722 
Q 666 556 975 473 
Q 1284 391 1588 391 
Q 1994 391 2212 530 
Q 2431 669 2431 922 
Q 2431 1156 2273 1281 
Q 2116 1406 1581 1522 
L 1381 1569 
Q 847 1681 609 1914 
Q 372 2147 372 2553 
Q 372 3047 722 3315 
Q 1072 3584 1716 3584 
Q 2034 3584 2315 3537 
Q 2597 3491 2834 3397 
z
" transform="scale(0.015625)"/>
      <path id="DejaVuSans-70" d="M 1159 525 
L 1159 -1331 
L 581 -1331 
L 581 3500 
L 1159 3500 
L 1159 2969 
Q 1341 3281 1617 3432 
Q 1894 3584 2278 3584 
Q 2916 3584 3314 3078 
Q 3713 2572 3713 1747 
Q 3713 922 3314 415 
Q 2916 -91 2278 -91 
Q 1894 -91 1617 61 
Q 1341 213 1159 525 
z
M 3116 1747 
Q 3116 2381 2855 2742 
Q 2594 3103 2138 3103 
Q 1681 3103 1420 2742 
Q 1159 2381 1159 1747 
Q 1159 1113 1420 752 
Q 1681 391 2138 391 
Q 2594 391 2855 752 
Q 3116 1113 3116 1747 
z
" transform="scale(0.015625)"/>
      <path id="DejaVuSans-61" d="M 2194 1759 
Q 1497 1759 1228 1600 
Q 959 1441 959 1056 
Q 959 750 1161 570 
Q 1363 391 1709 391 
Q 2188 391 2477 730 
Q 2766 1069 2766 1631 
L 2766 1759 
L 2194 1759 
z
M 3341 1997 
L 3341 0 
L 2766 0 
L 2766 531 
Q 2569 213 2275 61 
Q 1981 -91 1556 -91 
Q 1019 -91 701 211 
Q 384 513 384 1019 
Q 384 1609 779 1909 
Q 1175 2209 1959 2209 
L 2766 2209 
L 2766 2266 
Q 2766 2663 2505 2880 
Q 2244 3097 1772 3097 
Q 1472 3097 1187 3025 
Q 903 2953 641 2809 
L 641 3341 
Q 956 3463 1253 3523 
Q 1550 3584 1831 3584 
Q 2591 3584 2966 3190 
Q 3341 2797 3341 1997 
z
" transform="scale(0.015625)"/>
      <path id="DejaVuSans-63" d="M 3122 3366 
L 3122 2828 
Q 2878 2963 2633 3030 
Q 2388 3097 2138 3097 
Q 1578 3097 1268 2742 
Q 959 2388 959 1747 
Q 959 1106 1268 751 
Q 1578 397 2138 397 
Q 2388 397 2633 464 
Q 2878 531 3122 666 
L 3122 134 
Q 2881 22 2623 -34 
Q 2366 -91 2075 -91 
Q 1284 -91 818 406 
Q 353 903 353 1747 
Q 353 2603 823 3093 
Q 1294 3584 2113 3584 
Q 2378 3584 2631 3529 
Q 2884 3475 3122 3366 
z
" transform="scale(0.015625)"/>
      <path id="DejaVuSans-65" d="M 3597 1894 
L 3597 1613 
L 953 1613 
Q 991 1019 1311 708 
Q 1631 397 2203 397 
Q 2534 397 2845 478 
Q 3156 559 3463 722 
L 3463 178 
Q 3153 47 2828 -22 
Q 2503 -91 2169 -91 
Q 1331 -91 842 396 
Q 353 884 353 1716 
Q 353 2575 817 3079 
Q 1281 3584 2069 3584 
Q 2775 3584 3186 3129 
Q 3597 2675 3597 1894 
z
M 3022 2063 
Q 3016 2534 2758 2815 
Q 2500 3097 2075 3097 
Q 1594 3097 1305 2825 
Q 1016 2553 972 2059 
L 3022 2063 
z
" transform="scale(0.015625)"/>
      <path id="DejaVuSans-20" transform="scale(0.015625)"/>
      <path id="DejaVuSans-6c" d="M 603 4863 
L 1178 4863 
L 1178 0 
L 603 0 
L 603 4863 
z
" transform="scale(0.015625)"/>
      <path id="DejaVuSans-69" d="M 603 3500 
L 1178 3500 
L 1178 0 
L 603 0 
L 603 3500 
z
M 603 4863 
L 1178 4863 
L 1178 4134 
L 603 4134 
L 603 4863 
z
" transform="scale(0.015625)"/>
      <path id="DejaVuSans-67" d="M 2906 1791 
Q 2906 2416 2648 2759 
Q 2391 3103 1925 3103 
Q 1463 3103 1205 2759 
Q 947 2416 947 1791 
Q 947 1169 1205 825 
Q 1463 481 1925 481 
Q 2391 481 2648 825 
Q 2906 1169 2906 1791 
z
M 3481 434 
Q 3481 -459 3084 -895 
Q 2688 -1331 1869 -1331 
Q 1566 -1331 1297 -1286 
Q 1028 -1241 775 -1147 
L 775 -588 
Q 1028 -725 1275 -790 
Q 1522 -856 1778 -856 
Q 2344 -856 2625 -561 
Q 2906 -266 2906 331 
L 2906 616 
Q 2728 306 2450 153 
Q 2172 0 1784 0 
Q 1141 0 747 490 
Q 353 981 353 1791 
Q 353 2603 747 3093 
Q 1141 3584 1784 3584 
Q 2172 3584 2450 3431 
Q 2728 3278 2906 2969 
L 2906 3500 
L 3481 3500 
L 3481 434 
z
" transform="scale(0.015625)"/>
      <path id="DejaVuSans-6e" d="M 3513 2113 
L 3513 0 
L 2938 0 
L 2938 2094 
Q 2938 2591 2744 2837 
Q 2550 3084 2163 3084 
Q 1697 3084 1428 2787 
Q 1159 2491 1159 1978 
L 1159 0 
L 581 0 
L 581 3500 
L 1159 3500 
L 1159 2956 
Q 1366 3272 1645 3428 
Q 1925 3584 2291 3584 
Q 2894 3584 3203 3211 
Q 3513 2838 3513 2113 
z
" transform="scale(0.015625)"/>
     </defs>
     <use xlink:href="#DejaVuSans-45"/>
     <use xlink:href="#DejaVuSans-73" x="63.183594"/>
     <use xlink:href="#DejaVuSans-70" x="115.283203"/>
     <use xlink:href="#DejaVuSans-61" x="178.759766"/>
     <use xlink:href="#DejaVuSans-63" x="240.039062"/>
     <use xlink:href="#DejaVuSans-65" x="295.019531"/>
     <use xlink:href="#DejaVuSans-20" x="356.542969"/>
     <use xlink:href="#DejaVuSans-6c" x="388.330078"/>
     <use xlink:href="#DejaVuSans-69" x="416.113281"/>
     <use xlink:href="#DejaVuSans-67" x="443.896484"/>
     <use xlink:href="#DejaVuSans-6e" x="507.373047"/>
     <use xlink:href="#DejaVuSans-65" x="570.751953"/>
    </g>
   </g>
   <g id="text_2">
    <!-- dimension $r$ -->
    <g transform="translate(20.022438 109.780376)rotate(-45)scale(0.1 -0.1)">
     <defs>
      <path id="DejaVuSans-64" d="M 2906 2969 
L 2906 4863 
L 3481 4863 
L 3481 0 
L 2906 0 
L 2906 525 
Q 2725 213 2448 61 
Q 2172 -91 1784 -91 
Q 1150 -91 751 415 
Q 353 922 353 1747 
Q 353 2572 751 3078 
Q 1150 3584 1784 3584 
Q 2172 3584 2448 3432 
Q 2725 3281 2906 2969 
z
M 947 1747 
Q 947 1113 1208 752 
Q 1469 391 1925 391 
Q 2381 391 2643 752 
Q 2906 1113 2906 1747 
Q 2906 2381 2643 2742 
Q 2381 3103 1925 3103 
Q 1469 3103 1208 2742 
Q 947 2381 947 1747 
z
" transform="scale(0.015625)"/>
      <path id="DejaVuSans-6d" d="M 3328 2828 
Q 3544 3216 3844 3400 
Q 4144 3584 4550 3584 
Q 5097 3584 5394 3201 
Q 5691 2819 5691 2113 
L 5691 0 
L 5113 0 
L 5113 2094 
Q 5113 2597 4934 2840 
Q 4756 3084 4391 3084 
Q 3944 3084 3684 2787 
Q 3425 2491 3425 1978 
L 3425 0 
L 2847 0 
L 2847 2094 
Q 2847 2600 2669 2842 
Q 2491 3084 2119 3084 
Q 1678 3084 1418 2786 
Q 1159 2488 1159 1978 
L 1159 0 
L 581 0 
L 581 3500 
L 1159 3500 
L 1159 2956 
Q 1356 3278 1631 3431 
Q 1906 3584 2284 3584 
Q 2666 3584 2933 3390 
Q 3200 3197 3328 2828 
z
" transform="scale(0.015625)"/>
      <path id="DejaVuSans-6f" d="M 1959 3097 
Q 1497 3097 1228 2736 
Q 959 2375 959 1747 
Q 959 1119 1226 758 
Q 1494 397 1959 397 
Q 2419 397 2687 759 
Q 2956 1122 2956 1747 
Q 2956 2369 2687 2733 
Q 2419 3097 1959 3097 
z
M 1959 3584 
Q 2709 3584 3137 3096 
Q 3566 2609 3566 1747 
Q 3566 888 3137 398 
Q 2709 -91 1959 -91 
Q 1206 -91 779 398 
Q 353 888 353 1747 
Q 353 2609 779 3096 
Q 1206 3584 1959 3584 
z
" transform="scale(0.015625)"/>
      <path id="Cmmi10-72" d="M 494 109 
Q 494 147 500 166 
L 978 2075 
Q 1025 2253 1025 2388 
Q 1025 2663 838 2663 
Q 638 2663 541 2423 
Q 444 2184 353 1819 
Q 353 1800 334 1789 
Q 316 1778 300 1778 
L 225 1778 
Q 203 1778 187 1801 
Q 172 1825 172 1844 
Q 241 2122 305 2315 
Q 369 2509 505 2668 
Q 641 2828 844 2828 
Q 1066 2828 1233 2700 
Q 1400 2572 1441 2363 
Q 1603 2575 1811 2701 
Q 2019 2828 2266 2828 
Q 2469 2828 2623 2709 
Q 2778 2591 2778 2388 
Q 2778 2225 2676 2104 
Q 2575 1984 2406 1984 
Q 2303 1984 2233 2048 
Q 2163 2113 2163 2216 
Q 2163 2356 2266 2467 
Q 2369 2578 2503 2578 
Q 2400 2663 2253 2663 
Q 1978 2663 1775 2467 
Q 1572 2272 1409 1972 
L 953 141 
Q 931 53 854 -9 
Q 778 -72 684 -72 
Q 606 -72 550 -22 
Q 494 28 494 109 
z
" transform="scale(0.015625)"/>
     </defs>
     <use xlink:href="#DejaVuSans-64" transform="translate(0 0.015625)"/>
     <use xlink:href="#DejaVuSans-69" transform="translate(63.476562 0.015625)"/>
     <use xlink:href="#DejaVuSans-6d" transform="translate(91.259766 0.015625)"/>
     <use xlink:href="#DejaVuSans-65" transform="translate(188.671875 0.015625)"/>
     <use xlink:href="#DejaVuSans-6e" transform="translate(250.195312 0.015625)"/>
     <use xlink:href="#DejaVuSans-73" transform="translate(313.574219 0.015625)"/>
     <use xlink:href="#DejaVuSans-69" transform="translate(365.673828 0.015625)"/>
     <use xlink:href="#DejaVuSans-6f" transform="translate(393.457031 0.015625)"/>
     <use xlink:href="#DejaVuSans-6e" transform="translate(454.638672 0.015625)"/>
     <use xlink:href="#DejaVuSans-20" transform="translate(518.017578 0.015625)"/>
     <use xlink:href="#Cmmi10-72" transform="translate(549.804688 0.015625)"/>
    </g>
   </g>
   <g id="text_3">
    <!-- Espace nul -->
    <g transform="translate(41.424528 173.954265)rotate(-315)scale(0.1 -0.1)">
     <defs>
      <path id="DejaVuSans-75" d="M 544 1381 
L 544 3500 
L 1119 3500 
L 1119 1403 
Q 1119 906 1312 657 
Q 1506 409 1894 409 
Q 2359 409 2629 706 
Q 2900 1003 2900 1516 
L 2900 3500 
L 3475 3500 
L 3475 0 
L 2900 0 
L 2900 538 
Q 2691 219 2414 64 
Q 2138 -91 1772 -91 
Q 1169 -91 856 284 
Q 544 659 544 1381 
z
M 1991 3584 
L 1991 3584 
z
" transform="scale(0.015625)"/>
     </defs>
     <use xlink:href="#DejaVuSans-45"/>
     <use xlink:href="#DejaVuSans-73" x="63.183594"/>
     <use xlink:href="#DejaVuSans-70" x="115.283203"/>
     <use xlink:href="#DejaVuSans-61" x="178.759766"/>
     <use xlink:href="#DejaVuSans-63" x="240.039062"/>
     <use xlink:href="#DejaVuSans-65" x="295.019531"/>
     <use xlink:href="#DejaVuSans-20" x="356.542969"/>
     <use xlink:href="#DejaVuSans-6e" x="388.330078"/>
     <use xlink:href="#DejaVuSans-75" x="451.708984"/>
     <use xlink:href="#DejaVuSans-6c" x="515.087891"/>
    </g>
   </g>
   <g id="text_4">
    <!-- dimension $n-r$ -->
    <g transform="translate(45.195927 198.841048)rotate(-315)scale(0.1 -0.1)">
     <defs>
      <path id="Cmmi10-6e" d="M 494 109 
Q 494 147 500 166 
L 978 2075 
Q 1025 2253 1025 2388 
Q 1025 2663 838 2663 
Q 638 2663 541 2423 
Q 444 2184 353 1819 
Q 353 1800 334 1789 
Q 316 1778 300 1778 
L 225 1778 
Q 203 1778 187 1801 
Q 172 1825 172 1844 
Q 241 2122 305 2315 
Q 369 2509 505 2668 
Q 641 2828 844 2828 
Q 1084 2828 1268 2676 
Q 1453 2525 1453 2291 
Q 1644 2541 1900 2684 
Q 2156 2828 2444 2828 
Q 2672 2828 2837 2750 
Q 3003 2672 3095 2514 
Q 3188 2356 3188 2138 
Q 3188 1875 3070 1503 
Q 2953 1131 2778 672 
Q 2688 463 2688 288 
Q 2688 97 2834 97 
Q 3084 97 3251 365 
Q 3419 634 3488 941 
Q 3500 978 3541 978 
L 3616 978 
Q 3641 978 3658 962 
Q 3675 947 3675 922 
Q 3675 916 3669 903 
Q 3581 541 3364 234 
Q 3147 -72 2822 -72 
Q 2597 -72 2437 83 
Q 2278 238 2278 459 
Q 2278 578 2328 709 
Q 2409 919 2514 1209 
Q 2619 1500 2686 1765 
Q 2753 2031 2753 2234 
Q 2753 2413 2679 2538 
Q 2606 2663 2431 2663 
Q 2197 2663 2000 2559 
Q 1803 2456 1656 2286 
Q 1509 2116 1388 1881 
L 953 141 
Q 931 53 854 -9 
Q 778 -72 684 -72 
Q 606 -72 550 -22 
Q 494 28 494 109 
z
" transform="scale(0.015625)"/>
      <path id="Cmsy10-a1" d="M 653 1472 
Q 600 1472 565 1512 
Q 531 1553 531 1600 
Q 531 1647 565 1687 
Q 600 1728 653 1728 
L 4325 1728 
Q 4375 1728 4408 1687 
Q 4441 1647 4441 1600 
Q 4441 1553 4408 1512 
Q 4375 1472 4325 1472 
L 653 1472 
z
" transform="scale(0.015625)"/>
     </defs>
     <use xlink:href="#DejaVuSans-64" transform="translate(0 0.015625)"/>
     <use xlink:href="#DejaVuSans-69" transform="translate(63.476562 0.015625)"/>
     <use xlink:href="#DejaVuSans-6d" transform="translate(91.259766 0.015625)"/>
     <use xlink:href="#DejaVuSans-65" transform="translate(188.671875 0.015625)"/>
     <use xlink:href="#DejaVuSans-6e" transform="translate(250.195312 0.015625)"/>
     <use xlink:href="#DejaVuSans-73" transform="translate(313.574219 0.015625)"/>
     <use xlink:href="#DejaVuSans-69" transform="translate(365.673828 0.015625)"/>
     <use xlink:href="#DejaVuSans-6f" transform="translate(393.457031 0.015625)"/>
     <use xlink:href="#DejaVuSans-6e" transform="translate(454.638672 0.015625)"/>
     <use xlink:href="#DejaVuSans-20" transform="translate(518.017578 0.015625)"/>
     <use xlink:href="#Cmmi10-6e" transform="translate(549.804688 0.015625)"/>
     <use xlink:href="#Cmsy10-a1" transform="translate(627.373047 0.015625)"/>
     <use xlink:href="#Cmmi10-72" transform="translate(722.617188 0.015625)"/>
    </g>
   </g>
   <g id="text_5">
    <!-- Espace colonne -->
    <g transform="translate(332.113085 28.258206)rotate(-315)scale(0.1 -0.1)">
     <use xlink:href="#DejaVuSans-45"/>
     <use xlink:href="#DejaVuSans-73" x="63.183594"/>
     <use xlink:href="#DejaVuSans-70" x="115.283203"/>
     <use xlink:href="#DejaVuSans-61" x="178.759766"/>
     <use xlink:href="#DejaVuSans-63" x="240.039062"/>
     <use xlink:href="#DejaVuSans-65" x="295.019531"/>
     <use xlink:href="#DejaVuSans-20" x="356.542969"/>
     <use xlink:href="#DejaVuSans-63" x="388.330078"/>
     <use xlink:href="#DejaVuSans-6f" x="443.310547"/>
     <use xlink:href="#DejaVuSans-6c" x="504.492188"/>
     <use xlink:href="#DejaVuSans-6f" x="532.275391"/>
     <use xlink:href="#DejaVuSans-6e" x="593.457031"/>
     <use xlink:href="#DejaVuSans-6e" x="656.835938"/>
     <use xlink:href="#DejaVuSans-65" x="720.214844"/>
    </g>
   </g>
   <g id="text_6">
    <!-- dimension $r$ -->
    <g transform="translate(344.581631 12.572907)rotate(-315)scale(0.1 -0.1)">
     <use xlink:href="#DejaVuSans-64" transform="translate(0 0.015625)"/>
     <use xlink:href="#DejaVuSans-69" transform="translate(63.476562 0.015625)"/>
     <use xlink:href="#DejaVuSans-6d" transform="translate(91.259766 0.015625)"/>
     <use xlink:href="#DejaVuSans-65" transform="translate(188.671875 0.015625)"/>
     <use xlink:href="#DejaVuSans-6e" transform="translate(250.195312 0.015625)"/>
     <use xlink:href="#DejaVuSans-73" transform="translate(313.574219 0.015625)"/>
     <use xlink:href="#DejaVuSans-69" transform="translate(365.673828 0.015625)"/>
     <use xlink:href="#DejaVuSans-6f" transform="translate(393.457031 0.015625)"/>
     <use xlink:href="#DejaVuSans-6e" transform="translate(454.638672 0.015625)"/>
     <use xlink:href="#DejaVuSans-20" transform="translate(518.017578 0.015625)"/>
     <use xlink:href="#Cmmi10-72" transform="translate(549.804688 0.015625)"/>
    </g>
   </g>
   <g id="text_7">
    <!-- Espace nul-gauche -->
    <g transform="translate(359.500988 259.474902)rotate(-45)scale(0.1 -0.1)">
     <defs>
      <path id="DejaVuSans-2d" d="M 313 2009 
L 1997 2009 
L 1997 1497 
L 313 1497 
L 313 2009 
z
" transform="scale(0.015625)"/>
      <path id="DejaVuSans-68" d="M 3513 2113 
L 3513 0 
L 2938 0 
L 2938 2094 
Q 2938 2591 2744 2837 
Q 2550 3084 2163 3084 
Q 1697 3084 1428 2787 
Q 1159 2491 1159 1978 
L 1159 0 
L 581 0 
L 581 4863 
L 1159 4863 
L 1159 2956 
Q 1366 3272 1645 3428 
Q 1925 3584 2291 3584 
Q 2894 3584 3203 3211 
Q 3513 2838 3513 2113 
z
" transform="scale(0.015625)"/>
     </defs>
     <use xlink:href="#DejaVuSans-45"/>
     <use xlink:href="#DejaVuSans-73" x="63.183594"/>
     <use xlink:href="#DejaVuSans-70" x="115.283203"/>
     <use xlink:href="#DejaVuSans-61" x="178.759766"/>
     <use xlink:href="#DejaVuSans-63" x="240.039062"/>
     <use xlink:href="#DejaVuSans-65" x="295.019531"/>
     <use xlink:href="#DejaVuSans-20" x="356.542969"/>
     <use xlink:href="#DejaVuSans-6e" x="388.330078"/>
     <use xlink:href="#DejaVuSans-75" x="451.708984"/>
     <use xlink:href="#DejaVuSans-6c" x="515.087891"/>
     <use xlink:href="#DejaVuSans-2d" x="542.871094"/>
     <use xlink:href="#DejaVuSans-67" x="578.955078"/>
     <use xlink:href="#DejaVuSans-61" x="642.431641"/>
     <use xlink:href="#DejaVuSans-75" x="703.710938"/>
     <use xlink:href="#DejaVuSans-63" x="767.089844"/>
     <use xlink:href="#DejaVuSans-68" x="822.070312"/>
     <use xlink:href="#DejaVuSans-65" x="885.449219"/>
    </g>
   </g>
   <g id="text_8">
    <!-- dimension $m-r$ -->
    <g transform="translate(376.569861 270.559876)rotate(-45)scale(0.1 -0.1)">
     <defs>
      <path id="Cmmi10-6d" d="M 494 109 
Q 494 147 500 166 
L 978 2075 
Q 1025 2253 1025 2388 
Q 1025 2663 838 2663 
Q 638 2663 541 2423 
Q 444 2184 353 1819 
Q 353 1800 334 1789 
Q 316 1778 300 1778 
L 225 1778 
Q 203 1778 187 1801 
Q 172 1825 172 1844 
Q 241 2122 305 2315 
Q 369 2509 505 2668 
Q 641 2828 844 2828 
Q 1084 2828 1268 2676 
Q 1453 2525 1453 2291 
Q 1644 2541 1900 2684 
Q 2156 2828 2444 2828 
Q 2747 2828 2967 2673 
Q 3188 2519 3188 2234 
Q 3384 2513 3648 2670 
Q 3913 2828 4225 2828 
Q 4556 2828 4757 2648 
Q 4959 2469 4959 2138 
Q 4959 1875 4842 1503 
Q 4725 1131 4550 672 
Q 4459 450 4459 288 
Q 4459 97 4609 97 
Q 4859 97 5025 365 
Q 5191 634 5259 941 
Q 5278 978 5313 978 
L 5388 978 
Q 5413 978 5430 961 
Q 5447 944 5447 922 
Q 5447 916 5441 903 
Q 5353 541 5136 234 
Q 4919 -72 4594 -72 
Q 4369 -72 4209 83 
Q 4050 238 4050 459 
Q 4050 572 4103 709 
Q 4284 1191 4404 1569 
Q 4525 1947 4525 2234 
Q 4525 2413 4453 2538 
Q 4381 2663 4213 2663 
Q 3863 2663 3606 2448 
Q 3350 2234 3163 1881 
Q 3150 1819 3144 1784 
L 2731 141 
Q 2709 53 2632 -9 
Q 2556 -72 2463 -72 
Q 2388 -72 2330 -22 
Q 2272 28 2272 109 
Q 2272 147 2278 166 
L 2688 1797 
Q 2753 2059 2753 2234 
Q 2753 2413 2679 2538 
Q 2606 2663 2431 2663 
Q 2197 2663 2000 2559 
Q 1803 2456 1656 2286 
Q 1509 2116 1388 1881 
L 953 141 
Q 931 53 854 -9 
Q 778 -72 684 -72 
Q 606 -72 550 -22 
Q 494 28 494 109 
z
" transform="scale(0.015625)"/>
     </defs>
     <use xlink:href="#DejaVuSans-64" transform="translate(0 0.015625)"/>
     <use xlink:href="#DejaVuSans-69" transform="translate(63.476562 0.015625)"/>
     <use xlink:href="#DejaVuSans-6d" transform="translate(91.259766 0.015625)"/>
     <use xlink:href="#DejaVuSans-65" transform="translate(188.671875 0.015625)"/>
     <use xlink:href="#DejaVuSans-6e" transform="translate(250.195312 0.015625)"/>
     <use xlink:href="#DejaVuSans-73" transform="translate(313.574219 0.015625)"/>
     <use xlink:href="#DejaVuSans-69" transform="translate(365.673828 0.015625)"/>
     <use xlink:href="#DejaVuSans-6f" transform="translate(393.457031 0.015625)"/>
     <use xlink:href="#DejaVuSans-6e" transform="translate(454.638672 0.015625)"/>
     <use xlink:href="#DejaVuSans-20" transform="translate(518.017578 0.015625)"/>
     <use xlink:href="#Cmmi10-6d" transform="translate(549.804688 0.015625)"/>
     <use xlink:href="#Cmsy10-a1" transform="translate(655.15625 0.015625)"/>
     <use xlink:href="#Cmmi10-72" transform="translate(750.400391 0.015625)"/>
    </g>
   </g>
  </g>
 </g>
 <defs>
  <clipPath id="p59bf33bbbc">
   <rect x="7.2" y="7.375468" width="439.2" height="286.7"/>
  </clipPath>
 </defs>
</svg>
