<?xml version="1.0" encoding="utf-8" standalone="no"?>
<!DOCTYPE svg PUBLIC "-//W3C//DTD SVG 1.1//EN"
  "http://www.w3.org/Graphics/SVG/1.1/DTD/svg11.dtd">
<svg xmlns:xlink="http://www.w3.org/1999/xlink" width="364.570608pt" height="338.4pt" viewBox="0 0 364.570608 338.4" xmlns="http://www.w3.org/2000/svg" version="1.1">
 <metadata>
  <rdf:RDF xmlns:dc="http://purl.org/dc/elements/1.1/" xmlns:cc="http://creativecommons.org/ns#" xmlns:rdf="http://www.w3.org/1999/02/22-rdf-syntax-ns#">
   <cc:Work>
    <dc:type rdf:resource="http://purl.org/dc/dcmitype/StillImage"/>
    <dc:date>2023-02-03T16:34:05.237256</dc:date>
    <dc:format>image/svg+xml</dc:format>
    <dc:creator>
     <cc:Agent>
      <dc:title>Matplotlib v3.5.2, https://matplotlib.org/</dc:title>
     </cc:Agent>
    </dc:creator>
   </cc:Work>
  </rdf:RDF>
 </metadata>
 <defs>
  <style type="text/css">*{stroke-linejoin: round; stroke-linecap: butt}</style>
 </defs>
 <g id="figure_1">
  <g id="patch_1">
   <path d="M 0 338.4 
L 364.570608 338.4 
L 364.570608 0 
L 0 0 
z
" style="fill: #ffffff"/>
  </g>
  <g id="axes_1">
   <g id="patch_2">
    <path d="M 7.2 331.2 
L 357.370608 331.2 
L 357.370608 7.2 
L 7.2 7.2 
z
" style="fill: #ffffff"/>
   </g>
   <g id="patch_3">
    <path d="M 178.775242 33.162504 
Q 126.924689 174.289034 32.062926 288.038922 
" clip-path="url(#pe99de5a9f7)" style="fill: none; stroke: #000000; stroke-width: 2; stroke-linecap: round"/>
    <path d="M 42.307507 283.56136 
L 32.062926 288.038922 
L 34.627626 277.15672 
L 42.307507 283.56136 
z
" clip-path="url(#pe99de5a9f7)" style="stroke: #000000; stroke-width: 2; stroke-linecap: round"/>
   </g>
   <g id="patch_4">
    <path d="M 174.334496 33.142747 
Q 79.472733 146.892635 27.62218 288.019165 
" clip-path="url(#pe99de5a9f7)" style="fill: none; stroke: #000000; stroke-width: 2; stroke-linecap: round"/>
    <path d="M 164.089915 37.620309 
L 174.334496 33.142747 
L 171.769797 44.024949 
L 164.089915 37.620309 
z
" clip-path="url(#pe99de5a9f7)" style="stroke: #000000; stroke-width: 2; stroke-linecap: round"/>
   </g>
   <g id="patch_5">
    <path d="M 34.140867 295.835801 
Q 182.285304 270.176432 328.226478 295.454185 
" clip-path="url(#pe99de5a9f7)" style="fill: none; stroke: #000000; stroke-width: 2; stroke-linecap: round"/>
    <path d="M 319.226505 288.820898 
L 328.226478 295.454185 
L 317.519865 298.674191 
L 319.226505 288.820898 
z
" clip-path="url(#pe99de5a9f7)" style="stroke: #000000; stroke-width: 2; stroke-linecap: round"/>
   </g>
   <g id="patch_6">
    <path d="M 36.34413 299.691478 
Q 182.285304 324.969231 330.429741 299.309862 
" clip-path="url(#pe99de5a9f7)" style="fill: none; stroke: #000000; stroke-width: 2; stroke-linecap: round"/>
    <path d="M 45.344103 306.324765 
L 36.34413 299.691478 
L 47.050743 296.471472 
L 45.344103 306.324765 
z
" clip-path="url(#pe99de5a9f7)" style="stroke: #000000; stroke-width: 2; stroke-linecap: round"/>
   </g>
   <g id="matplotlib.axis_1"/>
   <g id="matplotlib.axis_2"/>
   <g id="patch_7">
    <path d="M 187.374338 32.423303 
Q 261.371897 160.590834 334.251422 286.821874 
" clip-path="url(#pe99de5a9f7)" style="fill: none; stroke: #000000; stroke-width: 2; stroke-linecap: round"/>
    <path d="M 333.581549 275.66162 
L 334.251422 286.821874 
L 324.921295 280.66162 
L 333.581549 275.66162 
z
" clip-path="url(#pe99de5a9f7)" style="stroke: #000000; stroke-width: 2; stroke-linecap: round"/>
   </g>
   <g id="text_1">
    <g id="patch_8">
     <path d="M 103.014825 176.278997 
L 127.108575 176.278997 
L 127.108575 158.600872 
L 103.014825 158.600872 
z
" style="fill: #ffffff; stroke: #ffffff; stroke-linejoin: miter"/>
    </g>
    <!-- 1/5 -->
    <g style="fill: #0000ff" transform="translate(107.014825 170.199309)scale(0.1 -0.1)">
     <defs>
      <path id="DejaVuSans-31" d="M 794 531 
L 1825 531 
L 1825 4091 
L 703 3866 
L 703 4441 
L 1819 4666 
L 2450 4666 
L 2450 531 
L 3481 531 
L 3481 0 
L 794 0 
L 794 531 
z
" transform="scale(0.015625)"/>
      <path id="DejaVuSans-2f" d="M 1625 4666 
L 2156 4666 
L 531 -594 
L 0 -594 
L 1625 4666 
z
" transform="scale(0.015625)"/>
      <path id="DejaVuSans-35" d="M 691 4666 
L 3169 4666 
L 3169 4134 
L 1269 4134 
L 1269 2991 
Q 1406 3038 1543 3061 
Q 1681 3084 1819 3084 
Q 2600 3084 3056 2656 
Q 3513 2228 3513 1497 
Q 3513 744 3044 326 
Q 2575 -91 1722 -91 
Q 1428 -91 1123 -41 
Q 819 9 494 109 
L 494 744 
Q 775 591 1075 516 
Q 1375 441 1709 441 
Q 2250 441 2565 725 
Q 2881 1009 2881 1497 
Q 2881 1984 2565 2268 
Q 2250 2553 1709 2553 
Q 1456 2553 1204 2497 
Q 953 2441 691 2322 
L 691 4666 
z
" transform="scale(0.015625)"/>
     </defs>
     <use xlink:href="#DejaVuSans-31"/>
     <use xlink:href="#DejaVuSans-2f" x="63.623047"/>
     <use xlink:href="#DejaVuSans-35" x="97.314453"/>
    </g>
   </g>
   <g id="text_2">
    <g id="patch_9">
     <path d="M 79.288847 162.580797 
L 103.382597 162.580797 
L 103.382597 144.902672 
L 79.288847 144.902672 
z
" style="fill: #ffffff; stroke: #ffffff; stroke-linejoin: miter"/>
    </g>
    <!-- 1/3 -->
    <g style="fill: #0000ff" transform="translate(83.288847 156.50111)scale(0.1 -0.1)">
     <defs>
      <path id="DejaVuSans-33" d="M 2597 2516 
Q 3050 2419 3304 2112 
Q 3559 1806 3559 1356 
Q 3559 666 3084 287 
Q 2609 -91 1734 -91 
Q 1441 -91 1130 -33 
Q 819 25 488 141 
L 488 750 
Q 750 597 1062 519 
Q 1375 441 1716 441 
Q 2309 441 2620 675 
Q 2931 909 2931 1356 
Q 2931 1769 2642 2001 
Q 2353 2234 1838 2234 
L 1294 2234 
L 1294 2753 
L 1863 2753 
Q 2328 2753 2575 2939 
Q 2822 3125 2822 3475 
Q 2822 3834 2567 4026 
Q 2313 4219 1838 4219 
Q 1578 4219 1281 4162 
Q 984 4106 628 3988 
L 628 4550 
Q 988 4650 1302 4700 
Q 1616 4750 1894 4750 
Q 2613 4750 3031 4423 
Q 3450 4097 3450 3541 
Q 3450 3153 3228 2886 
Q 3006 2619 2597 2516 
z
" transform="scale(0.015625)"/>
     </defs>
     <use xlink:href="#DejaVuSans-31"/>
     <use xlink:href="#DejaVuSans-2f" x="63.623047"/>
     <use xlink:href="#DejaVuSans-33" x="97.314453"/>
    </g>
   </g>
   <g id="text_3">
    <g id="patch_10">
     <path d="M 170.238429 292.713694 
L 194.332179 292.713694 
L 194.332179 275.035569 
L 170.238429 275.035569 
z
" style="fill: #ffffff; stroke: #ffffff; stroke-linejoin: miter"/>
    </g>
    <!-- 2/3 -->
    <g style="fill: #0000ff" transform="translate(174.238429 286.634007)scale(0.1 -0.1)">
     <defs>
      <path id="DejaVuSans-32" d="M 1228 531 
L 3431 531 
L 3431 0 
L 469 0 
L 469 531 
Q 828 903 1448 1529 
Q 2069 2156 2228 2338 
Q 2531 2678 2651 2914 
Q 2772 3150 2772 3378 
Q 2772 3750 2511 3984 
Q 2250 4219 1831 4219 
Q 1534 4219 1204 4116 
Q 875 4013 500 3803 
L 500 4441 
Q 881 4594 1212 4672 
Q 1544 4750 1819 4750 
Q 2544 4750 2975 4387 
Q 3406 4025 3406 3419 
Q 3406 3131 3298 2873 
Q 3191 2616 2906 2266 
Q 2828 2175 2409 1742 
Q 1991 1309 1228 531 
z
" transform="scale(0.015625)"/>
     </defs>
     <use xlink:href="#DejaVuSans-32"/>
     <use xlink:href="#DejaVuSans-2f" x="63.623047"/>
     <use xlink:href="#DejaVuSans-33" x="97.314453"/>
    </g>
   </g>
   <g id="text_4">
    <g id="patch_11">
     <path d="M 175.104054 320.110094 
L 189.466554 320.110094 
L 189.466554 302.431969 
L 175.104054 302.431969 
z
" style="fill: #ffffff; stroke: #ffffff; stroke-linejoin: miter"/>
    </g>
    <!-- 1 -->
    <g style="fill: #0000ff" transform="translate(179.104054 314.030406)scale(0.1 -0.1)">
     <use xlink:href="#DejaVuSans-31"/>
    </g>
   </g>
   <g id="text_5">
    <g id="patch_12">
     <path d="M 249.325022 169.429897 
L 273.418772 169.429897 
L 273.418772 151.751772 
L 249.325022 151.751772 
z
" style="fill: #ffffff; stroke: #ffffff; stroke-linejoin: miter"/>
    </g>
    <!-- 4/5 -->
    <g style="fill: #0000ff" transform="translate(253.325022 163.350209)scale(0.1 -0.1)">
     <defs>
      <path id="DejaVuSans-34" d="M 2419 4116 
L 825 1625 
L 2419 1625 
L 2419 4116 
z
M 2253 4666 
L 3047 4666 
L 3047 1625 
L 3713 1625 
L 3713 1100 
L 3047 1100 
L 3047 0 
L 2419 0 
L 2419 1100 
L 313 1100 
L 313 1709 
L 2253 4666 
z
" transform="scale(0.015625)"/>
     </defs>
     <use xlink:href="#DejaVuSans-34"/>
     <use xlink:href="#DejaVuSans-2f" x="63.623047"/>
     <use xlink:href="#DejaVuSans-35" x="97.314453"/>
    </g>
   </g>
   <g id="patch_13">
    <path d="M 182.285304 33.786906 
C 184.984559 33.786906 187.573623 32.71448 189.482285 30.805819 
C 191.390947 28.897157 192.463372 26.308093 192.463372 23.608838 
C 192.463372 20.909582 191.390947 18.320518 189.482285 16.411856 
C 187.573623 14.503195 184.984559 13.430769 182.285304 13.430769 
C 179.586049 13.430769 176.996985 14.503195 175.088323 16.411856 
C 173.179661 18.320518 172.107236 20.909582 172.107236 23.608838 
C 172.107236 26.308093 173.179661 28.897157 175.088323 30.805819 
C 176.996985 32.71448 179.586049 33.786906 182.285304 33.786906 
z
" style="fill: #fec7b8; stroke: #000000; stroke-linejoin: miter"/>
   </g>
   <g id="patch_14">
    <path d="M 24.112118 307.7509 
C 26.811374 307.7509 29.400438 306.678474 31.3091 304.769812 
C 33.217761 302.861151 34.290187 300.272087 34.290187 297.572831 
C 34.290187 294.873576 33.217761 292.284512 31.3091 290.37585 
C 29.400438 288.467189 26.811374 287.394763 24.112118 287.394763 
C 21.412863 287.394763 18.823799 288.467189 16.915137 290.37585 
C 15.006476 292.284512 13.93405 294.873576 13.93405 297.572831 
C 13.93405 300.272087 15.006476 302.861151 16.915137 304.769812 
C 18.823799 306.678474 21.412863 307.7509 24.112118 307.7509 
z
" style="fill: #fec7b8; stroke: #000000; stroke-linejoin: miter"/>
   </g>
   <g id="patch_15">
    <path d="M 340.45849 307.7509 
C 343.157745 307.7509 345.746809 306.678474 347.655471 304.769812 
C 349.564132 302.861151 350.636558 300.272087 350.636558 297.572831 
C 350.636558 294.873576 349.564132 292.284512 347.655471 290.37585 
C 345.746809 288.467189 343.157745 287.394763 340.45849 287.394763 
C 337.759234 287.394763 335.17017 288.467189 333.261509 290.37585 
C 331.352847 292.284512 330.280421 294.873576 330.280421 297.572831 
C 330.280421 300.272087 331.352847 302.861151 333.261509 304.769812 
C 335.17017 306.678474 337.759234 307.7509 340.45849 307.7509 
z
" style="fill: #fec7b8; stroke: #000000; stroke-linejoin: miter"/>
   </g>
   <g id="text_6">
    <!-- 0 -->
    <g transform="translate(179.104054 26.368213)scale(0.1 -0.1)">
     <defs>
      <path id="DejaVuSans-30" d="M 2034 4250 
Q 1547 4250 1301 3770 
Q 1056 3291 1056 2328 
Q 1056 1369 1301 889 
Q 1547 409 2034 409 
Q 2525 409 2770 889 
Q 3016 1369 3016 2328 
Q 3016 3291 2770 3770 
Q 2525 4250 2034 4250 
z
M 2034 4750 
Q 2819 4750 3233 4129 
Q 3647 3509 3647 2328 
Q 3647 1150 3233 529 
Q 2819 -91 2034 -91 
Q 1250 -91 836 529 
Q 422 1150 422 2328 
Q 422 3509 836 4129 
Q 1250 4750 2034 4750 
z
" transform="scale(0.015625)"/>
     </defs>
     <use xlink:href="#DejaVuSans-30"/>
    </g>
   </g>
   <g id="text_7">
    <!-- 1 -->
    <g transform="translate(20.930868 300.332206)scale(0.1 -0.1)">
     <use xlink:href="#DejaVuSans-31"/>
    </g>
   </g>
   <g id="text_8">
    <!-- 2 -->
    <g transform="translate(337.27724 300.332206)scale(0.1 -0.1)">
     <use xlink:href="#DejaVuSans-32"/>
    </g>
   </g>
  </g>
 </g>
 <defs>
  <clipPath id="pe99de5a9f7">
   <rect x="7.2" y="7.2" width="350.170608" height="324"/>
  </clipPath>
 </defs>
</svg>
