<?xml version="1.0" encoding="utf-8" standalone="no"?>
<!DOCTYPE svg PUBLIC "-//W3C//DTD SVG 1.1//EN"
  "http://www.w3.org/Graphics/SVG/1.1/DTD/svg11.dtd">
<svg xmlns:xlink="http://www.w3.org/1999/xlink" width="383.90009pt" height="335.751516pt" viewBox="0 0 383.90009 335.751516" xmlns="http://www.w3.org/2000/svg" version="1.1">
 <metadata>
  <rdf:RDF xmlns:dc="http://purl.org/dc/elements/1.1/" xmlns:cc="http://creativecommons.org/ns#" xmlns:rdf="http://www.w3.org/1999/02/22-rdf-syntax-ns#">
   <cc:Work>
    <dc:type rdf:resource="http://purl.org/dc/dcmitype/StillImage"/>
    <dc:date>2023-01-24T19:51:59.621885</dc:date>
    <dc:format>image/svg+xml</dc:format>
    <dc:creator>
     <cc:Agent>
      <dc:title>Matplotlib v3.5.2, https://matplotlib.org/</dc:title>
     </cc:Agent>
    </dc:creator>
   </cc:Work>
  </rdf:RDF>
 </metadata>
 <defs>
  <style type="text/css">*{stroke-linejoin: round; stroke-linecap: butt}</style>
 </defs>
 <g id="figure_1">
  <g id="patch_1">
   <path d="M 0 335.751516 
L 383.90009 335.751516 
L 383.90009 0 
L 0 0 
z
" style="fill: #ffffff"/>
  </g>
  <g id="axes_1">
   <g id="patch_2">
    <path d="M 7.2 324.913297 
L 376.70009 324.913297 
L 376.70009 10.83822 
L 7.2 10.83822 
z
" style="fill: #ffffff"/>
   </g>
   <g id="patch_3">
    <path d="M 23.187985 309.991178 
L 94.245694 132.346903 
L 360.712106 25.760339 
L 289.654396 203.404613 
z
" clip-path="url(#p081013925e)" style="fill: #0000ff; opacity: 0.15"/>
   </g>
   <g id="patch_4">
    <path d="M 23.187985 309.991178 
L 94.245694 132.346903 
L 23.187985 132.346903 
z
" clip-path="url(#p081013925e)" style="fill: #ff0000; opacity: 0.15"/>
   </g>
   <g id="patch_5">
    <path d="M 289.654396 203.404613 
L 360.712106 25.760339 
L 360.712106 203.404613 
z
" clip-path="url(#p081013925e)" style="fill: #ff0000; opacity: 0.15"/>
   </g>
   <g id="patch_6">
    <path d="M 23.187985 309.991178 
L 289.654396 203.404613 
L 289.654396 309.991178 
z
" clip-path="url(#p081013925e)" style="fill: #008000; opacity: 0.15"/>
   </g>
   <g id="patch_7">
    <path d="M 94.245694 132.346903 
L 94.245694 25.760339 
L 360.712106 25.760339 
z
" clip-path="url(#p081013925e)" style="fill: #008000; opacity: 0.15"/>
   </g>
   <g id="patch_8">
    <path d="M 23.187985 132.346903 
L 23.187985 25.760339 
L 94.245694 25.760339 
L 94.245694 132.346903 
z
" clip-path="url(#p081013925e)" style="fill: #ffff00; opacity: 0.15"/>
   </g>
   <g id="patch_9">
    <path d="M 289.654396 309.991178 
L 360.712106 309.991178 
L 360.712106 203.404613 
L 289.654396 203.404613 
z
" clip-path="url(#p081013925e)" style="fill: #ffff00; opacity: 0.15"/>
   </g>
   <g id="matplotlib.axis_1"/>
   <g id="matplotlib.axis_2"/>
   <g id="patch_10">
    <path d="M 23.187985 309.991178 
Q 58.71684 221.16904 93.41524 134.42304 
" clip-path="url(#p081013925e)" style="fill: none; stroke: #000000; stroke-width: 2; stroke-linecap: round"/>
    <path d="M 85.058949 141.850854 
L 93.41524 134.42304 
L 94.343716 145.564761 
L 85.058949 141.850854 
z
" clip-path="url(#p081013925e)" style="stroke: #000000; stroke-width: 2; stroke-linecap: round"/>
   </g>
   <g id="patch_11">
    <path d="M 23.187985 309.991178 
Q 156.42119 256.697895 287.578259 204.235068 
" clip-path="url(#p081013925e)" style="fill: none; stroke: #000000; stroke-width: 2; stroke-linecap: round"/>
    <path d="M 276.436539 203.306591 
L 287.578259 204.235068 
L 280.150446 212.591358 
L 276.436539 203.306591 
z
" clip-path="url(#p081013925e)" style="stroke: #000000; stroke-width: 2; stroke-linecap: round"/>
   </g>
   <g id="patch_12">
    <path d="M 289.654396 203.404613 
Q 325.183251 114.582476 359.881651 27.836476 
" clip-path="url(#p081013925e)" style="fill: none; stroke-dasharray: 7.4,3.2; stroke-dashoffset: 0; stroke: #000000; stroke-width: 2; stroke-linecap: round"/>
    <path d="M 351.525361 35.264289 
L 359.881651 27.836476 
L 360.810128 38.978196 
L 351.525361 35.264289 
z
" clip-path="url(#p081013925e)" style="stroke: #000000; stroke-width: 2; stroke-linecap: round"/>
    <g id="patch_13">
     <path d="M 94.245694 132.346903 
Q 227.4789 79.053621 358.635969 26.590794 
" clip-path="url(#p081013925e)" style="fill: none; stroke-dasharray: 7.4,3.2; stroke-dashoffset: 0; stroke: #000000; stroke-width: 2; stroke-linecap: round"/>
     <path d="M 347.494249 25.662317 
L 358.635969 26.590794 
L 351.208155 34.947084 
L 347.494249 25.662317 
z
" clip-path="url(#p081013925e)" style="stroke: #000000; stroke-width: 2; stroke-linecap: round"/>
     <g id="line2d_1">
      <path d="M 289.654396 203.404613 
L 289.654396 309.991178 
" clip-path="url(#p081013925e)" style="fill: none; stroke-dasharray: 3.7,1.6; stroke-dashoffset: 0; stroke: #000000"/>
     </g>
     <g id="line2d_2">
      <path d="M 94.245694 132.346903 
L 23.187985 132.346903 
" clip-path="url(#p081013925e)" style="fill: none; stroke-dasharray: 3.7,1.6; stroke-dashoffset: 0; stroke: #000000"/>
     </g>
     <g id="line2d_3">
      <path d="M 360.712106 25.760339 
L 360.712106 309.991178 
" clip-path="url(#p081013925e)" style="fill: none; stroke-dasharray: 3.7,1.6; stroke-dashoffset: 0; stroke: #000000"/>
     </g>
     <g id="line2d_4">
      <path d="M 360.712106 25.760339 
L 23.187985 25.760339 
" clip-path="url(#p081013925e)" style="fill: none; stroke-dasharray: 3.7,1.6; stroke-dashoffset: 0; stroke: #000000"/>
     </g>
     <g id="line2d_5">
      <path d="M 289.654396 203.404613 
L 360.712106 203.404613 
" clip-path="url(#p081013925e)" style="fill: none; stroke-dasharray: 3.7,1.6; stroke-dashoffset: 0; stroke: #000000"/>
     </g>
     <g id="line2d_6">
      <path d="M 94.245694 132.346903 
L 94.245694 25.760339 
" clip-path="url(#p081013925e)" style="fill: none; stroke-dasharray: 3.7,1.6; stroke-dashoffset: 0; stroke: #000000"/>
     </g>
     <g id="patch_14">
      <path d="M 23.187985 324.913297 
L 23.187985 10.83822 
" style="fill: none; stroke: #000000; stroke-width: 0.8; stroke-linejoin: miter; stroke-linecap: square"/>
     </g>
     <g id="patch_15">
      <path d="M 7.2 309.991178 
L 376.70009 309.991178 
" style="fill: none; stroke: #000000; stroke-width: 0.8; stroke-linejoin: miter; stroke-linecap: square"/>
     </g>
     <g id="text_1">
      <!-- $\vec{u}=(a,b)$ -->
      <g transform="translate(144.167832 221.927934)scale(0.2 -0.2)">
       <defs>
        <path id="Cmmi10-7e" d="M 1281 3809 
Q 1231 3809 1198 3846 
Q 1166 3884 1166 3938 
Q 1166 3984 1198 4023 
Q 1231 4063 1281 4063 
L 3547 4063 
Q 3378 4291 3378 4441 
Q 3378 4497 3417 4533 
Q 3456 4569 3506 4569 
Q 3613 4569 3634 4469 
Q 3697 4194 3938 4044 
Q 4000 4003 4000 3938 
Q 4000 3859 3938 3828 
Q 3575 3647 3353 3347 
Q 3328 3303 3256 3303 
Q 3209 3303 3168 3340 
Q 3128 3378 3128 3431 
Q 3128 3547 3438 3809 
L 1281 3809 
z
" transform="scale(0.015625)"/>
        <path id="Cmmi10-75" d="M 678 697 
Q 678 906 734 1126 
Q 791 1347 892 1617 
Q 994 1888 1069 2088 
Q 1153 2322 1153 2472 
Q 1153 2663 1013 2663 
Q 759 2663 595 2402 
Q 431 2141 353 1819 
Q 341 1778 300 1778 
L 225 1778 
Q 172 1778 172 1838 
L 172 1856 
Q 275 2238 487 2533 
Q 700 2828 1025 2828 
Q 1253 2828 1411 2678 
Q 1569 2528 1569 2297 
Q 1569 2178 1516 2047 
Q 1488 1969 1388 1706 
Q 1288 1444 1234 1272 
Q 1181 1100 1147 934 
Q 1113 769 1113 603 
Q 1113 391 1203 244 
Q 1294 97 1497 97 
Q 1906 97 2216 603 
Q 2222 628 2226 651 
Q 2231 675 2234 697 
L 2694 2553 
Q 2716 2638 2794 2698 
Q 2872 2759 2963 2759 
Q 3041 2759 3098 2709 
Q 3156 2659 3156 2578 
Q 3156 2541 3150 2528 
L 2688 684 
Q 2644 494 2644 372 
Q 2644 97 2828 97 
Q 3034 97 3136 351 
Q 3238 606 3309 941 
Q 3322 978 3359 978 
L 3438 978 
Q 3463 978 3478 956 
Q 3494 934 3494 916 
Q 3425 641 3361 444 
Q 3297 247 3159 87 
Q 3022 -72 2816 -72 
Q 2613 -72 2452 39 
Q 2291 150 2234 341 
Q 2088 153 1894 40 
Q 1700 -72 1484 -72 
Q 1116 -72 897 129 
Q 678 331 678 697 
z
" transform="scale(0.015625)"/>
        <path id="Cmr10-3d" d="M 481 850 
Q 428 850 393 890 
Q 359 931 359 978 
Q 359 1031 393 1068 
Q 428 1106 481 1106 
L 4500 1106 
Q 4547 1106 4581 1068 
Q 4616 1031 4616 978 
Q 4616 931 4581 890 
Q 4547 850 4500 850 
L 481 850 
z
M 481 2094 
Q 428 2094 393 2131 
Q 359 2169 359 2222 
Q 359 2269 393 2309 
Q 428 2350 481 2350 
L 4500 2350 
Q 4547 2350 4581 2309 
Q 4616 2269 4616 2222 
Q 4616 2169 4581 2131 
Q 4547 2094 4500 2094 
L 481 2094 
z
" transform="scale(0.015625)"/>
        <path id="Cmr10-28" d="M 1984 -1588 
Q 1628 -1306 1370 -942 
Q 1113 -578 948 -165 
Q 784 247 703 697 
Q 622 1147 622 1600 
Q 622 2059 703 2509 
Q 784 2959 951 3375 
Q 1119 3791 1378 4153 
Q 1638 4516 1984 4788 
Q 1984 4800 2016 4800 
L 2075 4800 
Q 2094 4800 2109 4783 
Q 2125 4766 2125 4744 
Q 2125 4716 2113 4703 
Q 1800 4397 1592 4047 
Q 1384 3697 1257 3301 
Q 1131 2906 1075 2482 
Q 1019 2059 1019 1600 
Q 1019 -434 2106 -1491 
Q 2125 -1509 2125 -1544 
Q 2125 -1559 2108 -1579 
Q 2091 -1600 2075 -1600 
L 2016 -1600 
Q 1984 -1600 1984 -1588 
z
" transform="scale(0.015625)"/>
        <path id="Cmmi10-61" d="M 1113 -72 
Q 709 -72 476 233 
Q 244 538 244 953 
Q 244 1363 456 1803 
Q 669 2244 1030 2536 
Q 1391 2828 1806 2828 
Q 1997 2828 2147 2725 
Q 2297 2622 2381 2444 
Q 2453 2700 2663 2700 
Q 2744 2700 2798 2651 
Q 2853 2603 2853 2522 
Q 2853 2503 2851 2493 
Q 2850 2484 2847 2472 
L 2400 684 
Q 2356 494 2356 372 
Q 2356 97 2541 97 
Q 2741 97 2845 351 
Q 2950 606 3022 941 
Q 3034 978 3072 978 
L 3150 978 
Q 3175 978 3190 956 
Q 3206 934 3206 916 
Q 3094 469 2961 198 
Q 2828 -72 2528 -72 
Q 2313 -72 2147 54 
Q 1981 181 1941 391 
Q 1528 -72 1113 -72 
z
M 1119 97 
Q 1350 97 1567 270 
Q 1784 444 1941 678 
Q 1947 684 1947 697 
L 2291 2088 
L 2297 2106 
Q 2259 2334 2132 2498 
Q 2006 2663 1791 2663 
Q 1575 2663 1389 2486 
Q 1203 2309 1075 2069 
Q 950 1813 836 1366 
Q 722 919 722 672 
Q 722 450 817 273 
Q 913 97 1119 97 
z
" transform="scale(0.015625)"/>
        <path id="Cmmi10-3b" d="M 634 -1153 
Q 634 -1125 659 -1100 
Q 891 -878 1019 -587 
Q 1147 -297 1147 25 
L 1147 103 
Q 1044 0 891 0 
Q 744 0 641 103 
Q 538 206 538 353 
Q 538 503 641 603 
Q 744 703 891 703 
Q 1119 703 1216 492 
Q 1313 281 1313 25 
Q 1313 -331 1170 -651 
Q 1028 -972 769 -1228 
Q 744 -1241 728 -1241 
Q 697 -1241 665 -1212 
Q 634 -1184 634 -1153 
z
" transform="scale(0.015625)"/>
        <path id="Cmmi10-62" d="M 1106 -72 
Q 719 -72 503 231 
Q 288 534 288 941 
Q 288 1000 317 1173 
Q 347 1347 347 1388 
L 966 3872 
Q 991 3981 997 4044 
Q 997 4147 581 4147 
Q 519 4147 519 4231 
Q 522 4247 533 4287 
Q 544 4328 561 4350 
Q 578 4372 609 4372 
L 1472 4441 
Q 1550 4441 1550 4359 
L 1075 2472 
Q 1438 2828 1806 2828 
Q 2078 2828 2273 2684 
Q 2469 2541 2566 2306 
Q 2663 2072 2663 1806 
Q 2663 1497 2542 1167 
Q 2422 838 2209 555 
Q 1997 272 1712 100 
Q 1428 -72 1106 -72 
z
M 1119 97 
Q 1338 97 1528 280 
Q 1719 463 1838 691 
Q 1966 947 2077 1386 
Q 2188 1825 2188 2088 
Q 2188 2316 2092 2489 
Q 1997 2663 1791 2663 
Q 1559 2663 1348 2492 
Q 1138 2322 978 2088 
L 800 1363 
Q 697 959 691 716 
Q 691 475 795 286 
Q 900 97 1119 97 
z
" transform="scale(0.015625)"/>
        <path id="Cmr10-29" d="M 416 -1600 
Q 359 -1600 359 -1544 
Q 359 -1516 372 -1503 
Q 1466 -434 1466 1600 
Q 1466 3634 384 4691 
Q 359 4706 359 4744 
Q 359 4766 376 4783 
Q 394 4800 416 4800 
L 475 4800 
Q 494 4800 506 4788 
Q 966 4425 1272 3906 
Q 1578 3388 1720 2800 
Q 1863 2213 1863 1600 
Q 1863 1147 1786 708 
Q 1709 269 1542 -157 
Q 1375 -584 1119 -945 
Q 863 -1306 506 -1588 
Q 494 -1600 475 -1600 
L 416 -1600 
z
" transform="scale(0.015625)"/>
       </defs>
       <use xlink:href="#Cmmi10-7e" transform="translate(-4.924316 5.609375)"/>
       <use xlink:href="#Cmmi10-75" transform="translate(0 0.53125)"/>
       <use xlink:href="#Cmr10-3d" transform="translate(74.736328 0.53125)"/>
       <use xlink:href="#Cmr10-28" transform="translate(169.980469 0.53125)"/>
       <use xlink:href="#Cmmi10-61" transform="translate(208.798828 0.53125)"/>
       <use xlink:href="#Cmmi10-3b" transform="translate(261.582031 0.53125)"/>
       <use xlink:href="#Cmmi10-62" transform="translate(306.826172 0.53125)"/>
       <use xlink:href="#Cmr10-29" transform="translate(349.746094 0.53125)"/>
      </g>
     </g>
     <g id="text_2">
      <!-- $\vec{v}=(c,d)$ -->
      <g transform="translate(82.892336 181.957972)scale(0.2 -0.2)">
       <defs>
        <path id="Cmmi10-76" d="M 684 722 
Q 684 866 718 1037 
Q 753 1209 787 1320 
Q 822 1431 944 1753 
Q 1066 2075 1069 2088 
Q 1153 2322 1153 2472 
Q 1153 2663 1013 2663 
Q 759 2663 595 2402 
Q 431 2141 353 1819 
Q 341 1778 300 1778 
L 225 1778 
Q 172 1778 172 1838 
L 172 1856 
Q 275 2238 487 2533 
Q 700 2828 1025 2828 
Q 1253 2828 1411 2678 
Q 1569 2528 1569 2297 
Q 1569 2178 1516 2047 
Q 1391 1722 1319 1526 
Q 1247 1331 1186 1089 
Q 1125 847 1125 641 
Q 1125 400 1236 248 
Q 1347 97 1581 97 
Q 2025 97 2381 781 
Q 2494 1003 2594 1303 
Q 2694 1603 2694 1791 
Q 2694 1984 2631 2092 
Q 2569 2200 2469 2317 
Q 2369 2434 2369 2503 
Q 2369 2628 2472 2731 
Q 2575 2834 2700 2834 
Q 2853 2834 2920 2693 
Q 2988 2553 2988 2375 
Q 2988 2163 2927 1869 
Q 2866 1575 2758 1259 
Q 2650 944 2559 763 
Q 2138 -72 1575 -72 
Q 1172 -72 928 129 
Q 684 331 684 722 
z
" transform="scale(0.015625)"/>
        <path id="Cmmi10-63" d="M 750 763 
Q 750 484 892 290 
Q 1034 97 1300 97 
Q 1681 97 2032 272 
Q 2384 447 2606 756 
Q 2625 775 2656 775 
Q 2688 775 2720 739 
Q 2753 703 2753 672 
Q 2753 647 2741 634 
Q 2506 306 2109 117 
Q 1713 -72 1288 -72 
Q 981 -72 747 73 
Q 513 219 384 462 
Q 256 706 256 1013 
Q 256 1444 497 1869 
Q 738 2294 1138 2561 
Q 1538 2828 1978 2828 
Q 2266 2828 2495 2689 
Q 2725 2550 2725 2278 
Q 2725 2103 2623 1979 
Q 2522 1856 2350 1856 
Q 2247 1856 2176 1920 
Q 2106 1984 2106 2088 
Q 2106 2238 2215 2344 
Q 2325 2450 2472 2450 
L 2484 2450 
Q 2409 2559 2267 2611 
Q 2125 2663 1972 2663 
Q 1597 2663 1315 2342 
Q 1034 2022 892 1576 
Q 750 1131 750 763 
z
" transform="scale(0.015625)"/>
        <path id="Cmmi10-64" d="M 1113 -72 
Q 709 -72 476 233 
Q 244 538 244 953 
Q 244 1363 456 1803 
Q 669 2244 1030 2536 
Q 1391 2828 1806 2828 
Q 1994 2828 2145 2723 
Q 2297 2619 2381 2444 
L 2741 3872 
Q 2766 3981 2772 4044 
Q 2772 4147 2356 4147 
Q 2291 4147 2291 4231 
Q 2294 4247 2305 4287 
Q 2316 4328 2333 4350 
Q 2350 4372 2381 4372 
L 3244 4441 
Q 3322 4441 3322 4359 
L 2400 678 
Q 2356 572 2356 372 
Q 2356 97 2541 97 
Q 2741 97 2845 351 
Q 2950 606 3022 941 
Q 3034 978 3072 978 
L 3150 978 
Q 3175 978 3190 956 
Q 3206 934 3206 916 
Q 3094 469 2961 198 
Q 2828 -72 2528 -72 
Q 2313 -72 2147 54 
Q 1981 181 1941 391 
Q 1528 -72 1113 -72 
z
M 1119 97 
Q 1350 97 1567 270 
Q 1784 444 1941 678 
Q 1947 684 1947 703 
L 2297 2113 
Q 2259 2338 2131 2500 
Q 2003 2663 1791 2663 
Q 1575 2663 1389 2486 
Q 1203 2309 1075 2069 
Q 950 1813 836 1366 
Q 722 919 722 672 
Q 722 450 817 273 
Q 913 97 1119 97 
z
" transform="scale(0.015625)"/>
       </defs>
       <use xlink:href="#Cmmi10-7e" transform="translate(-10.121582 5.609375)"/>
       <use xlink:href="#Cmmi10-76" transform="translate(0 0.4375)"/>
       <use xlink:href="#Cmr10-3d" transform="translate(65.947266 0.4375)"/>
       <use xlink:href="#Cmr10-28" transform="translate(161.191406 0.4375)"/>
       <use xlink:href="#Cmmi10-63" transform="translate(200.009766 0.4375)"/>
       <use xlink:href="#Cmmi10-3b" transform="translate(243.222656 0.4375)"/>
       <use xlink:href="#Cmmi10-64" transform="translate(288.466797 0.4375)"/>
       <use xlink:href="#Cmr10-29" transform="translate(340.46875 0.4375)"/>
      </g>
     </g>
     <g id="text_3">
      <!-- $a$ -->
      <g transform="translate(151.12119 324.392141)scale(0.2 -0.2)">
       <use xlink:href="#Cmmi10-61" transform="translate(0 0.8125)"/>
      </g>
     </g>
     <g id="text_4">
      <!-- $a$ -->
      <g transform="translate(195.532259 22.396875)scale(0.2 -0.2)">
       <use xlink:href="#Cmmi10-61" transform="translate(0 0.8125)"/>
      </g>
     </g>
     <g id="text_5">
      <!-- $b$ -->
      <g transform="translate(365.29432 271.098859)scale(0.2 -0.2)">
       <use xlink:href="#Cmmi10-62" transform="translate(0 0.609375)"/>
      </g>
     </g>
     <g id="text_6">
      <!-- $b$ -->
      <g transform="translate(10.005771 75.690157)scale(0.2 -0.2)">
       <use xlink:href="#Cmmi10-62" transform="translate(0 0.609375)"/>
      </g>
     </g>
     <g id="text_7">
      <!-- $c$ -->
      <g transform="translate(320.783251 324.392141)scale(0.2 -0.2)">
       <use xlink:href="#Cmmi10-63" transform="translate(0 0.8125)"/>
      </g>
     </g>
     <g id="text_8">
      <!-- $c$ -->
      <g transform="translate(54.31684 22.396875)scale(0.2 -0.2)">
       <use xlink:href="#Cmmi10-63" transform="translate(0 0.8125)"/>
      </g>
     </g>
     <g id="text_9">
      <!-- $d$ -->
      <g transform="translate(9.005771 217.805577)scale(0.2 -0.2)">
       <use xlink:href="#Cmmi10-64" transform="translate(0 0.609375)"/>
      </g>
     </g>
     <g id="text_10">
      <!-- $d$ -->
      <g transform="translate(364.29432 120.101226)scale(0.2 -0.2)">
       <use xlink:href="#Cmmi10-64" transform="translate(0 0.609375)"/>
      </g>
     </g>
    </g>
   </g>
   <defs>
    <clipPath id="p081013925e">
     <rect x="7.2" y="10.83822" width="369.50009" height="314.075077"/>
    </clipPath>
   </defs>
  </g>
 </g>
</svg>
