<?xml version="1.0" encoding="utf-8" standalone="no"?>
<!DOCTYPE svg PUBLIC "-//W3C//DTD SVG 1.1//EN"
  "http://www.w3.org/Graphics/SVG/1.1/DTD/svg11.dtd">
<svg xmlns:xlink="http://www.w3.org/1999/xlink" width="338.4pt" height="338.4pt" viewBox="0 0 338.4 338.4" xmlns="http://www.w3.org/2000/svg" version="1.1">
 <metadata>
  <rdf:RDF xmlns:dc="http://purl.org/dc/elements/1.1/" xmlns:cc="http://creativecommons.org/ns#" xmlns:rdf="http://www.w3.org/1999/02/22-rdf-syntax-ns#">
   <cc:Work>
    <dc:type rdf:resource="http://purl.org/dc/dcmitype/StillImage"/>
    <dc:date>2023-05-08T17:42:01.952027</dc:date>
    <dc:format>image/svg+xml</dc:format>
    <dc:creator>
     <cc:Agent>
      <dc:title>Matplotlib v3.6.2, https://matplotlib.org/</dc:title>
     </cc:Agent>
    </dc:creator>
   </cc:Work>
  </rdf:RDF>
 </metadata>
 <defs>
  <style type="text/css">*{stroke-linejoin: round; stroke-linecap: butt}</style>
 </defs>
 <g id="figure_1">
  <g id="patch_1">
   <path d="M -0 338.4 
L 338.4 338.4 
L 338.4 0 
L -0 0 
z
" style="fill: #ffffff"/>
  </g>
  <g id="axes_1">
   <g id="patch_2">
    <path d="M 7.2 331.2 
L 331.2 331.2 
L 331.2 7.2 
L 7.2 7.2 
z
" style="fill: #ffffff"/>
   </g>
   <g id="patch_3">
    <path d="M 164.719014 28.54705 
Q 111.07625 111.07625 30.42188 163.500402 
" clip-path="url(#pf3916940a2)" style="fill: none; stroke: #000000; stroke-width: 2; stroke-linecap: round"/>
    <path d="M 41.531271 162.242852 
L 30.42188 163.500402 
L 36.081474 153.858359 
L 41.531271 162.242852 
z
" clip-path="url(#pf3916940a2)" style="stroke: #000000; stroke-width: 2; stroke-linecap: round"/>
   </g>
   <g id="patch_4">
    <path d="M 160.431189 27.352667 
Q 79.776819 79.776819 26.134055 162.306019 
" clip-path="url(#pf3916940a2)" style="fill: none; stroke: #000000; stroke-width: 2; stroke-linecap: round"/>
    <path d="M 149.321798 28.610217 
L 160.431189 27.352667 
L 154.771595 36.99471 
L 149.321798 28.610217 
z
" clip-path="url(#pf3916940a2)" style="stroke: #000000; stroke-width: 2; stroke-linecap: round"/>
   </g>
   <g id="patch_5">
    <path d="M 176.093981 26.134055 
Q 258.623181 79.776819 311.047333 160.431189 
" clip-path="url(#pf3916940a2)" style="fill: none; stroke: #000000; stroke-width: 2; stroke-linecap: round"/>
    <path d="M 309.789783 149.321798 
L 311.047333 160.431189 
L 301.40529 154.771595 
L 309.789783 149.321798 
z
" clip-path="url(#pf3916940a2)" style="stroke: #000000; stroke-width: 2; stroke-linecap: round"/>
   </g>
   <g id="patch_6">
    <path d="M 174.899598 30.42188 
Q 227.32375 111.07625 309.85295 164.719014 
" clip-path="url(#pf3916940a2)" style="fill: none; stroke: #000000; stroke-width: 2; stroke-linecap: round"/>
    <path d="M 176.157148 41.531271 
L 174.899598 30.42188 
L 184.541641 36.081474 
L 176.157148 41.531271 
z
" clip-path="url(#pf3916940a2)" style="stroke: #000000; stroke-width: 2; stroke-linecap: round"/>
   </g>
   <g id="patch_7">
    <path d="M 28.54705 173.680986 
Q 111.07625 227.32375 163.500402 307.97812 
" clip-path="url(#pf3916940a2)" style="fill: none; stroke: #000000; stroke-width: 2; stroke-linecap: round"/>
    <path d="M 162.242852 296.868729 
L 163.500402 307.97812 
L 153.858359 302.318526 
L 162.242852 296.868729 
z
" clip-path="url(#pf3916940a2)" style="stroke: #000000; stroke-width: 2; stroke-linecap: round"/>
   </g>
   <g id="patch_8">
    <path d="M 27.352667 177.968811 
Q 79.776819 258.623181 162.306019 312.265945 
" clip-path="url(#pf3916940a2)" style="fill: none; stroke: #000000; stroke-width: 2; stroke-linecap: round"/>
    <path d="M 28.610217 189.078202 
L 27.352667 177.968811 
L 36.99471 183.628405 
L 28.610217 189.078202 
z
" clip-path="url(#pf3916940a2)" style="stroke: #000000; stroke-width: 2; stroke-linecap: round"/>
   </g>
   <g id="matplotlib.axis_1"/>
   <g id="matplotlib.axis_2"/>
   <g id="patch_9">
    <path d="M 29.875369 169.2 
Q 169.2 169.2 306.288563 169.2 
" clip-path="url(#pf3916940a2)" style="fill: none; stroke: #000000; stroke-width: 2; stroke-linecap: round"/>
    <path d="M 296.288563 164.2 
L 306.288563 169.2 
L 296.288563 174.2 
L 296.288563 164.2 
z
" clip-path="url(#pf3916940a2)" style="stroke: #000000; stroke-width: 2; stroke-linecap: round"/>
   </g>
   <g id="patch_10">
    <path d="M 169.2 29.875369 
C 171.380579 29.875369 173.472142 29.009016 175.014044 27.467113 
C 176.555946 25.925211 177.4223 23.833649 177.4223 21.653069 
C 177.4223 19.47249 176.555946 17.380928 175.014044 15.839025 
C 173.472142 14.297123 171.380579 13.430769 169.2 13.430769 
C 167.019421 13.430769 164.927858 14.297123 163.385956 15.839025 
C 161.844054 17.380928 160.9777 19.47249 160.9777 21.653069 
C 160.9777 23.833649 161.844054 25.925211 163.385956 27.467113 
C 164.927858 29.009016 167.019421 29.875369 169.2 29.875369 
z
" style="fill: #fec7b8; stroke: #000000; stroke-linejoin: miter"/>
   </g>
   <g id="patch_11">
    <path d="M 21.653069 177.4223 
C 23.833649 177.4223 25.925211 176.555946 27.467113 175.014044 
C 29.009016 173.472142 29.875369 171.380579 29.875369 169.2 
C 29.875369 167.019421 29.009016 164.927858 27.467113 163.385956 
C 25.925211 161.844054 23.833649 160.9777 21.653069 160.9777 
C 19.47249 160.9777 17.380928 161.844054 15.839025 163.385956 
C 14.297123 164.927858 13.430769 167.019421 13.430769 169.2 
C 13.430769 171.380579 14.297123 173.472142 15.839025 175.014044 
C 17.380928 176.555946 19.47249 177.4223 21.653069 177.4223 
z
" style="fill: #fec7b8; stroke: #000000; stroke-linejoin: miter"/>
   </g>
   <g id="patch_12">
    <path d="M 169.2 324.969231 
C 171.380579 324.969231 173.472142 324.102877 175.014044 322.560975 
C 176.555946 321.019072 177.4223 318.92751 177.4223 316.746931 
C 177.4223 314.566351 176.555946 312.474789 175.014044 310.932887 
C 173.472142 309.390984 171.380579 308.524631 169.2 308.524631 
C 167.019421 308.524631 164.927858 309.390984 163.385956 310.932887 
C 161.844054 312.474789 160.9777 314.566351 160.9777 316.746931 
C 160.9777 318.92751 161.844054 321.019072 163.385956 322.560975 
C 164.927858 324.102877 167.019421 324.969231 169.2 324.969231 
z
" style="fill: #fec7b8; stroke: #000000; stroke-linejoin: miter"/>
   </g>
   <g id="patch_13">
    <path d="M 316.746931 177.4223 
C 318.92751 177.4223 321.019072 176.555946 322.560975 175.014044 
C 324.102877 173.472142 324.969231 171.380579 324.969231 169.2 
C 324.969231 167.019421 324.102877 164.927858 322.560975 163.385956 
C 321.019072 161.844054 318.92751 160.9777 316.746931 160.9777 
C 314.566351 160.9777 312.474789 161.844054 310.932887 163.385956 
C 309.390984 164.927858 308.524631 167.019421 308.524631 169.2 
C 308.524631 171.380579 309.390984 173.472142 310.932887 175.014044 
C 312.474789 176.555946 314.566351 177.4223 316.746931 177.4223 
z
" style="fill: #fec7b8; stroke: #000000; stroke-linejoin: miter"/>
   </g>
   <g id="text_1">
    <!-- 1 -->
    <g transform="translate(166.01875 24.412444) scale(0.1 -0.1)">
     <defs>
      <path id="DejaVuSans-31" d="M 794 531 
L 1825 531 
L 1825 4091 
L 703 3866 
L 703 4441 
L 1819 4666 
L 2450 4666 
L 2450 531 
L 3481 531 
L 3481 0 
L 794 0 
L 794 531 
z
" transform="scale(0.015625)"/>
     </defs>
     <use xlink:href="#DejaVuSans-31"/>
    </g>
   </g>
   <g id="text_2">
    <!-- 2 -->
    <g transform="translate(18.471819 171.959375) scale(0.1 -0.1)">
     <defs>
      <path id="DejaVuSans-32" d="M 1228 531 
L 3431 531 
L 3431 0 
L 469 0 
L 469 531 
Q 828 903 1448 1529 
Q 2069 2156 2228 2338 
Q 2531 2678 2651 2914 
Q 2772 3150 2772 3378 
Q 2772 3750 2511 3984 
Q 2250 4219 1831 4219 
Q 1534 4219 1204 4116 
Q 875 4013 500 3803 
L 500 4441 
Q 881 4594 1212 4672 
Q 1544 4750 1819 4750 
Q 2544 4750 2975 4387 
Q 3406 4025 3406 3419 
Q 3406 3131 3298 2873 
Q 3191 2616 2906 2266 
Q 2828 2175 2409 1742 
Q 1991 1309 1228 531 
z
" transform="scale(0.015625)"/>
     </defs>
     <use xlink:href="#DejaVuSans-32"/>
    </g>
   </g>
   <g id="text_3">
    <!-- 3 -->
    <g transform="translate(166.01875 319.506306) scale(0.1 -0.1)">
     <defs>
      <path id="DejaVuSans-33" d="M 2597 2516 
Q 3050 2419 3304 2112 
Q 3559 1806 3559 1356 
Q 3559 666 3084 287 
Q 2609 -91 1734 -91 
Q 1441 -91 1130 -33 
Q 819 25 488 141 
L 488 750 
Q 750 597 1062 519 
Q 1375 441 1716 441 
Q 2309 441 2620 675 
Q 2931 909 2931 1356 
Q 2931 1769 2642 2001 
Q 2353 2234 1838 2234 
L 1294 2234 
L 1294 2753 
L 1863 2753 
Q 2328 2753 2575 2939 
Q 2822 3125 2822 3475 
Q 2822 3834 2567 4026 
Q 2313 4219 1838 4219 
Q 1578 4219 1281 4162 
Q 984 4106 628 3988 
L 628 4550 
Q 988 4650 1302 4700 
Q 1616 4750 1894 4750 
Q 2613 4750 3031 4423 
Q 3450 4097 3450 3541 
Q 3450 3153 3228 2886 
Q 3006 2619 2597 2516 
z
" transform="scale(0.015625)"/>
     </defs>
     <use xlink:href="#DejaVuSans-33"/>
    </g>
   </g>
   <g id="text_4">
    <!-- 4 -->
    <g transform="translate(313.565681 171.959375) scale(0.1 -0.1)">
     <defs>
      <path id="DejaVuSans-34" d="M 2419 4116 
L 825 1625 
L 2419 1625 
L 2419 4116 
z
M 2253 4666 
L 3047 4666 
L 3047 1625 
L 3713 1625 
L 3713 1100 
L 3047 1100 
L 3047 0 
L 2419 0 
L 2419 1100 
L 313 1100 
L 313 1709 
L 2253 4666 
z
" transform="scale(0.015625)"/>
     </defs>
     <use xlink:href="#DejaVuSans-34"/>
    </g>
   </g>
  </g>
 </g>
 <defs>
  <clipPath id="pf3916940a2">
   <rect x="7.2" y="7.2" width="324" height="324"/>
  </clipPath>
 </defs>
</svg>
