<?xml version="1.0" encoding="utf-8" standalone="no"?>
<!DOCTYPE svg PUBLIC "-//W3C//DTD SVG 1.1//EN"
  "http://www.w3.org/Graphics/SVG/1.1/DTD/svg11.dtd">
<svg xmlns:xlink="http://www.w3.org/1999/xlink" width="326.215775pt" height="338.4pt" viewBox="0 0 326.215775 338.4" xmlns="http://www.w3.org/2000/svg" version="1.1">
 <metadata>
  <rdf:RDF xmlns:dc="http://purl.org/dc/elements/1.1/" xmlns:cc="http://creativecommons.org/ns#" xmlns:rdf="http://www.w3.org/1999/02/22-rdf-syntax-ns#">
   <cc:Work>
    <dc:type rdf:resource="http://purl.org/dc/dcmitype/StillImage"/>
    <dc:date>2023-02-24T17:00:30.619876</dc:date>
    <dc:format>image/svg+xml</dc:format>
    <dc:creator>
     <cc:Agent>
      <dc:title>Matplotlib v3.5.2, https://matplotlib.org/</dc:title>
     </cc:Agent>
    </dc:creator>
   </cc:Work>
  </rdf:RDF>
 </metadata>
 <defs>
  <style type="text/css">*{stroke-linejoin: round; stroke-linecap: butt}</style>
 </defs>
 <g id="figure_1">
  <g id="patch_1">
   <path d="M 0 338.4 
L 326.215775 338.4 
L 326.215775 0 
L 0 0 
z
" style="fill: #ffffff"/>
  </g>
  <g id="axes_1">
   <g id="patch_2">
    <path d="M 7.2 331.2 
L 319.015775 331.2 
L 319.015775 7.2 
L 7.2 7.2 
z
" style="fill: #ffffff"/>
   </g>
   <g id="patch_3">
    <path d="M 160.272302 29.370949 
Q 118.385101 143.379287 42.026705 234.941563 
" clip-path="url(#pade6a90e12)" style="fill: none; stroke: #000000; stroke-width: 2; stroke-linecap: round"/>
    <path d="M 52.271286 230.464001 
L 42.026705 234.941563 
L 44.591405 224.059361 
L 52.271286 230.464001 
z
" clip-path="url(#pade6a90e12)" style="stroke: #000000; stroke-width: 2; stroke-linecap: round"/>
   </g>
   <g id="patch_4">
    <path d="M 156.409679 29.684972 
Q 80.051283 121.247247 38.164082 235.255586 
" clip-path="url(#pade6a90e12)" style="fill: none; stroke: #000000; stroke-width: 2; stroke-linecap: round"/>
    <path d="M 146.165098 34.162533 
L 156.409679 29.684972 
L 153.844979 40.567174 
L 146.165098 34.162533 
z
" clip-path="url(#pade6a90e12)" style="stroke: #000000; stroke-width: 2; stroke-linecap: round"/>
   </g>
   <g id="patch_5">
    <path d="M 37.691157 103.302069 
Q 57.460536 169.2 38.333687 232.956166 
" clip-path="url(#pade6a90e12)" style="fill: none; stroke: #000000; stroke-width: 2; stroke-linecap: round"/>
    <path d="M 45.996297 224.814642 
L 38.333687 232.956166 
L 36.418034 221.941164 
L 45.996297 224.814642 
z
" clip-path="url(#pade6a90e12)" style="stroke: #000000; stroke-width: 2; stroke-linecap: round"/>
   </g>
   <g id="patch_6">
    <path d="M 32.323307 105.443834 
Q 13.196457 169.2 32.965836 235.097931 
" clip-path="url(#pade6a90e12)" style="fill: none; stroke: #000000; stroke-width: 2; stroke-linecap: round"/>
    <path d="M 24.660697 113.585358 
L 32.323307 105.443834 
L 34.23896 116.458836 
L 24.660697 113.585358 
z
" clip-path="url(#pade6a90e12)" style="stroke: #000000; stroke-width: 2; stroke-linecap: round"/>
   </g>
   <g id="patch_7">
    <path d="M 171.109631 314.855287 
Q 238.063602 299.027107 283.714637 250.584686 
" clip-path="url(#pade6a90e12)" style="fill: none; stroke: #000000; stroke-width: 2; stroke-linecap: round"/>
    <path d="M 273.217539 254.433183 
L 283.714637 250.584686 
L 280.495176 261.291463 
L 273.217539 254.433183 
z
" clip-path="url(#pade6a90e12)" style="stroke: #000000; stroke-width: 2; stroke-linecap: round"/>
   </g>
   <g id="patch_8">
    <path d="M 170.280528 309.13571 
Q 215.931563 260.69329 282.885534 244.865109 
" clip-path="url(#pade6a90e12)" style="fill: none; stroke: #000000; stroke-width: 2; stroke-linecap: round"/>
    <path d="M 180.777626 305.287213 
L 170.280528 309.13571 
L 173.499989 298.428933 
L 180.777626 305.287213 
z
" clip-path="url(#pade6a90e12)" style="stroke: #000000; stroke-width: 2; stroke-linecap: round"/>
   </g>
   <g id="patch_9">
    <path d="M 293.249938 235.097931 
Q 313.019317 169.2 293.892468 105.443834 
" clip-path="url(#pade6a90e12)" style="fill: none; stroke: #000000; stroke-width: 2; stroke-linecap: round"/>
    <path d="M 291.976815 116.458836 
L 293.892468 105.443834 
L 301.555078 113.585358 
L 291.976815 116.458836 
z
" clip-path="url(#pade6a90e12)" style="stroke: #000000; stroke-width: 2; stroke-linecap: round"/>
   </g>
   <g id="patch_10">
    <path d="M 287.882088 232.956166 
Q 268.755238 169.2 288.524617 103.302069 
" clip-path="url(#pade6a90e12)" style="fill: none; stroke: #000000; stroke-width: 2; stroke-linecap: round"/>
    <path d="M 289.79774 221.941164 
L 287.882088 232.956166 
L 280.219478 224.814642 
L 289.79774 221.941164 
z
" clip-path="url(#pade6a90e12)" style="stroke: #000000; stroke-width: 2; stroke-linecap: round"/>
   </g>
   <g id="matplotlib.axis_1"/>
   <g id="matplotlib.axis_2"/>
   <g id="patch_11">
    <path d="M 155.987167 25.764219 
Q 99.218192 58.539802 44.385709 90.197351 
" clip-path="url(#pade6a90e12)" style="fill: none; stroke: #000000; stroke-width: 2; stroke-linecap: round"/>
    <path d="M 55.545963 89.527478 
L 44.385709 90.197351 
L 50.545963 80.867224 
L 55.545963 89.527478 
z
" clip-path="url(#pade6a90e12)" style="stroke: #000000; stroke-width: 2; stroke-linecap: round"/>
   </g>
   <g id="patch_12">
    <path d="M 163.107887 29.875369 
Q 163.107887 169.2 163.107887 306.288563 
" clip-path="url(#pade6a90e12)" style="fill: none; stroke: #000000; stroke-width: 2; stroke-linecap: round"/>
    <path d="M 168.107887 296.288563 
L 163.107887 306.288563 
L 158.107887 296.288563 
L 168.107887 296.288563 
z
" clip-path="url(#pade6a90e12)" style="stroke: #000000; stroke-width: 2; stroke-linecap: round"/>
   </g>
   <g id="patch_13">
    <path d="M 39.439647 102.547255 
Q 99.218192 206.086733 157.878703 307.689719 
" clip-path="url(#pade6a90e12)" style="fill: none; stroke: #000000; stroke-width: 2; stroke-linecap: round"/>
    <path d="M 157.20883 296.529465 
L 157.878703 307.689719 
L 148.548576 301.529465 
L 157.20883 296.529465 
z
" clip-path="url(#pade6a90e12)" style="stroke: #000000; stroke-width: 2; stroke-linecap: round"/>
   </g>
   <g id="patch_14">
    <path d="M 42.449217 247.084615 
Q 99.218192 279.860198 154.050675 311.517747 
" clip-path="url(#pade6a90e12)" style="fill: none; stroke: #000000; stroke-width: 2; stroke-linecap: round"/>
    <path d="M 147.890421 302.18762 
L 154.050675 311.517747 
L 142.890421 310.847874 
L 147.890421 302.18762 
z
" clip-path="url(#pade6a90e12)" style="stroke: #000000; stroke-width: 2; stroke-linecap: round"/>
   </g>
   <g id="patch_15">
    <path d="M 43.550797 242.973465 
Q 163.107887 242.973465 280.42891 242.973465 
" clip-path="url(#pade6a90e12)" style="fill: none; stroke: #000000; stroke-width: 2; stroke-linecap: round"/>
    <path d="M 270.42891 237.973465 
L 280.42891 242.973465 
L 270.42891 247.973465 
L 270.42891 237.973465 
z
" clip-path="url(#pade6a90e12)" style="stroke: #000000; stroke-width: 2; stroke-linecap: round"/>
   </g>
   <g id="patch_16">
    <path d="M 168.337071 307.689719 
Q 226.997582 206.086733 286.776128 102.547255 
" clip-path="url(#pade6a90e12)" style="fill: none; stroke: #000000; stroke-width: 2; stroke-linecap: round"/>
    <path d="M 177.667198 301.529465 
L 168.337071 307.689719 
L 169.006944 296.529465 
L 177.667198 301.529465 
z
" clip-path="url(#pade6a90e12)" style="stroke: #000000; stroke-width: 2; stroke-linecap: round"/>
   </g>
   <g id="text_1">
    <g id="patch_17">
     <path d="M 96.754771 146.68534 
L 120.848521 146.68534 
L 120.848521 129.007215 
L 96.754771 129.007215 
z
" style="fill: #ffffff; stroke: #ffffff; stroke-linejoin: miter"/>
    </g>
    <!-- 1/3 -->
    <g style="fill: #0000ff" transform="translate(100.754771 140.605652)scale(0.1 -0.1)">
     <defs>
      <path id="DejaVuSans-31" d="M 794 531 
L 1825 531 
L 1825 4091 
L 703 3866 
L 703 4441 
L 1819 4666 
L 2450 4666 
L 2450 531 
L 3481 531 
L 3481 0 
L 794 0 
L 794 531 
z
" transform="scale(0.015625)"/>
      <path id="DejaVuSans-2f" d="M 1625 4666 
L 2156 4666 
L 531 -594 
L 0 -594 
L 1625 4666 
z
" transform="scale(0.015625)"/>
      <path id="DejaVuSans-33" d="M 2597 2516 
Q 3050 2419 3304 2112 
Q 3559 1806 3559 1356 
Q 3559 666 3084 287 
Q 2609 -91 1734 -91 
Q 1441 -91 1130 -33 
Q 819 25 488 141 
L 488 750 
Q 750 597 1062 519 
Q 1375 441 1716 441 
Q 2309 441 2620 675 
Q 2931 909 2931 1356 
Q 2931 1769 2642 2001 
Q 2353 2234 1838 2234 
L 1294 2234 
L 1294 2753 
L 1863 2753 
Q 2328 2753 2575 2939 
Q 2822 3125 2822 3475 
Q 2822 3834 2567 4026 
Q 2313 4219 1838 4219 
Q 1578 4219 1281 4162 
Q 984 4106 628 3988 
L 628 4550 
Q 988 4650 1302 4700 
Q 1616 4750 1894 4750 
Q 2613 4750 3031 4423 
Q 3450 4097 3450 3541 
Q 3450 3153 3228 2886 
Q 3006 2619 2597 2516 
z
" transform="scale(0.015625)"/>
     </defs>
     <use xlink:href="#DejaVuSans-31"/>
     <use xlink:href="#DejaVuSans-2f" x="63.623047"/>
     <use xlink:href="#DejaVuSans-33" x="97.314453"/>
    </g>
   </g>
   <g id="text_2">
    <g id="patch_18">
     <path d="M 77.587863 135.61932 
L 101.681613 135.61932 
L 101.681613 117.941195 
L 77.587863 117.941195 
z
" style="fill: #ffffff; stroke: #ffffff; stroke-linejoin: miter"/>
    </g>
    <!-- 2/5 -->
    <g style="fill: #0000ff" transform="translate(81.587863 129.539632)scale(0.1 -0.1)">
     <defs>
      <path id="DejaVuSans-32" d="M 1228 531 
L 3431 531 
L 3431 0 
L 469 0 
L 469 531 
Q 828 903 1448 1529 
Q 2069 2156 2228 2338 
Q 2531 2678 2651 2914 
Q 2772 3150 2772 3378 
Q 2772 3750 2511 3984 
Q 2250 4219 1831 4219 
Q 1534 4219 1204 4116 
Q 875 4013 500 3803 
L 500 4441 
Q 881 4594 1212 4672 
Q 1544 4750 1819 4750 
Q 2544 4750 2975 4387 
Q 3406 4025 3406 3419 
Q 3406 3131 3298 2873 
Q 3191 2616 2906 2266 
Q 2828 2175 2409 1742 
Q 1991 1309 1228 531 
z
" transform="scale(0.015625)"/>
      <path id="DejaVuSans-35" d="M 691 4666 
L 3169 4666 
L 3169 4134 
L 1269 4134 
L 1269 2991 
Q 1406 3038 1543 3061 
Q 1681 3084 1819 3084 
Q 2600 3084 3056 2656 
Q 3513 2228 3513 1497 
Q 3513 744 3044 326 
Q 2575 -91 1722 -91 
Q 1428 -91 1123 -41 
Q 819 9 494 109 
L 494 744 
Q 775 591 1075 516 
Q 1375 441 1709 441 
Q 2250 441 2565 725 
Q 2881 1009 2881 1497 
Q 2881 1984 2565 2268 
Q 2250 2553 1709 2553 
Q 1456 2553 1204 2497 
Q 953 2441 691 2322 
L 691 4666 
z
" transform="scale(0.015625)"/>
     </defs>
     <use xlink:href="#DejaVuSans-32"/>
     <use xlink:href="#DejaVuSans-2f" x="63.623047"/>
     <use xlink:href="#DejaVuSans-35" x="97.314453"/>
    </g>
   </g>
   <g id="text_3">
    <g id="patch_19">
     <path d="M 34.347642 178.039063 
L 58.441392 178.039063 
L 58.441392 160.360938 
L 34.347642 160.360938 
z
" style="fill: #ffffff; stroke: #ffffff; stroke-linejoin: miter"/>
    </g>
    <!-- 3/7 -->
    <g style="fill: #0000ff" transform="translate(38.347642 171.959375)scale(0.1 -0.1)">
     <defs>
      <path id="DejaVuSans-37" d="M 525 4666 
L 3525 4666 
L 3525 4397 
L 1831 0 
L 1172 0 
L 2766 4134 
L 525 4134 
L 525 4666 
z
" transform="scale(0.015625)"/>
     </defs>
     <use xlink:href="#DejaVuSans-33"/>
     <use xlink:href="#DejaVuSans-2f" x="63.623047"/>
     <use xlink:href="#DejaVuSans-37" x="97.314453"/>
    </g>
   </g>
   <g id="text_4">
    <g id="patch_20">
     <path d="M 12.215602 178.039063 
L 36.309352 178.039063 
L 36.309352 160.360938 
L 12.215602 160.360938 
z
" style="fill: #ffffff; stroke: #ffffff; stroke-linejoin: miter"/>
    </g>
    <!-- 1/4 -->
    <g style="fill: #0000ff" transform="translate(16.215602 171.959375)scale(0.1 -0.1)">
     <defs>
      <path id="DejaVuSans-34" d="M 2419 4116 
L 825 1625 
L 2419 1625 
L 2419 4116 
z
M 2253 4666 
L 3047 4666 
L 3047 1625 
L 3713 1625 
L 3713 1100 
L 3047 1100 
L 3047 0 
L 2419 0 
L 2419 1100 
L 313 1100 
L 313 1709 
L 2253 4666 
z
" transform="scale(0.015625)"/>
     </defs>
     <use xlink:href="#DejaVuSans-31"/>
     <use xlink:href="#DejaVuSans-2f" x="63.623047"/>
     <use xlink:href="#DejaVuSans-34" x="97.314453"/>
    </g>
   </g>
   <g id="text_5">
    <g id="patch_21">
     <path d="M 225.349342 298.282715 
L 239.711842 298.282715 
L 239.711842 280.60459 
L 225.349342 280.60459 
z
" style="fill: #ffffff; stroke: #ffffff; stroke-linejoin: miter"/>
    </g>
    <!-- 1 -->
    <g style="fill: #0000ff" transform="translate(229.349342 292.203027)scale(0.1 -0.1)">
     <use xlink:href="#DejaVuSans-31"/>
    </g>
   </g>
   <g id="text_6">
    <g id="patch_22">
     <path d="M 209.417698 279.115806 
L 233.511448 279.115806 
L 233.511448 261.437681 
L 209.417698 261.437681 
z
" style="fill: #ffffff; stroke: #ffffff; stroke-linejoin: miter"/>
    </g>
    <!-- 1/6 -->
    <g style="fill: #0000ff" transform="translate(213.417698 273.036119)scale(0.1 -0.1)">
     <defs>
      <path id="DejaVuSans-36" d="M 2113 2584 
Q 1688 2584 1439 2293 
Q 1191 2003 1191 1497 
Q 1191 994 1439 701 
Q 1688 409 2113 409 
Q 2538 409 2786 701 
Q 3034 994 3034 1497 
Q 3034 2003 2786 2293 
Q 2538 2584 2113 2584 
z
M 3366 4563 
L 3366 3988 
Q 3128 4100 2886 4159 
Q 2644 4219 2406 4219 
Q 1781 4219 1451 3797 
Q 1122 3375 1075 2522 
Q 1259 2794 1537 2939 
Q 1816 3084 2150 3084 
Q 2853 3084 3261 2657 
Q 3669 2231 3669 1497 
Q 3669 778 3244 343 
Q 2819 -91 2113 -91 
Q 1303 -91 875 529 
Q 447 1150 447 2328 
Q 447 3434 972 4092 
Q 1497 4750 2381 4750 
Q 2619 4750 2861 4703 
Q 3103 4656 3366 4563 
z
" transform="scale(0.015625)"/>
     </defs>
     <use xlink:href="#DejaVuSans-31"/>
     <use xlink:href="#DejaVuSans-2f" x="63.623047"/>
     <use xlink:href="#DejaVuSans-36" x="97.314453"/>
    </g>
   </g>
   <g id="text_7">
    <g id="patch_23">
     <path d="M 289.906422 178.039063 
L 314.000172 178.039063 
L 314.000172 160.360938 
L 289.906422 160.360938 
z
" style="fill: #ffffff; stroke: #ffffff; stroke-linejoin: miter"/>
    </g>
    <!-- 5/6 -->
    <g style="fill: #0000ff" transform="translate(293.906422 171.959375)scale(0.1 -0.1)">
     <use xlink:href="#DejaVuSans-35"/>
     <use xlink:href="#DejaVuSans-2f" x="63.623047"/>
     <use xlink:href="#DejaVuSans-36" x="97.314453"/>
    </g>
   </g>
   <g id="text_8">
    <g id="patch_24">
     <path d="M 267.774383 178.039063 
L 291.868133 178.039063 
L 291.868133 160.360938 
L 267.774383 160.360938 
z
" style="fill: #ffffff; stroke: #ffffff; stroke-linejoin: miter"/>
    </g>
    <!-- 2/9 -->
    <g style="fill: #0000ff" transform="translate(271.774383 171.959375)scale(0.1 -0.1)">
     <defs>
      <path id="DejaVuSans-39" d="M 703 97 
L 703 672 
Q 941 559 1184 500 
Q 1428 441 1663 441 
Q 2288 441 2617 861 
Q 2947 1281 2994 2138 
Q 2813 1869 2534 1725 
Q 2256 1581 1919 1581 
Q 1219 1581 811 2004 
Q 403 2428 403 3163 
Q 403 3881 828 4315 
Q 1253 4750 1959 4750 
Q 2769 4750 3195 4129 
Q 3622 3509 3622 2328 
Q 3622 1225 3098 567 
Q 2575 -91 1691 -91 
Q 1453 -91 1209 -44 
Q 966 3 703 97 
z
M 1959 2075 
Q 2384 2075 2632 2365 
Q 2881 2656 2881 3163 
Q 2881 3666 2632 3958 
Q 2384 4250 1959 4250 
Q 1534 4250 1286 3958 
Q 1038 3666 1038 3163 
Q 1038 2656 1286 2365 
Q 1534 2075 1959 2075 
z
" transform="scale(0.015625)"/>
     </defs>
     <use xlink:href="#DejaVuSans-32"/>
     <use xlink:href="#DejaVuSans-2f" x="63.623047"/>
     <use xlink:href="#DejaVuSans-39" x="97.314453"/>
    </g>
   </g>
   <g id="text_9">
    <g id="patch_25">
     <path d="M 87.171317 67.378864 
L 111.265067 67.378864 
L 111.265067 49.700739 
L 87.171317 49.700739 
z
" style="fill: #ffffff; stroke: #ffffff; stroke-linejoin: miter"/>
    </g>
    <!-- 1/2 -->
    <g style="fill: #0000ff" transform="translate(91.171317 61.299177)scale(0.1 -0.1)">
     <use xlink:href="#DejaVuSans-31"/>
     <use xlink:href="#DejaVuSans-2f" x="63.623047"/>
     <use xlink:href="#DejaVuSans-32" x="97.314453"/>
    </g>
   </g>
   <g id="text_10">
    <g id="patch_26">
     <path d="M 151.061012 178.039063 
L 175.154762 178.039063 
L 175.154762 160.360938 
L 151.061012 160.360938 
z
" style="fill: #ffffff; stroke: #ffffff; stroke-linejoin: miter"/>
    </g>
    <!-- 1/6 -->
    <g style="fill: #0000ff" transform="translate(155.061012 171.959375)scale(0.1 -0.1)">
     <use xlink:href="#DejaVuSans-31"/>
     <use xlink:href="#DejaVuSans-2f" x="63.623047"/>
     <use xlink:href="#DejaVuSans-36" x="97.314453"/>
    </g>
   </g>
   <g id="text_11">
    <g id="patch_27">
     <path d="M 87.171317 214.925795 
L 111.265067 214.925795 
L 111.265067 197.24767 
L 87.171317 197.24767 
z
" style="fill: #ffffff; stroke: #ffffff; stroke-linejoin: miter"/>
    </g>
    <!-- 4/7 -->
    <g style="fill: #0000ff" transform="translate(91.171317 208.846108)scale(0.1 -0.1)">
     <use xlink:href="#DejaVuSans-34"/>
     <use xlink:href="#DejaVuSans-2f" x="63.623047"/>
     <use xlink:href="#DejaVuSans-37" x="97.314453"/>
    </g>
   </g>
   <g id="text_12">
    <g id="patch_28">
     <path d="M 87.171317 288.699261 
L 111.265067 288.699261 
L 111.265067 271.021136 
L 87.171317 271.021136 
z
" style="fill: #ffffff; stroke: #ffffff; stroke-linejoin: miter"/>
    </g>
    <!-- 1/3 -->
    <g style="fill: #0000ff" transform="translate(91.171317 282.619573)scale(0.1 -0.1)">
     <use xlink:href="#DejaVuSans-31"/>
     <use xlink:href="#DejaVuSans-2f" x="63.623047"/>
     <use xlink:href="#DejaVuSans-33" x="97.314453"/>
    </g>
   </g>
   <g id="text_13">
    <g id="patch_29">
     <path d="M 147.879762 251.812528 
L 178.336012 251.812528 
L 178.336012 234.134403 
L 147.879762 234.134403 
z
" style="fill: #ffffff; stroke: #ffffff; stroke-linejoin: miter"/>
    </g>
    <!-- 1/60 -->
    <g style="fill: #0000ff" transform="translate(151.879762 245.73284)scale(0.1 -0.1)">
     <defs>
      <path id="DejaVuSans-30" d="M 2034 4250 
Q 1547 4250 1301 3770 
Q 1056 3291 1056 2328 
Q 1056 1369 1301 889 
Q 1547 409 2034 409 
Q 2525 409 2770 889 
Q 3016 1369 3016 2328 
Q 3016 3291 2770 3770 
Q 2525 4250 2034 4250 
z
M 2034 4750 
Q 2819 4750 3233 4129 
Q 3647 3509 3647 2328 
Q 3647 1150 3233 529 
Q 2819 -91 2034 -91 
Q 1250 -91 836 529 
Q 422 1150 422 2328 
Q 422 3509 836 4129 
Q 1250 4750 2034 4750 
z
" transform="scale(0.015625)"/>
     </defs>
     <use xlink:href="#DejaVuSans-31"/>
     <use xlink:href="#DejaVuSans-2f" x="63.623047"/>
     <use xlink:href="#DejaVuSans-36" x="97.314453"/>
     <use xlink:href="#DejaVuSans-30" x="160.9375"/>
    </g>
   </g>
   <g id="text_14">
    <g id="patch_30">
     <path d="M 214.950707 214.925795 
L 239.044457 214.925795 
L 239.044457 197.24767 
L 214.950707 197.24767 
z
" style="fill: #ffffff; stroke: #ffffff; stroke-linejoin: miter"/>
    </g>
    <!-- 7/9 -->
    <g style="fill: #0000ff" transform="translate(218.950707 208.846108)scale(0.1 -0.1)">
     <use xlink:href="#DejaVuSans-37"/>
     <use xlink:href="#DejaVuSans-2f" x="63.623047"/>
     <use xlink:href="#DejaVuSans-39" x="97.314453"/>
    </g>
   </g>
   <g id="patch_31">
    <path d="M 163.107887 29.875369 
C 165.288467 29.875369 167.380029 29.009016 168.921931 27.467113 
C 170.463834 25.925211 171.330187 23.833649 171.330187 21.653069 
C 171.330187 19.47249 170.463834 17.380928 168.921931 15.839025 
C 167.380029 14.297123 165.288467 13.430769 163.107887 13.430769 
C 160.927308 13.430769 158.835746 14.297123 157.293843 15.839025 
C 155.751941 17.380928 154.885587 19.47249 154.885587 21.653069 
C 154.885587 23.833649 155.751941 25.925211 157.293843 27.467113 
C 158.835746 29.009016 160.927308 29.875369 163.107887 29.875369 
z
" style="fill: #fec7b8; stroke: #000000; stroke-linejoin: miter"/>
   </g>
   <g id="patch_32">
    <path d="M 35.328497 103.648834 
C 37.509076 103.648834 39.600638 102.782481 41.142541 101.240579 
C 42.684443 99.698676 43.550797 97.607114 43.550797 95.426535 
C 43.550797 93.245955 42.684443 91.154393 41.142541 89.612491 
C 39.600638 88.070588 37.509076 87.204235 35.328497 87.204235 
C 33.147917 87.204235 31.056355 88.070588 29.514453 89.612491 
C 27.97255 91.154393 27.106197 93.245955 27.106197 95.426535 
C 27.106197 97.607114 27.97255 99.698676 29.514453 101.240579 
C 31.056355 102.782481 33.147917 103.648834 35.328497 103.648834 
z
" style="fill: #fec7b8; stroke: #000000; stroke-linejoin: miter"/>
   </g>
   <g id="patch_33">
    <path d="M 35.328497 251.195765 
C 37.509076 251.195765 39.600638 250.329412 41.142541 248.787509 
C 42.684443 247.245607 43.550797 245.154045 43.550797 242.973465 
C 43.550797 240.792886 42.684443 238.701324 41.142541 237.159421 
C 39.600638 235.617519 37.509076 234.751166 35.328497 234.751166 
C 33.147917 234.751166 31.056355 235.617519 29.514453 237.159421 
C 27.97255 238.701324 27.106197 240.792886 27.106197 242.973465 
C 27.106197 245.154045 27.97255 247.245607 29.514453 248.787509 
C 31.056355 250.329412 33.147917 251.195765 35.328497 251.195765 
z
" style="fill: #fec7b8; stroke: #000000; stroke-linejoin: miter"/>
   </g>
   <g id="patch_34">
    <path d="M 163.107887 324.969231 
C 165.288467 324.969231 167.380029 324.102877 168.921931 322.560975 
C 170.463834 321.019072 171.330187 318.92751 171.330187 316.746931 
C 171.330187 314.566351 170.463834 312.474789 168.921931 310.932887 
C 167.380029 309.390984 165.288467 308.524631 163.107887 308.524631 
C 160.927308 308.524631 158.835746 309.390984 157.293843 310.932887 
C 155.751941 312.474789 154.885587 314.566351 154.885587 316.746931 
C 154.885587 318.92751 155.751941 321.019072 157.293843 322.560975 
C 158.835746 324.102877 160.927308 324.969231 163.107887 324.969231 
z
" style="fill: #fec7b8; stroke: #000000; stroke-linejoin: miter"/>
   </g>
   <g id="patch_35">
    <path d="M 290.887278 251.195765 
C 293.067857 251.195765 295.159419 250.329412 296.701322 248.787509 
C 298.243224 247.245607 299.109578 245.154045 299.109578 242.973465 
C 299.109578 240.792886 298.243224 238.701324 296.701322 237.159421 
C 295.159419 235.617519 293.067857 234.751166 290.887278 234.751166 
C 288.706698 234.751166 286.615136 235.617519 285.073234 237.159421 
C 283.531331 238.701324 282.664978 240.792886 282.664978 242.973465 
C 282.664978 245.154045 283.531331 247.245607 285.073234 248.787509 
C 286.615136 250.329412 288.706698 251.195765 290.887278 251.195765 
z
" style="fill: #fec7b8; stroke: #000000; stroke-linejoin: miter"/>
   </g>
   <g id="patch_36">
    <path d="M 290.887278 103.648834 
C 293.067857 103.648834 295.159419 102.782481 296.701322 101.240579 
C 298.243224 99.698676 299.109578 97.607114 299.109578 95.426535 
C 299.109578 93.245955 298.243224 91.154393 296.701322 89.612491 
C 295.159419 88.070588 293.067857 87.204235 290.887278 87.204235 
C 288.706698 87.204235 286.615136 88.070588 285.073234 89.612491 
C 283.531331 91.154393 282.664978 93.245955 282.664978 95.426535 
C 282.664978 97.607114 283.531331 99.698676 285.073234 101.240579 
C 286.615136 102.782481 288.706698 103.648834 290.887278 103.648834 
z
" style="fill: #fec7b8; stroke: #000000; stroke-linejoin: miter"/>
   </g>
   <g id="text_15">
    <!-- 0 -->
    <g transform="translate(159.926637 24.412444)scale(0.1 -0.1)">
     <use xlink:href="#DejaVuSans-30"/>
    </g>
   </g>
   <g id="text_16">
    <!-- 1 -->
    <g transform="translate(32.147247 98.18591)scale(0.1 -0.1)">
     <use xlink:href="#DejaVuSans-31"/>
    </g>
   </g>
   <g id="text_17">
    <!-- 2 -->
    <g transform="translate(32.147247 245.73284)scale(0.1 -0.1)">
     <use xlink:href="#DejaVuSans-32"/>
    </g>
   </g>
   <g id="text_18">
    <!-- 3 -->
    <g transform="translate(159.926637 319.506306)scale(0.1 -0.1)">
     <use xlink:href="#DejaVuSans-33"/>
    </g>
   </g>
   <g id="text_19">
    <!-- 4 -->
    <g transform="translate(287.706028 245.73284)scale(0.1 -0.1)">
     <use xlink:href="#DejaVuSans-34"/>
    </g>
   </g>
   <g id="text_20">
    <!-- 5 -->
    <g transform="translate(287.706028 98.18591)scale(0.1 -0.1)">
     <use xlink:href="#DejaVuSans-35"/>
    </g>
   </g>
  </g>
 </g>
 <defs>
  <clipPath id="pade6a90e12">
   <rect x="7.2" y="7.2" width="311.815775" height="324"/>
  </clipPath>
 </defs>
</svg>
