<?xml version="1.0" encoding="utf-8" standalone="no"?>
<!DOCTYPE svg PUBLIC "-//W3C//DTD SVG 1.1//EN"
  "http://www.w3.org/Graphics/SVG/1.1/DTD/svg11.dtd">
<svg xmlns:xlink="http://www.w3.org/1999/xlink" width="453.6pt" height="301.275468pt" viewBox="0 0 453.6 301.275468" xmlns="http://www.w3.org/2000/svg" version="1.1">
 <metadata>
  <rdf:RDF xmlns:dc="http://purl.org/dc/elements/1.1/" xmlns:cc="http://creativecommons.org/ns#" xmlns:rdf="http://www.w3.org/1999/02/22-rdf-syntax-ns#">
   <cc:Work>
    <dc:type rdf:resource="http://purl.org/dc/dcmitype/StillImage"/>
    <dc:date>2023-02-24T17:02:04.159360</dc:date>
    <dc:format>image/svg+xml</dc:format>
    <dc:creator>
     <cc:Agent>
      <dc:title>Matplotlib v3.5.2, https://matplotlib.org/</dc:title>
     </cc:Agent>
    </dc:creator>
   </cc:Work>
  </rdf:RDF>
 </metadata>
 <defs>
  <style type="text/css">*{stroke-linejoin: round; stroke-linecap: butt}</style>
 </defs>
 <g id="figure_1">
  <g id="patch_1">
   <path d="M 0 301.275468 
L 453.6 301.275468 
L 453.6 0 
L 0 0 
z
" style="fill: #ffffff"/>
  </g>
  <g id="axes_1">
   <g id="patch_2">
    <path d="M 7.2 294.075468 
L 446.4 294.075468 
L 446.4 7.375468 
L 7.2 7.375468 
z
" style="fill: #ffffff"/>
   </g>
   <g id="PathCollection_1">
    <path d="M 121.223077 144.163459 
C 121.816089 144.163459 122.384893 143.927853 122.804216 143.50853 
C 123.223539 143.089207 123.459145 142.520404 123.459145 141.927391 
C 123.459145 141.334379 123.223539 140.765576 122.804216 140.346253 
C 122.384893 139.92693 121.816089 139.691323 121.223077 139.691323 
C 120.630065 139.691323 120.061261 139.92693 119.641938 140.346253 
C 119.222615 140.765576 118.987009 141.334379 118.987009 141.927391 
C 118.987009 142.520404 119.222615 143.089207 119.641938 143.50853 
C 120.061261 143.927853 120.630065 144.163459 121.223077 144.163459 
z
" clip-path="url(#pdb13a9233c)"/>
   </g>
   <g id="PathCollection_2">
    <path d="M 91.896154 114.836536 
C 92.489166 114.836536 93.05797 114.60093 93.477293 114.181607 
C 93.896616 113.762284 94.132222 113.193481 94.132222 112.600468 
C 94.132222 112.007456 93.896616 111.438652 93.477293 111.01933 
C 93.05797 110.600007 92.489166 110.3644 91.896154 110.3644 
C 91.303142 110.3644 90.734338 110.600007 90.315015 111.01933 
C 89.895692 111.438652 89.660086 112.007456 89.660086 112.600468 
C 89.660086 113.193481 89.895692 113.762284 90.315015 114.181607 
C 90.734338 114.60093 91.303142 114.836536 91.896154 114.836536 
z
" clip-path="url(#pdb13a9233c)"/>
   </g>
   <g id="PathCollection_3">
    <path d="M 80.165385 185.221152 
C 80.758397 185.221152 81.327201 184.985545 81.746523 184.566223 
C 82.165846 184.1469 82.401453 183.578096 82.401453 182.985084 
C 82.401453 182.392072 82.165846 181.823268 81.746523 181.403945 
C 81.327201 180.984622 80.758397 180.749016 80.165385 180.749016 
C 79.572372 180.749016 79.003569 180.984622 78.584246 181.403945 
C 78.164923 181.823268 77.929317 182.392072 77.929317 182.985084 
C 77.929317 183.578096 78.164923 184.1469 78.584246 184.566223 
C 79.003569 184.985545 79.572372 185.221152 80.165385 185.221152 
z
" clip-path="url(#pdb13a9233c)"/>
   </g>
   <g id="PathCollection_4">
    <path d="M 379.3 97.240382 
C 379.893012 97.240382 380.461816 97.004776 380.881139 96.585453 
C 381.300462 96.16613 381.536068 95.597327 381.536068 95.004314 
C 381.536068 94.411302 381.300462 93.842499 380.881139 93.423176 
C 380.461816 93.003853 379.893012 92.768247 379.3 92.768247 
C 378.706988 92.768247 378.138184 93.003853 377.718861 93.423176 
C 377.299538 93.842499 377.063932 94.411302 377.063932 95.004314 
C 377.063932 95.597327 377.299538 96.16613 377.718861 96.585453 
C 378.138184 97.004776 378.706988 97.240382 379.3 97.240382 
z
" clip-path="url(#pdb13a9233c)"/>
   </g>
   <g id="patch_3">
    <path d="M 50.838462 153.658161 
L 156.415385 48.081238 
L 121.223077 12.88893 
L 15.646154 118.465853 
z
" clip-path="url(#pdb13a9233c)" style="fill: #008b8b; opacity: 0.15"/>
   </g>
   <g id="patch_4">
    <path d="M 50.838462 153.658161 
L 33.242308 171.254314 
L 150.55 288.562007 
L 168.146154 270.965853 
z
" clip-path="url(#pdb13a9233c)" style="fill: #dc143c; opacity: 0.15"/>
   </g>
   <g id="patch_5">
    <path d="M 402.761538 153.658161 
L 437.953846 118.465853 
L 332.376923 12.88893 
L 297.184615 48.081238 
z
" clip-path="url(#pdb13a9233c)" style="fill: #1e90ff; opacity: 0.15"/>
   </g>
   <g id="patch_6">
    <path d="M 402.761538 153.658161 
L 320.646154 235.773545 
L 355.838462 270.965853 
L 437.953846 188.850468 
z
" clip-path="url(#pdb13a9233c)" style="fill: #8b0000; opacity: 0.15"/>
   </g>
   <g id="patch_7">
    <path d="M 50.838462 153.658161 
L 46.146154 158.350468 
L 41.453846 153.658161 
L 46.146154 148.965853 
z
" clip-path="url(#pdb13a9233c)"/>
   </g>
   <g id="patch_8">
    <path d="M 402.761538 153.658161 
L 407.453846 158.350468 
L 412.146154 153.658161 
L 407.453846 148.965853 
z
" clip-path="url(#pdb13a9233c)"/>
   </g>
   <g id="matplotlib.axis_1"/>
   <g id="matplotlib.axis_2"/>
   <g id="line2d_1">
    <path d="M 121.223077 141.927391 
L 91.896154 112.600468 
" clip-path="url(#pdb13a9233c)" style="fill: none; stroke-dasharray: 3.7,1.6; stroke-dashoffset: 0; stroke: #000000"/>
   </g>
   <g id="line2d_2">
    <path d="M 121.223077 141.927391 
L 80.165385 182.985084 
" clip-path="url(#pdb13a9233c)" style="fill: none; stroke-dasharray: 3.7,1.6; stroke-dashoffset: 0; stroke: #000000"/>
   </g>
   <g id="line2d_3">
    <path d="M 314.780769 106.735084 
L 379.3 95.004314 
" clip-path="url(#pdb13a9233c)" style="fill: none; stroke: #000000; stroke-linecap: square"/>
   </g>
   <g id="patch_9">
    <path d="M 121.223077 141.927391 
Q 218.001923 124.331238 313.680769 106.935084 
" clip-path="url(#pdb13a9233c)" style="fill: none; stroke: #000000; stroke-linecap: round"/>
    <path d="M 302.947643 103.804589 
L 313.680769 106.935084 
L 304.736497 113.643288 
L 302.947643 103.804589 
z
" clip-path="url(#pdb13a9233c)" style="stroke: #000000; stroke-linecap: round"/>
   </g>
   <g id="line2d_4">
    <path d="M 283.498718 100.869699 
L 379.3 95.004314 
" clip-path="url(#pdb13a9233c)" style="fill: none; stroke: #000000; stroke-linecap: square"/>
   </g>
   <g id="patch_10">
    <path d="M 91.896154 112.600468 
Q 187.697436 106.735084 282.382774 100.938022 
" clip-path="url(#pdb13a9233c)" style="fill: none; stroke: #000000; stroke-linecap: round"/>
    <path d="M 272.095913 96.558468 
L 282.382774 100.938022 
L 272.707014 106.539778 
L 272.095913 96.558468 
z
" clip-path="url(#pdb13a9233c)" style="stroke: #000000; stroke-linecap: round"/>
   </g>
   <g id="line2d_5">
    <path d="M 322.1125 160.989891 
L 402.761538 153.658161 
" clip-path="url(#pdb13a9233c)" style="fill: none; stroke: #000000; stroke-linecap: square"/>
   </g>
   <g id="patch_11">
    <path d="M 80.165385 182.985084 
Q 201.138942 171.987488 320.999058 161.091113 
" clip-path="url(#pdb13a9233c)" style="fill: none; stroke: #000000; stroke-linecap: round"/>
    <path d="M 310.587447 157.017005 
L 320.999058 161.091113 
L 311.492804 166.975937 
L 310.587447 157.017005 
z
" clip-path="url(#pdb13a9233c)" style="stroke: #000000; stroke-linecap: round"/>
   </g>
   <g id="text_1">
    <!-- Espace ligne -->
    <g transform="translate(30.434564 131.041327)rotate(-45)scale(0.1 -0.1)">
     <defs>
      <path id="DejaVuSans-45" d="M 628 4666 
L 3578 4666 
L 3578 4134 
L 1259 4134 
L 1259 2753 
L 3481 2753 
L 3481 2222 
L 1259 2222 
L 1259 531 
L 3634 531 
L 3634 0 
L 628 0 
L 628 4666 
z
" transform="scale(0.015625)"/>
      <path id="DejaVuSans-73" d="M 2834 3397 
L 2834 2853 
Q 2591 2978 2328 3040 
Q 2066 3103 1784 3103 
Q 1356 3103 1142 2972 
Q 928 2841 928 2578 
Q 928 2378 1081 2264 
Q 1234 2150 1697 2047 
L 1894 2003 
Q 2506 1872 2764 1633 
Q 3022 1394 3022 966 
Q 3022 478 2636 193 
Q 2250 -91 1575 -91 
Q 1294 -91 989 -36 
Q 684 19 347 128 
L 347 722 
Q 666 556 975 473 
Q 1284 391 1588 391 
Q 1994 391 2212 530 
Q 2431 669 2431 922 
Q 2431 1156 2273 1281 
Q 2116 1406 1581 1522 
L 1381 1569 
Q 847 1681 609 1914 
Q 372 2147 372 2553 
Q 372 3047 722 3315 
Q 1072 3584 1716 3584 
Q 2034 3584 2315 3537 
Q 2597 3491 2834 3397 
z
" transform="scale(0.015625)"/>
      <path id="DejaVuSans-70" d="M 1159 525 
L 1159 -1331 
L 581 -1331 
L 581 3500 
L 1159 3500 
L 1159 2969 
Q 1341 3281 1617 3432 
Q 1894 3584 2278 3584 
Q 2916 3584 3314 3078 
Q 3713 2572 3713 1747 
Q 3713 922 3314 415 
Q 2916 -91 2278 -91 
Q 1894 -91 1617 61 
Q 1341 213 1159 525 
z
M 3116 1747 
Q 3116 2381 2855 2742 
Q 2594 3103 2138 3103 
Q 1681 3103 1420 2742 
Q 1159 2381 1159 1747 
Q 1159 1113 1420 752 
Q 1681 391 2138 391 
Q 2594 391 2855 752 
Q 3116 1113 3116 1747 
z
" transform="scale(0.015625)"/>
      <path id="DejaVuSans-61" d="M 2194 1759 
Q 1497 1759 1228 1600 
Q 959 1441 959 1056 
Q 959 750 1161 570 
Q 1363 391 1709 391 
Q 2188 391 2477 730 
Q 2766 1069 2766 1631 
L 2766 1759 
L 2194 1759 
z
M 3341 1997 
L 3341 0 
L 2766 0 
L 2766 531 
Q 2569 213 2275 61 
Q 1981 -91 1556 -91 
Q 1019 -91 701 211 
Q 384 513 384 1019 
Q 384 1609 779 1909 
Q 1175 2209 1959 2209 
L 2766 2209 
L 2766 2266 
Q 2766 2663 2505 2880 
Q 2244 3097 1772 3097 
Q 1472 3097 1187 3025 
Q 903 2953 641 2809 
L 641 3341 
Q 956 3463 1253 3523 
Q 1550 3584 1831 3584 
Q 2591 3584 2966 3190 
Q 3341 2797 3341 1997 
z
" transform="scale(0.015625)"/>
      <path id="DejaVuSans-63" d="M 3122 3366 
L 3122 2828 
Q 2878 2963 2633 3030 
Q 2388 3097 2138 3097 
Q 1578 3097 1268 2742 
Q 959 2388 959 1747 
Q 959 1106 1268 751 
Q 1578 397 2138 397 
Q 2388 397 2633 464 
Q 2878 531 3122 666 
L 3122 134 
Q 2881 22 2623 -34 
Q 2366 -91 2075 -91 
Q 1284 -91 818 406 
Q 353 903 353 1747 
Q 353 2603 823 3093 
Q 1294 3584 2113 3584 
Q 2378 3584 2631 3529 
Q 2884 3475 3122 3366 
z
" transform="scale(0.015625)"/>
      <path id="DejaVuSans-65" d="M 3597 1894 
L 3597 1613 
L 953 1613 
Q 991 1019 1311 708 
Q 1631 397 2203 397 
Q 2534 397 2845 478 
Q 3156 559 3463 722 
L 3463 178 
Q 3153 47 2828 -22 
Q 2503 -91 2169 -91 
Q 1331 -91 842 396 
Q 353 884 353 1716 
Q 353 2575 817 3079 
Q 1281 3584 2069 3584 
Q 2775 3584 3186 3129 
Q 3597 2675 3597 1894 
z
M 3022 2063 
Q 3016 2534 2758 2815 
Q 2500 3097 2075 3097 
Q 1594 3097 1305 2825 
Q 1016 2553 972 2059 
L 3022 2063 
z
" transform="scale(0.015625)"/>
      <path id="DejaVuSans-20" transform="scale(0.015625)"/>
      <path id="DejaVuSans-6c" d="M 603 4863 
L 1178 4863 
L 1178 0 
L 603 0 
L 603 4863 
z
" transform="scale(0.015625)"/>
      <path id="DejaVuSans-69" d="M 603 3500 
L 1178 3500 
L 1178 0 
L 603 0 
L 603 3500 
z
M 603 4863 
L 1178 4863 
L 1178 4134 
L 603 4134 
L 603 4863 
z
" transform="scale(0.015625)"/>
      <path id="DejaVuSans-67" d="M 2906 1791 
Q 2906 2416 2648 2759 
Q 2391 3103 1925 3103 
Q 1463 3103 1205 2759 
Q 947 2416 947 1791 
Q 947 1169 1205 825 
Q 1463 481 1925 481 
Q 2391 481 2648 825 
Q 2906 1169 2906 1791 
z
M 3481 434 
Q 3481 -459 3084 -895 
Q 2688 -1331 1869 -1331 
Q 1566 -1331 1297 -1286 
Q 1028 -1241 775 -1147 
L 775 -588 
Q 1028 -725 1275 -790 
Q 1522 -856 1778 -856 
Q 2344 -856 2625 -561 
Q 2906 -266 2906 331 
L 2906 616 
Q 2728 306 2450 153 
Q 2172 0 1784 0 
Q 1141 0 747 490 
Q 353 981 353 1791 
Q 353 2603 747 3093 
Q 1141 3584 1784 3584 
Q 2172 3584 2450 3431 
Q 2728 3278 2906 2969 
L 2906 3500 
L 3481 3500 
L 3481 434 
z
" transform="scale(0.015625)"/>
      <path id="DejaVuSans-6e" d="M 3513 2113 
L 3513 0 
L 2938 0 
L 2938 2094 
Q 2938 2591 2744 2837 
Q 2550 3084 2163 3084 
Q 1697 3084 1428 2787 
Q 1159 2491 1159 1978 
L 1159 0 
L 581 0 
L 581 3500 
L 1159 3500 
L 1159 2956 
Q 1366 3272 1645 3428 
Q 1925 3584 2291 3584 
Q 2894 3584 3203 3211 
Q 3513 2838 3513 2113 
z
" transform="scale(0.015625)"/>
     </defs>
     <use xlink:href="#DejaVuSans-45"/>
     <use xlink:href="#DejaVuSans-73" x="63.183594"/>
     <use xlink:href="#DejaVuSans-70" x="115.283203"/>
     <use xlink:href="#DejaVuSans-61" x="178.759766"/>
     <use xlink:href="#DejaVuSans-63" x="240.039062"/>
     <use xlink:href="#DejaVuSans-65" x="295.019531"/>
     <use xlink:href="#DejaVuSans-20" x="356.542969"/>
     <use xlink:href="#DejaVuSans-6c" x="388.330078"/>
     <use xlink:href="#DejaVuSans-69" x="416.113281"/>
     <use xlink:href="#DejaVuSans-67" x="443.896484"/>
     <use xlink:href="#DejaVuSans-6e" x="507.373047"/>
     <use xlink:href="#DejaVuSans-65" x="570.751953"/>
    </g>
   </g>
   <g id="text_2">
    <!-- dimension $r$ -->
    <g transform="translate(20.022438 109.780376)rotate(-45)scale(0.1 -0.1)">
     <defs>
      <path id="DejaVuSans-64" d="M 2906 2969 
L 2906 4863 
L 3481 4863 
L 3481 0 
L 2906 0 
L 2906 525 
Q 2725 213 2448 61 
Q 2172 -91 1784 -91 
Q 1150 -91 751 415 
Q 353 922 353 1747 
Q 353 2572 751 3078 
Q 1150 3584 1784 3584 
Q 2172 3584 2448 3432 
Q 2725 3281 2906 2969 
z
M 947 1747 
Q 947 1113 1208 752 
Q 1469 391 1925 391 
Q 2381 391 2643 752 
Q 2906 1113 2906 1747 
Q 2906 2381 2643 2742 
Q 2381 3103 1925 3103 
Q 1469 3103 1208 2742 
Q 947 2381 947 1747 
z
" transform="scale(0.015625)"/>
      <path id="DejaVuSans-6d" d="M 3328 2828 
Q 3544 3216 3844 3400 
Q 4144 3584 4550 3584 
Q 5097 3584 5394 3201 
Q 5691 2819 5691 2113 
L 5691 0 
L 5113 0 
L 5113 2094 
Q 5113 2597 4934 2840 
Q 4756 3084 4391 3084 
Q 3944 3084 3684 2787 
Q 3425 2491 3425 1978 
L 3425 0 
L 2847 0 
L 2847 2094 
Q 2847 2600 2669 2842 
Q 2491 3084 2119 3084 
Q 1678 3084 1418 2786 
Q 1159 2488 1159 1978 
L 1159 0 
L 581 0 
L 581 3500 
L 1159 3500 
L 1159 2956 
Q 1356 3278 1631 3431 
Q 1906 3584 2284 3584 
Q 2666 3584 2933 3390 
Q 3200 3197 3328 2828 
z
" transform="scale(0.015625)"/>
      <path id="DejaVuSans-6f" d="M 1959 3097 
Q 1497 3097 1228 2736 
Q 959 2375 959 1747 
Q 959 1119 1226 758 
Q 1494 397 1959 397 
Q 2419 397 2687 759 
Q 2956 1122 2956 1747 
Q 2956 2369 2687 2733 
Q 2419 3097 1959 3097 
z
M 1959 3584 
Q 2709 3584 3137 3096 
Q 3566 2609 3566 1747 
Q 3566 888 3137 398 
Q 2709 -91 1959 -91 
Q 1206 -91 779 398 
Q 353 888 353 1747 
Q 353 2609 779 3096 
Q 1206 3584 1959 3584 
z
" transform="scale(0.015625)"/>
      <path id="Cmmi10-72" d="M 494 109 
Q 494 147 500 166 
L 978 2075 
Q 1025 2253 1025 2388 
Q 1025 2663 838 2663 
Q 638 2663 541 2423 
Q 444 2184 353 1819 
Q 353 1800 334 1789 
Q 316 1778 300 1778 
L 225 1778 
Q 203 1778 187 1801 
Q 172 1825 172 1844 
Q 241 2122 305 2315 
Q 369 2509 505 2668 
Q 641 2828 844 2828 
Q 1066 2828 1233 2700 
Q 1400 2572 1441 2363 
Q 1603 2575 1811 2701 
Q 2019 2828 2266 2828 
Q 2469 2828 2623 2709 
Q 2778 2591 2778 2388 
Q 2778 2225 2676 2104 
Q 2575 1984 2406 1984 
Q 2303 1984 2233 2048 
Q 2163 2113 2163 2216 
Q 2163 2356 2266 2467 
Q 2369 2578 2503 2578 
Q 2400 2663 2253 2663 
Q 1978 2663 1775 2467 
Q 1572 2272 1409 1972 
L 953 141 
Q 931 53 854 -9 
Q 778 -72 684 -72 
Q 606 -72 550 -22 
Q 494 28 494 109 
z
" transform="scale(0.015625)"/>
     </defs>
     <use xlink:href="#DejaVuSans-64" transform="translate(0 0.015625)"/>
     <use xlink:href="#DejaVuSans-69" transform="translate(63.476562 0.015625)"/>
     <use xlink:href="#DejaVuSans-6d" transform="translate(91.259766 0.015625)"/>
     <use xlink:href="#DejaVuSans-65" transform="translate(188.671875 0.015625)"/>
     <use xlink:href="#DejaVuSans-6e" transform="translate(250.195312 0.015625)"/>
     <use xlink:href="#DejaVuSans-73" transform="translate(313.574219 0.015625)"/>
     <use xlink:href="#DejaVuSans-69" transform="translate(365.673828 0.015625)"/>
     <use xlink:href="#DejaVuSans-6f" transform="translate(393.457031 0.015625)"/>
     <use xlink:href="#DejaVuSans-6e" transform="translate(454.638672 0.015625)"/>
     <use xlink:href="#DejaVuSans-20" transform="translate(518.017578 0.015625)"/>
     <use xlink:href="#Cmmi10-72" transform="translate(549.804688 0.015625)"/>
    </g>
   </g>
   <g id="text_3">
    <!-- Espace nul -->
    <g transform="translate(41.424528 173.954265)rotate(-315)scale(0.1 -0.1)">
     <defs>
      <path id="DejaVuSans-75" d="M 544 1381 
L 544 3500 
L 1119 3500 
L 1119 1403 
Q 1119 906 1312 657 
Q 1506 409 1894 409 
Q 2359 409 2629 706 
Q 2900 1003 2900 1516 
L 2900 3500 
L 3475 3500 
L 3475 0 
L 2900 0 
L 2900 538 
Q 2691 219 2414 64 
Q 2138 -91 1772 -91 
Q 1169 -91 856 284 
Q 544 659 544 1381 
z
M 1991 3584 
L 1991 3584 
z
" transform="scale(0.015625)"/>
     </defs>
     <use xlink:href="#DejaVuSans-45"/>
     <use xlink:href="#DejaVuSans-73" x="63.183594"/>
     <use xlink:href="#DejaVuSans-70" x="115.283203"/>
     <use xlink:href="#DejaVuSans-61" x="178.759766"/>
     <use xlink:href="#DejaVuSans-63" x="240.039062"/>
     <use xlink:href="#DejaVuSans-65" x="295.019531"/>
     <use xlink:href="#DejaVuSans-20" x="356.542969"/>
     <use xlink:href="#DejaVuSans-6e" x="388.330078"/>
     <use xlink:href="#DejaVuSans-75" x="451.708984"/>
     <use xlink:href="#DejaVuSans-6c" x="515.087891"/>
    </g>
   </g>
   <g id="text_4">
    <!-- dimension $n-r$ -->
    <g transform="translate(45.195927 198.841048)rotate(-315)scale(0.1 -0.1)">
     <defs>
      <path id="Cmmi10-6e" d="M 494 109 
Q 494 147 500 166 
L 978 2075 
Q 1025 2253 1025 2388 
Q 1025 2663 838 2663 
Q 638 2663 541 2423 
Q 444 2184 353 1819 
Q 353 1800 334 1789 
Q 316 1778 300 1778 
L 225 1778 
Q 203 1778 187 1801 
Q 172 1825 172 1844 
Q 241 2122 305 2315 
Q 369 2509 505 2668 
Q 641 2828 844 2828 
Q 1084 2828 1268 2676 
Q 1453 2525 1453 2291 
Q 1644 2541 1900 2684 
Q 2156 2828 2444 2828 
Q 2672 2828 2837 2750 
Q 3003 2672 3095 2514 
Q 3188 2356 3188 2138 
Q 3188 1875 3070 1503 
Q 2953 1131 2778 672 
Q 2688 463 2688 288 
Q 2688 97 2834 97 
Q 3084 97 3251 365 
Q 3419 634 3488 941 
Q 3500 978 3541 978 
L 3616 978 
Q 3641 978 3658 962 
Q 3675 947 3675 922 
Q 3675 916 3669 903 
Q 3581 541 3364 234 
Q 3147 -72 2822 -72 
Q 2597 -72 2437 83 
Q 2278 238 2278 459 
Q 2278 578 2328 709 
Q 2409 919 2514 1209 
Q 2619 1500 2686 1765 
Q 2753 2031 2753 2234 
Q 2753 2413 2679 2538 
Q 2606 2663 2431 2663 
Q 2197 2663 2000 2559 
Q 1803 2456 1656 2286 
Q 1509 2116 1388 1881 
L 953 141 
Q 931 53 854 -9 
Q 778 -72 684 -72 
Q 606 -72 550 -22 
Q 494 28 494 109 
z
" transform="scale(0.015625)"/>
      <path id="Cmsy10-a1" d="M 653 1472 
Q 600 1472 565 1512 
Q 531 1553 531 1600 
Q 531 1647 565 1687 
Q 600 1728 653 1728 
L 4325 1728 
Q 4375 1728 4408 1687 
Q 4441 1647 4441 1600 
Q 4441 1553 4408 1512 
Q 4375 1472 4325 1472 
L 653 1472 
z
" transform="scale(0.015625)"/>
     </defs>
     <use xlink:href="#DejaVuSans-64" transform="translate(0 0.015625)"/>
     <use xlink:href="#DejaVuSans-69" transform="translate(63.476562 0.015625)"/>
     <use xlink:href="#DejaVuSans-6d" transform="translate(91.259766 0.015625)"/>
     <use xlink:href="#DejaVuSans-65" transform="translate(188.671875 0.015625)"/>
     <use xlink:href="#DejaVuSans-6e" transform="translate(250.195312 0.015625)"/>
     <use xlink:href="#DejaVuSans-73" transform="translate(313.574219 0.015625)"/>
     <use xlink:href="#DejaVuSans-69" transform="translate(365.673828 0.015625)"/>
     <use xlink:href="#DejaVuSans-6f" transform="translate(393.457031 0.015625)"/>
     <use xlink:href="#DejaVuSans-6e" transform="translate(454.638672 0.015625)"/>
     <use xlink:href="#DejaVuSans-20" transform="translate(518.017578 0.015625)"/>
     <use xlink:href="#Cmmi10-6e" transform="translate(549.804688 0.015625)"/>
     <use xlink:href="#Cmsy10-a1" transform="translate(627.373047 0.015625)"/>
     <use xlink:href="#Cmmi10-72" transform="translate(722.617188 0.015625)"/>
    </g>
   </g>
   <g id="text_5">
    <!-- Espace colonne -->
    <g transform="translate(332.113085 28.258206)rotate(-315)scale(0.1 -0.1)">
     <use xlink:href="#DejaVuSans-45"/>
     <use xlink:href="#DejaVuSans-73" x="63.183594"/>
     <use xlink:href="#DejaVuSans-70" x="115.283203"/>
     <use xlink:href="#DejaVuSans-61" x="178.759766"/>
     <use xlink:href="#DejaVuSans-63" x="240.039062"/>
     <use xlink:href="#DejaVuSans-65" x="295.019531"/>
     <use xlink:href="#DejaVuSans-20" x="356.542969"/>
     <use xlink:href="#DejaVuSans-63" x="388.330078"/>
     <use xlink:href="#DejaVuSans-6f" x="443.310547"/>
     <use xlink:href="#DejaVuSans-6c" x="504.492188"/>
     <use xlink:href="#DejaVuSans-6f" x="532.275391"/>
     <use xlink:href="#DejaVuSans-6e" x="593.457031"/>
     <use xlink:href="#DejaVuSans-6e" x="656.835938"/>
     <use xlink:href="#DejaVuSans-65" x="720.214844"/>
    </g>
   </g>
   <g id="text_6">
    <!-- dimension $r$ -->
    <g transform="translate(344.581631 12.572907)rotate(-315)scale(0.1 -0.1)">
     <use xlink:href="#DejaVuSans-64" transform="translate(0 0.015625)"/>
     <use xlink:href="#DejaVuSans-69" transform="translate(63.476562 0.015625)"/>
     <use xlink:href="#DejaVuSans-6d" transform="translate(91.259766 0.015625)"/>
     <use xlink:href="#DejaVuSans-65" transform="translate(188.671875 0.015625)"/>
     <use xlink:href="#DejaVuSans-6e" transform="translate(250.195312 0.015625)"/>
     <use xlink:href="#DejaVuSans-73" transform="translate(313.574219 0.015625)"/>
     <use xlink:href="#DejaVuSans-69" transform="translate(365.673828 0.015625)"/>
     <use xlink:href="#DejaVuSans-6f" transform="translate(393.457031 0.015625)"/>
     <use xlink:href="#DejaVuSans-6e" transform="translate(454.638672 0.015625)"/>
     <use xlink:href="#DejaVuSans-20" transform="translate(518.017578 0.015625)"/>
     <use xlink:href="#Cmmi10-72" transform="translate(549.804688 0.015625)"/>
    </g>
   </g>
   <g id="text_7">
    <!-- Espace nul-gauche -->
    <g transform="translate(359.500988 259.474902)rotate(-45)scale(0.1 -0.1)">
     <defs>
      <path id="DejaVuSans-2d" d="M 313 2009 
L 1997 2009 
L 1997 1497 
L 313 1497 
L 313 2009 
z
" transform="scale(0.015625)"/>
      <path id="DejaVuSans-68" d="M 3513 2113 
L 3513 0 
L 2938 0 
L 2938 2094 
Q 2938 2591 2744 2837 
Q 2550 3084 2163 3084 
Q 1697 3084 1428 2787 
Q 1159 2491 1159 1978 
L 1159 0 
L 581 0 
L 581 4863 
L 1159 4863 
L 1159 2956 
Q 1366 3272 1645 3428 
Q 1925 3584 2291 3584 
Q 2894 3584 3203 3211 
Q 3513 2838 3513 2113 
z
" transform="scale(0.015625)"/>
     </defs>
     <use xlink:href="#DejaVuSans-45"/>
     <use xlink:href="#DejaVuSans-73" x="63.183594"/>
     <use xlink:href="#DejaVuSans-70" x="115.283203"/>
     <use xlink:href="#DejaVuSans-61" x="178.759766"/>
     <use xlink:href="#DejaVuSans-63" x="240.039062"/>
     <use xlink:href="#DejaVuSans-65" x="295.019531"/>
     <use xlink:href="#DejaVuSans-20" x="356.542969"/>
     <use xlink:href="#DejaVuSans-6e" x="388.330078"/>
     <use xlink:href="#DejaVuSans-75" x="451.708984"/>
     <use xlink:href="#DejaVuSans-6c" x="515.087891"/>
     <use xlink:href="#DejaVuSans-2d" x="542.871094"/>
     <use xlink:href="#DejaVuSans-67" x="578.955078"/>
     <use xlink:href="#DejaVuSans-61" x="642.431641"/>
     <use xlink:href="#DejaVuSans-75" x="703.710938"/>
     <use xlink:href="#DejaVuSans-63" x="767.089844"/>
     <use xlink:href="#DejaVuSans-68" x="822.070312"/>
     <use xlink:href="#DejaVuSans-65" x="885.449219"/>
    </g>
   </g>
   <g id="text_8">
    <!-- dimension $m-r$ -->
    <g transform="translate(376.569861 270.559876)rotate(-45)scale(0.1 -0.1)">
     <defs>
      <path id="Cmmi10-6d" d="M 494 109 
Q 494 147 500 166 
L 978 2075 
Q 1025 2253 1025 2388 
Q 1025 2663 838 2663 
Q 638 2663 541 2423 
Q 444 2184 353 1819 
Q 353 1800 334 1789 
Q 316 1778 300 1778 
L 225 1778 
Q 203 1778 187 1801 
Q 172 1825 172 1844 
Q 241 2122 305 2315 
Q 369 2509 505 2668 
Q 641 2828 844 2828 
Q 1084 2828 1268 2676 
Q 1453 2525 1453 2291 
Q 1644 2541 1900 2684 
Q 2156 2828 2444 2828 
Q 2747 2828 2967 2673 
Q 3188 2519 3188 2234 
Q 3384 2513 3648 2670 
Q 3913 2828 4225 2828 
Q 4556 2828 4757 2648 
Q 4959 2469 4959 2138 
Q 4959 1875 4842 1503 
Q 4725 1131 4550 672 
Q 4459 450 4459 288 
Q 4459 97 4609 97 
Q 4859 97 5025 365 
Q 5191 634 5259 941 
Q 5278 978 5313 978 
L 5388 978 
Q 5413 978 5430 961 
Q 5447 944 5447 922 
Q 5447 916 5441 903 
Q 5353 541 5136 234 
Q 4919 -72 4594 -72 
Q 4369 -72 4209 83 
Q 4050 238 4050 459 
Q 4050 572 4103 709 
Q 4284 1191 4404 1569 
Q 4525 1947 4525 2234 
Q 4525 2413 4453 2538 
Q 4381 2663 4213 2663 
Q 3863 2663 3606 2448 
Q 3350 2234 3163 1881 
Q 3150 1819 3144 1784 
L 2731 141 
Q 2709 53 2632 -9 
Q 2556 -72 2463 -72 
Q 2388 -72 2330 -22 
Q 2272 28 2272 109 
Q 2272 147 2278 166 
L 2688 1797 
Q 2753 2059 2753 2234 
Q 2753 2413 2679 2538 
Q 2606 2663 2431 2663 
Q 2197 2663 2000 2559 
Q 1803 2456 1656 2286 
Q 1509 2116 1388 1881 
L 953 141 
Q 931 53 854 -9 
Q 778 -72 684 -72 
Q 606 -72 550 -22 
Q 494 28 494 109 
z
" transform="scale(0.015625)"/>
     </defs>
     <use xlink:href="#DejaVuSans-64" transform="translate(0 0.015625)"/>
     <use xlink:href="#DejaVuSans-69" transform="translate(63.476562 0.015625)"/>
     <use xlink:href="#DejaVuSans-6d" transform="translate(91.259766 0.015625)"/>
     <use xlink:href="#DejaVuSans-65" transform="translate(188.671875 0.015625)"/>
     <use xlink:href="#DejaVuSans-6e" transform="translate(250.195312 0.015625)"/>
     <use xlink:href="#DejaVuSans-73" transform="translate(313.574219 0.015625)"/>
     <use xlink:href="#DejaVuSans-69" transform="translate(365.673828 0.015625)"/>
     <use xlink:href="#DejaVuSans-6f" transform="translate(393.457031 0.015625)"/>
     <use xlink:href="#DejaVuSans-6e" transform="translate(454.638672 0.015625)"/>
     <use xlink:href="#DejaVuSans-20" transform="translate(518.017578 0.015625)"/>
     <use xlink:href="#Cmmi10-6d" transform="translate(549.804688 0.015625)"/>
     <use xlink:href="#Cmsy10-a1" transform="translate(655.15625 0.015625)"/>
     <use xlink:href="#Cmmi10-72" transform="translate(750.400391 0.015625)"/>
    </g>
   </g>
   <g id="text_9">
    <!-- $\vec{x}=\vec{x}_l+\vec{x}_n$ -->
    <g transform="translate(129.905385 156.693473)scale(0.11 -0.11)">
     <defs>
      <path id="Cmmi10-7e" d="M 1281 3809 
Q 1231 3809 1198 3846 
Q 1166 3884 1166 3938 
Q 1166 3984 1198 4023 
Q 1231 4063 1281 4063 
L 3547 4063 
Q 3378 4291 3378 4441 
Q 3378 4497 3417 4533 
Q 3456 4569 3506 4569 
Q 3613 4569 3634 4469 
Q 3697 4194 3938 4044 
Q 4000 4003 4000 3938 
Q 4000 3859 3938 3828 
Q 3575 3647 3353 3347 
Q 3328 3303 3256 3303 
Q 3209 3303 3168 3340 
Q 3128 3378 3128 3431 
Q 3128 3547 3438 3809 
L 1281 3809 
z
" transform="scale(0.015625)"/>
      <path id="Cmmi10-78" d="M 500 184 
Q 613 97 819 97 
Q 1019 97 1172 289 
Q 1325 481 1381 709 
L 1672 1844 
Q 1741 2153 1741 2266 
Q 1741 2425 1652 2544 
Q 1563 2663 1403 2663 
Q 1200 2663 1022 2536 
Q 844 2409 722 2214 
Q 600 2019 550 1819 
Q 538 1778 500 1778 
L 422 1778 
Q 372 1778 372 1838 
L 372 1856 
Q 434 2094 584 2320 
Q 734 2547 951 2687 
Q 1169 2828 1416 2828 
Q 1650 2828 1839 2703 
Q 2028 2578 2106 2363 
Q 2216 2559 2386 2693 
Q 2556 2828 2759 2828 
Q 2897 2828 3040 2779 
Q 3184 2731 3275 2631 
Q 3366 2531 3366 2381 
Q 3366 2219 3261 2101 
Q 3156 1984 2994 1984 
Q 2891 1984 2822 2050 
Q 2753 2116 2753 2216 
Q 2753 2350 2845 2451 
Q 2938 2553 3066 2572 
Q 2950 2663 2747 2663 
Q 2541 2663 2389 2472 
Q 2238 2281 2175 2047 
L 1894 916 
Q 1825 659 1825 494 
Q 1825 331 1917 214 
Q 2009 97 2163 97 
Q 2463 97 2698 361 
Q 2934 625 3009 941 
Q 3022 978 3059 978 
L 3138 978 
Q 3163 978 3178 961 
Q 3194 944 3194 922 
Q 3194 916 3188 903 
Q 3097 522 2806 225 
Q 2516 -72 2150 -72 
Q 1916 -72 1727 54 
Q 1538 181 1459 397 
Q 1359 209 1182 68 
Q 1006 -72 806 -72 
Q 669 -72 523 -23 
Q 378 25 287 125 
Q 197 225 197 378 
Q 197 528 301 651 
Q 406 775 563 775 
Q 669 775 741 711 
Q 813 647 813 544 
Q 813 409 723 309 
Q 634 209 500 184 
z
" transform="scale(0.015625)"/>
      <path id="Cmr10-3d" d="M 481 850 
Q 428 850 393 890 
Q 359 931 359 978 
Q 359 1031 393 1068 
Q 428 1106 481 1106 
L 4500 1106 
Q 4547 1106 4581 1068 
Q 4616 1031 4616 978 
Q 4616 931 4581 890 
Q 4547 850 4500 850 
L 481 850 
z
M 481 2094 
Q 428 2094 393 2131 
Q 359 2169 359 2222 
Q 359 2269 393 2309 
Q 428 2350 481 2350 
L 4500 2350 
Q 4547 2350 4581 2309 
Q 4616 2269 4616 2222 
Q 4616 2169 4581 2131 
Q 4547 2094 4500 2094 
L 481 2094 
z
" transform="scale(0.015625)"/>
      <path id="Cmmi10-6c" d="M 281 519 
Q 281 538 286 575 
Q 291 613 295 648 
Q 300 684 300 703 
L 1094 3872 
Q 1119 3981 1125 4044 
Q 1125 4147 709 4147 
Q 647 4147 647 4231 
Q 650 4247 661 4287 
Q 672 4328 689 4350 
Q 706 4372 738 4372 
L 1600 4441 
Q 1678 4441 1678 4359 
L 756 678 
Q 709 575 709 372 
Q 709 97 897 97 
Q 1094 97 1192 342 
Q 1291 588 1369 941 
Q 1381 978 1422 978 
L 1497 978 
Q 1522 978 1539 958 
Q 1556 938 1556 916 
Q 1481 606 1420 426 
Q 1359 247 1225 87 
Q 1091 -72 884 -72 
Q 628 -72 454 93 
Q 281 259 281 519 
z
" transform="scale(0.015625)"/>
      <path id="Cmr10-2b" d="M 481 1472 
Q 428 1472 393 1512 
Q 359 1553 359 1600 
Q 359 1647 393 1687 
Q 428 1728 481 1728 
L 2363 1728 
L 2363 3616 
Q 2363 3666 2400 3698 
Q 2438 3731 2491 3731 
Q 2538 3731 2578 3698 
Q 2619 3666 2619 3616 
L 2619 1728 
L 4500 1728 
Q 4547 1728 4581 1687 
Q 4616 1647 4616 1600 
Q 4616 1553 4581 1512 
Q 4547 1472 4500 1472 
L 2619 1472 
L 2619 -416 
Q 2619 -466 2578 -498 
Q 2538 -531 2491 -531 
Q 2438 -531 2400 -498 
Q 2363 -466 2363 -416 
L 2363 1472 
L 481 1472 
z
" transform="scale(0.015625)"/>
     </defs>
     <use xlink:href="#Cmmi10-7e" transform="translate(-4.94873 5.609375)"/>
     <use xlink:href="#Cmmi10-78" transform="translate(0 0.53125)"/>
     <use xlink:href="#Cmr10-3d" transform="translate(74.638672 0.53125)"/>
     <use xlink:href="#Cmmi10-7e" transform="translate(164.934082 5.609375)"/>
     <use xlink:href="#Cmmi10-78" transform="translate(169.882812 0.53125)"/>
     <use xlink:href="#Cmmi10-6c" transform="translate(231.427031 -16.475)scale(0.7)"/>
     <use xlink:href="#Cmr10-2b" transform="translate(276.212578 0.53125)"/>
     <use xlink:href="#Cmmi10-7e" transform="translate(366.507988 5.609375)"/>
     <use xlink:href="#Cmmi10-78" transform="translate(371.456719 0.53125)"/>
     <use xlink:href="#Cmmi10-6e" transform="translate(433.000938 -16.475)scale(0.7)"/>
    </g>
   </g>
   <g id="text_10">
    <!-- $A\vec{x}_n=\vec{0}$ -->
    <g transform="translate(254.583077 187.132427)scale(0.11 -0.11)">
     <defs>
      <path id="Cmmi10-41" d="M 288 0 
Q 225 0 225 84 
Q 250 225 306 225 
Q 566 225 755 328 
Q 944 431 1081 647 
Q 1094 659 1094 659 
L 3378 4513 
Q 3428 4581 3500 4581 
L 3584 4581 
Q 3603 4581 3622 4573 
Q 3641 4566 3655 4548 
Q 3669 4531 3669 4513 
L 4056 378 
Q 4056 350 4084 294 
Q 4147 225 4563 225 
Q 4628 225 4628 141 
Q 4606 56 4592 28 
Q 4578 0 4519 0 
L 2919 0 
Q 2859 0 2859 84 
Q 2894 225 2944 225 
Q 3450 225 3481 397 
L 3384 1453 
L 1806 1453 
L 1294 594 
Q 1247 525 1247 434 
Q 1247 322 1355 273 
Q 1463 225 1594 225 
Q 1656 225 1656 141 
Q 1634 50 1621 25 
Q 1609 0 1550 0 
L 288 0 
z
M 1931 1678 
L 3359 1678 
L 3169 3750 
L 1931 1678 
z
" transform="scale(0.015625)"/>
      <path id="Cmr10-30" d="M 1600 -141 
Q 816 -141 533 504 
Q 250 1150 250 2041 
Q 250 2597 351 3087 
Q 453 3578 754 3920 
Q 1056 4263 1600 4263 
Q 2022 4263 2290 4056 
Q 2559 3850 2700 3523 
Q 2841 3197 2892 2823 
Q 2944 2450 2944 2041 
Q 2944 1491 2842 1011 
Q 2741 531 2444 195 
Q 2147 -141 1600 -141 
z
M 1600 25 
Q 1956 25 2131 390 
Q 2306 756 2347 1200 
Q 2388 1644 2388 2144 
Q 2388 2625 2347 3031 
Q 2306 3438 2132 3767 
Q 1959 4097 1600 4097 
Q 1238 4097 1063 3765 
Q 888 3434 847 3029 
Q 806 2625 806 2144 
Q 806 1788 823 1472 
Q 841 1156 916 820 
Q 991 484 1158 254 
Q 1325 25 1600 25 
z
" transform="scale(0.015625)"/>
     </defs>
     <use xlink:href="#Cmmi10-41" transform="translate(0 0.109375)"/>
     <use xlink:href="#Cmmi10-7e" transform="translate(70.05127 5.1875)"/>
     <use xlink:href="#Cmmi10-78" transform="translate(75 0.109375)"/>
     <use xlink:href="#Cmmi10-6e" transform="translate(136.544219 -16.896875)scale(0.7)"/>
     <use xlink:href="#Cmr10-3d" transform="translate(202.486992 0.109375)"/>
     <use xlink:href="#Cmmi10-7e" transform="translate(289.012383 27.609375)"/>
     <use xlink:href="#Cmr10-30" transform="translate(297.731133 0.109375)"/>
    </g>
   </g>
   <g id="text_11">
    <!-- $A\vec{x}_l=\vec{b}$ -->
    <g transform="translate(256.123077 87.585889)scale(0.11 -0.11)">
     <defs>
      <path id="Cmmi10-62" d="M 1106 -72 
Q 719 -72 503 231 
Q 288 534 288 941 
Q 288 1000 317 1173 
Q 347 1347 347 1388 
L 966 3872 
Q 991 3981 997 4044 
Q 997 4147 581 4147 
Q 519 4147 519 4231 
Q 522 4247 533 4287 
Q 544 4328 561 4350 
Q 578 4372 609 4372 
L 1472 4441 
Q 1550 4441 1550 4359 
L 1075 2472 
Q 1438 2828 1806 2828 
Q 2078 2828 2273 2684 
Q 2469 2541 2566 2306 
Q 2663 2072 2663 1806 
Q 2663 1497 2542 1167 
Q 2422 838 2209 555 
Q 1997 272 1712 100 
Q 1428 -72 1106 -72 
z
M 1119 97 
Q 1338 97 1528 280 
Q 1719 463 1838 691 
Q 1966 947 2077 1386 
Q 2188 1825 2188 2088 
Q 2188 2316 2092 2489 
Q 1997 2663 1791 2663 
Q 1559 2663 1348 2492 
Q 1138 2322 978 2088 
L 800 1363 
Q 697 959 691 716 
Q 691 475 795 286 
Q 900 97 1119 97 
z
" transform="scale(0.015625)"/>
     </defs>
     <use xlink:href="#Cmmi10-41" transform="translate(0 0.328125)"/>
     <use xlink:href="#Cmmi10-7e" transform="translate(70.05127 5.40625)"/>
     <use xlink:href="#Cmmi10-78" transform="translate(75 0.328125)"/>
     <use xlink:href="#Cmmi10-6c" transform="translate(136.544219 -16.678125)scale(0.7)"/>
     <use xlink:href="#Cmr10-3d" transform="translate(181.329766 0.328125)"/>
     <use xlink:href="#Cmmi10-7e" transform="translate(263.085137 30.609375)"/>
     <use xlink:href="#Cmmi10-62" transform="translate(276.573906 0.328125)"/>
    </g>
   </g>
   <g id="text_12">
    <!-- $A\vec{x}=\vec{b}$ -->
    <g transform="translate(257.883077 127.763581)scale(0.11 -0.11)">
     <use xlink:href="#Cmmi10-41" transform="translate(0 0.328125)"/>
     <use xlink:href="#Cmmi10-7e" transform="translate(70.05127 5.40625)"/>
     <use xlink:href="#Cmmi10-78" transform="translate(75 0.328125)"/>
     <use xlink:href="#Cmr10-3d" transform="translate(149.638672 0.328125)"/>
     <use xlink:href="#Cmmi10-7e" transform="translate(231.394043 30.609375)"/>
     <use xlink:href="#Cmmi10-62" transform="translate(244.882812 0.328125)"/>
    </g>
   </g>
   <g id="text_13">
    <!-- $\vec{b}$ -->
    <g transform="translate(388.665769 104.302043)scale(0.11 -0.11)">
     <use xlink:href="#Cmmi10-7e" transform="translate(-13.48877 30.609375)"/>
     <use xlink:href="#Cmmi10-62" transform="translate(0 0.328125)"/>
    </g>
   </g>
   <g id="text_14">
    <!-- $\vec{x}_l$ -->
    <g transform="translate(75.270385 103.905012)scale(0.11 -0.11)">
     <use xlink:href="#Cmmi10-7e" transform="translate(-4.94873 5.609375)"/>
     <use xlink:href="#Cmmi10-78" transform="translate(0 0.53125)"/>
     <use xlink:href="#Cmmi10-6c" transform="translate(61.544219 -16.475)scale(0.7)"/>
    </g>
   </g>
   <g id="text_15">
    <!-- $\vec{x}_n$ -->
    <g transform="translate(74.115385 197.751165)scale(0.11 -0.11)">
     <use xlink:href="#Cmmi10-7e" transform="translate(-4.94873 5.609375)"/>
     <use xlink:href="#Cmmi10-78" transform="translate(0 0.53125)"/>
     <use xlink:href="#Cmmi10-6e" transform="translate(61.544219 -16.475)scale(0.7)"/>
    </g>
   </g>
  </g>
 </g>
 <defs>
  <clipPath id="pdb13a9233c">
   <rect x="7.2" y="7.375468" width="439.2" height="286.7"/>
  </clipPath>
 </defs>
</svg>
